<?xml version="1.0" encoding="UTF-8" standalone="no"?>
<!DOCTYPE svg PUBLIC "-//W3C//DTD SVG 1.1//EN" "http://www.w3.org/Graphics/SVG/1.1/DTD/svg11.dtd">
<svg xmlns="http://www.w3.org/2000/svg" version="1.1" viewBox="0.00 0.00 500.00 500.00">
<path fill="#000000" d="
  M 128.54 324.17
  L 82.49 324.17
  A 0.34 0.34 0.0 0 1 82.17 323.72
  L 146.51 131.01
  A 0.34 0.34 0.0 0 1 146.83 130.78
  L 199.84 130.78
  A 0.34 0.34 0.0 0 1 200.16 131.01
  L 264.46 323.72
  A 0.34 0.34 0.0 0 1 264.14 324.17
  L 216.78 324.17
  A 0.34 0.34 0.0 0 1 216.45 323.93
  L 207.23 295.21
  A 0.34 0.34 0.0 0 0 206.90 294.97
  L 155.22 294.97
  A 0.34 0.34 0.0 0 1 154.90 294.53
  L 166.03 256.29
  A 0.34 0.34 0.0 0 1 166.36 256.05
  L 194.15 256.05
  A 0.34 0.34 0.0 0 0 194.48 255.61
  L 172.93 188.50
  A 0.34 0.34 0.0 0 0 172.29 188.50
  L 128.87 323.93
  A 0.34 0.34 0.0 0 1 128.54 324.17
  Z"
/>
<path fill="#000000" d="
  M 317.59 169.80
  A 0.26 0.26 0.0 0 0 317.33 170.06
  L 317.33 323.80
  A 0.37 0.37 0.0 0 1 316.96 324.17
  L 271.55 324.17
  A 0.63 0.63 0.0 0 1 270.92 323.54
  L 270.92 131.22
  A 0.44 0.44 0.0 0 1 271.36 130.78
  Q 303.01 130.80 333.24 130.77
  C 347.74 130.75 360.36 131.81 373.29 135.86
  C 395.46 142.80 411.42 159.13 415.91 182.32
  C 418.47 195.53 418.02 211.31 413.57 223.86
  C 401.67 257.41 366.58 268.19 333.87 266.80
  Q 333.09 266.77 333.09 266.00
  L 333.09 228.55
  Q 333.09 227.74 333.91 227.78
  C 350.13 228.65 366.34 222.75 369.63 204.86
  Q 371.14 196.65 368.65 188.80
  C 365.16 177.79 356.36 172.53 345.43 170.63
  Q 340.52 169.78 336.57 169.77
  Q 326.28 169.76 317.59 169.80
  Z"
/>
<rect fill="#ff322e" x="58.37" y="423.83" width="383.70" height="46.44" rx="0.46"/>
</svg>
