<?xml version="1.0" encoding="UTF-8" standalone="no"?>
<!DOCTYPE svg PUBLIC "-//W3C//DTD SVG 1.1//EN" "http://www.w3.org/Graphics/SVG/1.1/DTD/svg11.dtd">
<svg xmlns="http://www.w3.org/2000/svg" version="1.1" viewBox="0.00 0.00 500.00 500.00">
<path fill="#000000" d="
  M 151.78 314.99
  A 0.79 0.79 0.0 0 1 150.99 315.78
  L 21.29 315.78
  A 0.79 0.79 0.0 0 1 20.50 314.99
  L 20.50 185.29
  A 0.79 0.79 0.0 0 1 21.29 184.50
  L 150.99 184.50
  A 0.79 0.79 0.0 0 1 151.78 185.29
  L 151.78 314.99
  Z
  M 102.99 247.01
  C 104.26 245.98 105.92 244.94 107.08 243.67
  Q 111.94 238.32 111.39 231.54
  C 110.26 217.40 98.53 213.25 86.25 213.24
  Q 69.78 213.21 58.84 213.27
  A 0.71 0.71 0.0 0 0 58.13 213.98
  L 58.13 286.22
  Q 58.13 287.15 59.06 287.15
  Q 66.45 287.15 85.25 287.14
  C 96.10 287.13 109.69 284.75 113.92 273.14
  Q 115.45 268.96 115.07 263.69
  Q 114.26 252.25 103.21 248.30
  A 0.75 0.75 0.0 0 1 102.99 247.01
  Z"
/>
<path fill="#000000" d="
  M 315.69 314.97
  A 0.81 0.81 0.0 0 1 314.88 315.78
  L 185.22 315.78
  A 0.81 0.81 0.0 0 1 184.41 314.97
  L 184.41 185.31
  A 0.81 0.81 0.0 0 1 185.22 184.50
  L 314.88 184.50
  A 0.81 0.81 0.0 0 1 315.69 185.31
  L 315.69 314.97
  Z
  M 266.83 247.03
  C 268.10 246.00 269.76 244.96 270.92 243.69
  Q 275.78 238.34 275.24 231.56
  C 274.11 217.42 262.38 213.26 250.10 213.24
  Q 233.63 213.21 222.69 213.26
  A 0.71 0.71 0.0 0 0 221.98 213.97
  L 221.94 286.22
  Q 221.94 287.15 222.87 287.15
  Q 230.26 287.16 249.06 287.16
  C 259.92 287.15 273.51 284.78 277.75 273.17
  Q 279.28 268.99 278.90 263.72
  Q 278.10 252.27 267.05 248.32
  A 0.75 0.75 0.0 0 1 266.83 247.03
  Z"
/>
<path fill="#000000" d="
  M 479.56 314.99
  A 0.79 0.79 0.0 0 1 478.77 315.78
  L 349.07 315.78
  A 0.79 0.79 0.0 0 1 348.28 314.99
  L 348.28 185.29
  A 0.79 0.79 0.0 0 1 349.07 184.50
  L 478.77 184.50
  A 0.79 0.79 0.0 0 1 479.56 185.29
  L 479.56 314.99
  Z
  M 381.18 250.84
  C 381.70 284.50 414.76 296.03 441.95 282.69
  A 0.83 0.83 0.0 0 0 442.41 281.95
  L 442.41 269.25
  A 0.60 0.59 74.3 0 0 441.51 268.74
  C 423.76 279.46 398.28 276.59 397.88 250.58
  C 397.47 224.57 422.85 220.90 440.92 231.06
  A 0.60 0.59 -76.1 0 0 441.81 230.53
  L 441.41 217.83
  A 0.83 0.83 0.0 0 0 440.93 217.11
  C 413.34 204.62 380.65 217.18 381.18 250.84
  Z"
/>
<path fill="#000000" d="
  M 72.95 226.11
  A 0.86 0.86 0.0 0 1 73.79 225.23
  L 85.91 225.04
  A 10.54 8.78 -0.9 0 1 96.59 233.66
  L 96.61 234.82
  A 10.54 8.78 -0.9 0 1 86.21 243.76
  L 74.09 243.95
  A 0.86 0.86 0.0 0 1 73.21 243.10
  L 72.95 226.11
  Z"
/>
<path fill="#000000" d="
  M 236.68 226.11
  A 0.90 0.90 0.0 0 1 237.56 225.19
  L 250.19 224.99
  A 10.05 8.76 -0.9 0 1 260.38 233.59
  L 260.40 234.79
  A 10.05 8.76 -0.9 0 1 250.49 243.71
  L 237.86 243.91
  A 0.90 0.90 0.0 0 1 236.94 243.02
  L 236.68 226.11
  Z"
/>
<path fill="#000000" d="
  M 73.26 255.47
  A 0.58 0.58 0.0 0 1 73.85 254.90
  L 89.28 255.11
  A 11.23 9.73 0.8 0 1 100.37 265.00
  L 100.37 265.50
  A 11.23 9.73 0.8 0 1 89.00 275.07
  L 73.57 274.86
  A 0.58 0.58 0.0 0 1 73.00 274.27
  L 73.26 255.47
  Z"
/>
<path fill="#000000" d="
  M 236.95 255.81
  A 0.82 0.82 0.0 0 1 237.78 255.00
  L 253.49 255.16
  A 10.82 9.78 0.6 0 1 264.21 265.05
  L 264.21 265.45
  A 10.82 9.78 0.6 0 1 253.29 275.12
  L 237.57 274.95
  A 0.82 0.82 0.0 0 1 236.75 274.13
  L 236.95 255.81
  Z"
/>
</svg>
