<?xml version="1.0" encoding="UTF-8" standalone="no"?>
<!DOCTYPE svg PUBLIC "-//W3C//DTD SVG 1.1//EN" "http://www.w3.org/Graphics/SVG/1.1/DTD/svg11.dtd">
<svg xmlns="http://www.w3.org/2000/svg" version="1.1" viewBox="0.00 0.00 500.00 500.00">
<path fill="#012d5b" d="
  M 250.19 159.39
  Q 250.19 159.39 250.20 159.39
  Q 250.21 159.39 250.22 159.38
  Q 285.04 121.37 335.55 114.85
  Q 345.91 113.51 355.46 113.86
  Q 402.37 115.56 438.46 144.78
  C 469.99 170.32 488.30 209.51 488.30 250.02
  C 488.30 290.53 469.98 329.72 438.45 355.26
  Q 402.37 384.48 355.45 386.18
  Q 345.90 386.53 335.55 385.19
  Q 285.04 378.66 250.22 340.65
  Q 250.21 340.64 250.19 340.64
  Q 250.19 340.64 250.18 340.64
  Q 250.17 340.64 250.17 340.64
  Q 250.15 340.64 250.14 340.65
  Q 215.32 378.66 164.81 385.18
  Q 154.45 386.52 144.90 386.17
  Q 97.99 384.47 61.91 355.25
  C 30.37 329.70 12.07 290.52 12.07 250.00
  C 12.07 209.49 30.38 170.31 61.92 144.77
  Q 98.00 115.54 144.91 113.85
  Q 154.46 113.50 164.82 114.84
  Q 215.33 121.36 250.15 159.38
  Q 250.16 159.39 250.17 159.39
  Q 250.18 159.39 250.19 159.39
  Z
  M 254.85 250.01
  A 106.46 106.46 0.0 0 0 148.39 143.55
  A 106.46 106.46 0.0 0 0 41.93 250.01
  A 106.46 106.46 0.0 0 0 148.39 356.47
  A 106.46 106.46 0.0 0 0 254.85 250.01
  Z
  M 355.75 253.67
  Q 355.88 253.67 355.97 253.87
  Q 365.12 275.94 374.50 298.35
  A 0.83 0.82 -11.2 0 0 375.26 298.85
  L 401.02 298.85
  A 0.60 0.60 0.0 0 0 401.59 298.43
  L 430.95 206.08
  A 0.31 0.31 0.0 0 0 430.65 205.68
  L 399.99 205.68
  A 0.52 0.52 0.0 0 0 399.49 206.05
  L 385.69 253.63
  Q 385.39 254.64 385.04 253.65
  L 367.91 206.03
  A 0.55 0.54 -9.9 0 0 367.40 205.67
  Q 362.04 205.62 355.80 205.61
  Q 349.57 205.60 344.21 205.65
  A 0.55 0.54 10.1 0 0 343.69 206.00
  L 326.46 253.59
  Q 326.11 254.58 325.81 253.56
  L 312.11 205.96
  A 0.52 0.52 0.0 0 0 311.61 205.58
  L 280.95 205.52
  A 0.31 0.31 0.0 0 0 280.65 205.92
  L 309.81 298.33
  A 0.60 0.60 0.0 0 0 310.38 298.75
  L 336.14 298.81
  A 0.83 0.82 11.3 0 0 336.90 298.31
  Q 346.33 275.92 355.53 253.87
  Q 355.62 253.67 355.75 253.67
  Z"
/>
<path fill="#012d5b" d="
  M 90.44 199.07
  A 0.55 0.55 0.0 0 1 90.99 198.52
  L 163.12 198.39
  A 54.44 50.54 -0.1 0 1 217.65 248.84
  L 217.65 252.80
  A 54.44 50.54 -0.1 0 1 163.30 303.43
  L 91.17 303.56
  A 0.55 0.55 0.0 0 1 90.62 303.01
  L 90.44 199.07
  Z
  M 123.98 229.10
  L 123.90 272.64
  A 0.22 0.22 0.0 0 0 124.12 272.86
  L 159.69 272.92
  A 22.43 20.25 0.1 0 0 182.16 252.71
  L 182.16 249.23
  A 22.43 20.25 0.1 0 0 159.77 228.94
  L 124.20 228.88
  A 0.22 0.22 0.0 0 0 123.98 229.10
  Z"
/>
</svg>
