<?xml version="1.0" encoding="UTF-8" standalone="no"?>
<!DOCTYPE svg PUBLIC "-//W3C//DTD SVG 1.1//EN" "http://www.w3.org/Graphics/SVG/1.1/DTD/svg11.dtd">
<svg xmlns="http://www.w3.org/2000/svg" version="1.1" viewBox="0.00 0.00 500.00 500.00">
<path fill="#1f2e60" d="
  M 456.10 248.11
  A 206.10 206.10 0.0 0 1 250.00 454.21
  A 206.10 206.10 0.0 0 1 43.90 248.11
  A 206.10 206.10 0.0 0 1 250.00 42.01
  A 206.10 206.10 0.0 0 1 456.10 248.11
  Z
  M 101.30 248.10
  Q 101.30 258.58 102.10 266.77
  C 105.94 305.82 123.43 340.33 152.96 365.80
  C 184.51 393.02 226.08 407.98 268.04 406.24
  Q 269.13 406.20 269.13 405.11
  L 269.13 400.33
  Q 269.13 399.26 268.06 399.26
  C 224.16 399.13 205.65 345.73 199.65 311.23
  Q 196.32 292.05 195.51 277.01
  Q 194.97 267.04 194.97 248.11
  Q 194.97 229.18 195.51 219.21
  Q 196.33 204.17 199.67 184.99
  C 205.67 150.50 224.20 97.10 268.10 96.98
  Q 269.17 96.98 269.17 95.91
  L 269.17 91.13
  Q 269.17 90.04 268.08 90.00
  C 226.12 88.25 184.55 103.20 152.99 130.41
  C 123.45 155.88 105.95 190.38 102.10 229.43
  Q 101.30 237.62 101.30 248.10
  Z
  M 354.58 185.54
  Q 355.18 185.39 355.27 184.77
  Q 355.43 183.54 355.43 181.58
  Q 355.47 149.08 355.58 135.50
  C 355.60 133.08 356.13 126.15 353.70 123.79
  Q 348.63 118.87 342.43 114.57
  Q 315.98 96.24 284.57 89.84
  A 0.81 0.80 -79.8 0 0 283.62 90.51
  C 283.00 94.62 283.40 96.38 286.17 100.17
  Q 315.11 139.90 344.09 179.61
  C 347.60 184.40 348.52 187.06 354.58 185.54
  Z
  M 281.62 266.66
  Q 282.08 266.83 282.08 267.32
  L 282.08 400.89
  A 0.51 0.51 0.0 0 0 282.71 401.39
  Q 319.97 392.42 350.76 369.02
  Q 353.51 366.93 353.51 364.75
  Q 353.42 323.33 353.45 269.72
  A 1.26 1.26 0.0 0 1 354.20 268.57
  L 372.60 260.44
  Q 374.68 259.13 374.75 258.02
  Q 374.91 255.56 374.69 253.70
  A 0.86 0.85 -3.4 0 0 373.84 252.95
  Q 301.03 252.98 261.77 252.93
  C 258.83 252.92 259.09 256.70 259.86 258.33
  Q 260.10 258.84 260.63 259.04
  L 281.62 266.66
  Z"
/>
</svg>
