<?xml version="1.0" encoding="UTF-8" standalone="no"?>
<!DOCTYPE svg PUBLIC "-//W3C//DTD SVG 1.1//EN" "http://www.w3.org/Graphics/SVG/1.1/DTD/svg11.dtd">
<svg xmlns="http://www.w3.org/2000/svg" version="1.1" viewBox="0.00 0.00 500.00 500.00">
<path fill="#000000" d="
  M 206.55 209.64
  A 0.54 0.47 -34.2 0 0 206.00 209.57
  L 174.25 223.40
  A 2.05 2.04 -4.2 0 0 173.10 224.72
  C 166.46 248.36 164.68 274.24 169.44 298.28
  C 176.28 332.83 197.18 358.55 230.55 371.19
  Q 234.55 372.71 242.13 374.69
  C 262.42 379.98 285.23 379.78 305.55 376.14
  Q 314.79 374.48 327.06 370.50
  A 1.07 1.07 0.0 0 0 327.80 369.48
  L 327.80 297.02
  A 1.68 1.67 21.3 0 0 327.25 295.78
  L 287.96 260.50
  A 0.36 0.36 0.0 0 1 287.97 259.96
  L 327.42 225.51
  A 1.10 1.10 0.0 0 0 327.80 224.68
  L 327.80 175.50
  Q 327.80 174.94 327.24 174.92
  Q 310.13 174.47 294.45 170.80
  C 264.77 163.85 241.94 154.52 206.69 144.85
  Q 190.85 140.51 173.97 138.87
  C 164.15 137.92 153.88 140.02 146.30 146.53
  Q 132.74 158.18 137.72 175.78
  Q 139.82 183.20 146.89 188.38
  Q 147.85 189.08 147.36 190.19
  A 0.98 0.97 -67.2 0 1 146.11 190.71
  Q 141.68 188.94 136.11 186.41
  C 122.11 180.07 111.79 169.58 108.21 154.37
  C 101.47 125.73 114.04 98.31 138.49 82.51
  C 170.11 62.08 207.35 69.59 241.08 80.48
  Q 241.40 80.58 278.48 93.28
  Q 293.18 98.32 308.51 100.95
  Q 315.53 102.16 321.98 102.08
  C 333.23 101.94 343.27 96.05 346.31 85.06
  C 348.92 75.64 344.63 65.83 335.85 61.41
  C 327.33 57.13 319.48 57.33 310.17 58.19
  A 0.54 0.54 0.0 0 1 309.58 57.65
  L 309.58 56.59
  Q 309.58 55.98 310.17 55.83
  C 331.14 50.64 354.73 55.70 371.77 68.75
  Q 391.79 84.08 392.70 110.03
  C 393.95 145.70 366.28 172.34 331.35 174.62
  A 0.39 0.38 88.5 0 0 330.99 175.01
  L 330.99 223.92
  A 1.15 1.14 21.4 0 0 331.36 224.76
  L 370.50 259.91
  Q 370.99 260.35 370.50 260.78
  L 331.69 295.66
  A 2.12 2.11 -21.0 0 0 330.99 297.23
  L 330.99 368.31
  A 0.47 0.47 0.0 0 0 331.64 368.74
  C 364.24 355.07 387.59 329.39 400.09 296.62
  Q 400.30 296.05 400.80 295.87
  A 0.90 0.89 80.3 0 1 402.00 296.73
  C 401.72 322.52 397.31 347.67 386.44 370.94
  Q 373.69 398.25 351.59 416.08
  C 334.62 429.77 313.52 438.95 291.73 442.81
  Q 241.22 451.76 194.74 434.02
  C 170.29 424.69 146.72 408.54 130.08 387.78
  Q 96.54 345.96 98.39 291.55
  C 99.61 255.33 117.68 221.55 144.73 198.18
  Q 181.49 166.43 229.53 155.92
  A 0.75 0.74 -3.2 0 1 230.43 156.72
  Q 230.35 157.56 229.33 158.09
  Q 190.66 178.10 175.39 218.86
  Q 175.24 219.28 175.51 219.57
  A 0.29 0.28 -34.0 0 0 175.84 219.63
  L 274.15 175.72
  A 0.49 0.49 0.0 0 1 274.84 176.17
  L 274.84 327.23
  A 1.13 1.13 0.0 0 1 274.17 328.26
  L 207.96 357.83
  A 0.94 0.94 0.0 0 1 206.63 356.97
  Q 206.64 336.79 206.69 210.05
  Q 206.69 209.76 206.55 209.64
  Z"
/>
</svg>
