<?xml version="1.0" encoding="UTF-8" standalone="no"?>
<!DOCTYPE svg PUBLIC "-//W3C//DTD SVG 1.1//EN" "http://www.w3.org/Graphics/SVG/1.1/DTD/svg11.dtd">
<svg xmlns="http://www.w3.org/2000/svg" version="1.1" viewBox="0.00 0.00 500.00 500.00">
<path fill="#1a2636" d="
  M 255.54 44.44
  A 1.93 1.93 0.0 0 0 253.05 44.61
  Q 210.83 85.41 168.55 127.78
  Q 162.60 133.75 158.44 142.35
  Q 146.95 166.09 163.74 185.20
  Q 171.62 194.17 184.51 201.44
  Q 202.75 211.74 222.10 219.15
  Q 237.64 225.10 263.85 233.08
  C 274.46 236.31 286.32 238.86 298.56 241.93
  C 309.72 244.73 318.14 246.15 332.70 249.01
  Q 342.53 250.93 352.42 252.39
  Q 363.60 254.04 374.78 255.68
  Q 385.91 257.31 429.24 260.60
  C 437.00 261.19 444.93 261.12 453.31 261.40
  A 1.00 1.00 0.0 0 1 454.28 262.39
  Q 454.38 278.48 454.21 292.01
  C 454.06 304.38 449.06 308.89 439.50 317.94
  Q 336.72 415.36 269.75 478.75
  Q 266.66 481.68 262.76 482.94
  Q 248.41 487.58 237.55 478.11
  C 234.21 475.19 228.20 469.85 223.78 465.61
  Q 145.17 390.09 65.75 315.86
  C 60.19 310.67 53.54 304.10 53.40 295.99
  Q 53.09 277.83 53.64 261.40
  A 0.87 0.87 0.0 0 1 54.93 260.67
  Q 56.20 261.39 58.25 263.55
  Q 72.23 278.32 82.33 288.16
  Q 163.60 367.27 245.65 444.17
  C 247.62 446.02 248.66 444.51 250.27 442.94
  Q 293.89 400.27 333.20 361.45
  C 341.03 353.72 347.78 343.41 349.10 332.88
  C 350.87 318.79 343.71 306.53 332.67 297.92
  Q 317.30 285.94 299.40 278.70
  Q 264.37 264.55 228.36 256.47
  Q 208.18 251.95 183.88 247.86
  Q 174.96 246.36 164.07 245.15
  Q 140.31 242.52 133.75 241.93
  C 107.90 239.61 80.53 238.74 55.13 240.85
  A 1.42 1.41 -2.2 0 1 53.60 239.44
  Q 53.60 221.36 53.81 201.53
  C 53.86 197.00 57.71 191.81 60.85 188.84
  Q 146.58 107.84 236.73 21.48
  Q 239.05 19.26 242.32 17.54
  C 255.46 10.64 266.13 16.15 275.70 25.35
  C 344.02 90.97 389.82 134.63 448.23 189.73
  Q 454.29 195.45 454.51 204.26
  Q 454.89 219.80 454.31 234.14
  Q 454.24 235.95 453.05 234.59
  Q 441.76 221.73 428.59 209.07
  Q 321.54 106.20 258.94 47.23
  Q 257.48 45.86 255.54 44.44
  Z"
/>
</svg>
