<?xml version="1.0" encoding="UTF-8" standalone="no"?>
<!DOCTYPE svg PUBLIC "-//W3C//DTD SVG 1.1//EN" "http://www.w3.org/Graphics/SVG/1.1/DTD/svg11.dtd">
<svg xmlns="http://www.w3.org/2000/svg" version="1.1" viewBox="0.00 0.00 1200.00 400.00">
<circle fill="#425afb" cx="938.61" cy="208.65" r="160.91"/>
<path fill="#425afb" d="
  M 185.71 271.19
  L 156.90 315.79
  A 0.44 0.44 0.0 0 1 156.53 315.99
  L 101.45 315.99
  A 0.44 0.44 0.0 0 1 101.08 315.31
  L 239.27 101.44
  A 0.44 0.44 0.0 0 1 239.64 101.24
  L 330.17 101.24
  A 0.44 0.44 0.0 0 1 330.61 101.68
  L 330.61 315.54
  A 0.44 0.44 0.0 0 1 330.17 315.98
  L 279.09 315.98
  A 0.44 0.44 0.0 0 1 278.65 315.54
  L 278.65 271.43
  A 0.44 0.44 0.0 0 0 278.21 270.99
  L 186.08 270.99
  A 0.44 0.44 0.0 0 0 185.71 271.19
  Z
  M 265.51 147.99
  A 0.39 0.39 0.0 0 0 265.18 148.17
  L 215.29 225.40
  A 0.39 0.39 0.0 0 0 215.62 226.00
  L 278.26 226.00
  A 0.39 0.39 0.0 0 0 278.65 225.61
  L 278.65 148.38
  A 0.39 0.39 0.0 0 0 278.26 147.99
  L 265.51 147.99
  Z"
/>
<path fill="#425afb" d="
  M 521.21 205.81
  L 491.32 252.07
  A 0.37 0.37 0.0 0 1 491.01 252.24
  L 426.00 252.24
  A 0.37 0.37 0.0 0 0 425.63 252.61
  L 425.63 315.61
  A 0.37 0.37 0.0 0 1 425.26 315.98
  L 374.05 315.98
  A 0.37 0.37 0.0 0 1 373.68 315.61
  L 373.68 101.61
  A 0.37 0.37 0.0 0 1 374.05 101.24
  L 521.07 101.24
  A 0.37 0.37 0.0 0 1 521.44 101.61
  L 521.44 147.86
  A 0.37 0.37 0.0 0 1 521.07 148.23
  L 426.00 148.23
  A 0.37 0.37 0.0 0 0 425.63 148.60
  L 425.63 204.87
  A 0.37 0.37 0.0 0 0 426.00 205.24
  L 520.90 205.24
  A 0.37 0.37 0.0 0 1 521.21 205.81
  Z"
/>
<path fill="#425afb" d="
  M 609.84 252.71
  L 609.84 315.45
  A 0.54 0.54 0.0 0 1 609.30 315.99
  L 558.68 315.99
  Q 557.87 315.99 557.87 315.18
  L 557.87 101.76
  A 0.51 0.51 0.0 0 1 558.38 101.25
  Q 629.53 101.42 655.50 101.49
  Q 674.03 101.55 689.65 106.66
  Q 692.06 107.45 698.48 110.52
  C 728.03 124.65 736.49 155.49 734.09 186.07
  C 731.93 213.71 718.83 236.23 692.09 246.06
  Q 675.92 252.01 658.52 252.17
  Q 643.91 252.30 610.34 252.21
  A 0.50 0.50 0.0 0 0 609.84 252.71
  Z
  M 609.79 148.73
  L 609.89 204.95
  A 0.37 0.37 0.0 0 0 610.26 205.32
  L 656.94 205.24
  A 26.35 24.79 -0.1 0 0 683.25 180.41
  L 683.23 173.03
  A 26.35 24.79 -0.1 0 0 656.84 148.28
  L 610.16 148.36
  A 0.37 0.37 0.0 0 0 609.79 148.73
  Z"
/>
</svg>
