<?xml version="1.0" encoding="UTF-8" standalone="no"?>
<!DOCTYPE svg PUBLIC "-//W3C//DTD SVG 1.1//EN" "http://www.w3.org/Graphics/SVG/1.1/DTD/svg11.dtd">
<svg xmlns="http://www.w3.org/2000/svg" version="1.1" viewBox="0.00 0.00 1200.00 400.00">
<path fill="#0031a7" d="
  M 336.05 29.27
  C 362.66 29.26 390.10 35.85 413.56 48.70
  Q 457.72 72.87 480.91 116.71
  C 505.65 163.46 506.01 219.28 482.28 266.55
  A 1.57 1.44 -7.0 0 1 481.82 267.09
  C 480.40 268.10 479.01 267.02 478.43 265.65
  Q 469.48 244.45 460.24 222.13
  Q 460.07 221.71 460.14 221.27
  Q 461.13 215.56 462.01 208.57
  C 471.48 132.96 412.11 65.75 336.06 65.78
  C 260.01 65.81 200.70 133.07 210.24 208.67
  Q 211.12 215.66 212.11 221.37
  Q 212.18 221.81 212.01 222.23
  Q 202.79 244.56 193.86 265.77
  C 193.28 267.14 191.89 268.22 190.47 267.21
  A 1.57 1.44 7.0 0 1 190.01 266.67
  C 166.24 219.42 166.56 163.60 191.26 116.83
  Q 214.41 72.97 258.55 48.76
  C 282.00 35.90 309.43 29.28 336.05 29.27
  Z"
/>
<path fill="#0031a7" d="
  M 233.35 298.31
  L 209.52 355.45
  A 1.69 1.68 -78.8 0 1 207.96 356.50
  L 175.34 356.50
  A 1.64 1.64 0.0 0 1 173.80 355.42
  Q 173.35 354.20 174.17 352.25
  Q 214.31 257.01 269.37 125.48
  A 1.19 1.18 -78.3 0 1 270.46 124.76
  L 325.47 124.76
  Q 327.94 124.76 327.94 127.23
  L 327.94 354.37
  A 2.15 2.14 90.0 0 1 325.80 356.52
  L 293.30 356.52
  A 2.03 2.03 0.0 0 1 291.27 354.49
  L 291.27 300.04
  A 2.26 2.26 0.0 0 0 289.01 297.78
  L 234.14 297.78
  A 0.86 0.85 -78.6 0 0 233.35 298.31
  Z
  M 291.29 170.49
  A 2.24 2.24 0.0 0 0 286.98 169.62
  L 250.18 257.91
  A 2.24 2.24 0.0 0 0 252.25 261.01
  L 289.05 261.01
  A 2.24 2.24 0.0 0 0 291.29 258.77
  L 291.29 170.49
  Z"
/>
<path fill="#0031a7" d="
  M 438.90 298.28
  A 0.86 0.85 78.7 0 0 438.11 297.75
  L 383.26 297.74
  A 2.26 2.26 0.0 0 0 381.00 300.00
  L 380.98 354.43
  A 2.03 2.03 0.0 0 1 378.95 356.46
  L 346.46 356.46
  A 2.15 2.14 -90.0 0 1 344.32 354.31
  L 344.38 127.21
  Q 344.38 124.74 346.85 124.74
  L 401.84 124.76
  A 1.19 1.18 78.3 0 1 402.93 125.48
  Q 457.95 256.99 498.06 352.22
  Q 498.88 354.17 498.43 355.39
  A 1.64 1.64 0.0 0 1 496.89 356.47
  L 464.27 356.46
  A 1.69 1.68 78.8 0 1 462.72 355.41
  L 438.90 298.28
  Z
  M 385.29 169.61
  A 2.23 2.23 0.0 0 0 381.00 170.46
  L 381.00 258.77
  A 2.23 2.23 0.0 0 0 383.23 261.00
  L 420.02 261.00
  A 2.23 2.23 0.0 0 0 422.07 257.91
  L 385.29 169.61
  Z"
/>
<path fill="#0031a7" d="
  M 577.75 126.49
  Q 581.61 126.49 585.47 126.51
  A 0.69 0.68 -10.5 0 1 586.10 126.93
  L 624.48 221.76
  A 0.35 0.35 0.0 0 1 624.16 222.24
  L 602.28 222.24
  Q 601.77 222.24 601.58 221.77
  L 596.56 209.36
  A 0.59 0.59 0.0 0 0 596.02 208.99
  Q 593.93 208.98 577.78 208.99
  Q 561.64 209.00 559.55 209.01
  A 0.59 0.59 0.0 0 0 559.01 209.38
  L 554.00 221.79
  Q 553.81 222.26 553.30 222.26
  L 531.42 222.28
  A 0.35 0.35 0.0 0 1 531.10 221.81
  L 569.39 126.94
  A 0.69 0.68 10.4 0 1 570.02 126.51
  Q 573.88 126.49 577.75 126.49
  Z
  M 566.91 188.86
  A 0.32 0.32 0.0 0 0 567.21 189.30
  L 588.39 189.18
  A 0.32 0.32 0.0 0 0 588.69 188.75
  L 577.95 161.65
  A 0.32 0.32 0.0 0 0 577.36 161.66
  L 566.91 188.86
  Z"
/>
<path fill="#0031a7" d="
  M 826.99 217.09
  A 0.22 0.21 68.8 0 0 826.63 216.93
  Q 819.01 223.73 809.26 223.30
  Q 788.95 222.40 780.88 204.35
  Q 775.18 191.58 779.34 176.59
  C 781.88 167.43 788.07 160.22 796.54 156.30
  C 806.06 151.88 818.40 152.27 826.54 159.65
  A 0.28 0.28 0.0 0 0 827.00 159.44
  L 827.00 126.99
  Q 827.00 126.49 827.51 126.49
  L 847.32 126.49
  Q 847.90 126.49 847.90 127.07
  L 847.90 221.91
  A 0.35 0.35 0.0 0 1 847.55 222.26
  L 827.51 222.26
  Q 826.99 222.26 826.99 221.74
  L 826.99 217.09
  Z
  M 812.3695 203.8798
  A 15.38 14.60 90.3 0 0 827.0498 188.5764
  A 15.38 14.60 90.3 0 0 812.5305 173.1202
  A 15.38 14.60 90.3 0 0 797.8502 188.4236
  A 15.38 14.60 90.3 0 0 812.3695 203.8798
  Z"
/>
<rect fill="#0031a7" x="931.89" y="126.47" width="21.00" height="95.76" rx="0.44"/>
<path fill="#0031a7" d="
  M 924.91 185.79
  C 926.39 206.02 912.95 222.09 892.51 223.58
  C 872.07 225.07 856.44 211.11 854.97 190.89
  C 853.49 170.66 866.94 154.59 887.37 153.10
  C 907.81 151.61 923.44 165.57 924.91 185.79
  Z
  M 890.3110 203.7648
  A 15.32 14.55 88.5 0 0 904.4550 188.0691
  A 15.32 14.55 88.5 0 0 889.5090 173.1352
  A 15.32 14.55 88.5 0 0 875.3650 188.8309
  A 15.32 14.55 88.5 0 0 890.3110 203.7648
  Z"
/>
<path fill="#0031a7" d="
  M 770.65 188.34
  Q 770.64 219.23 770.54 221.70
  Q 770.52 222.22 769.99 222.22
  L 750.35 222.22
  Q 749.71 222.22 749.71 221.59
  L 749.71 217.48
  Q 749.71 216.66 749.09 217.20
  C 741.14 224.10 730.44 224.84 721.03 221.21
  C 707.46 215.97 700.43 202.77 700.43 188.32
  C 700.44 173.86 707.48 160.67 721.06 155.44
  C 730.46 151.81 741.16 152.56 749.11 159.47
  Q 749.73 160.01 749.73 159.19
  L 749.73 155.08
  Q 749.73 154.45 750.37 154.45
  L 770.01 154.46
  Q 770.54 154.46 770.56 154.98
  Q 770.66 157.45 770.65 188.34
  Z
  M 736.2693 203.7480
  A 15.33 14.58 86.3 0 0 749.8296 187.5091
  A 15.33 14.58 86.3 0 0 734.2907 173.1520
  A 15.33 14.58 86.3 0 0 720.7304 189.3909
  A 15.33 14.58 86.3 0 0 736.2693 203.7480
  Z"
/>
<path fill="#0031a7" d="
  M 649.32 159.50
  A 0.21 0.20 -18.8 0 0 649.65 159.66
  Q 662.66 149.72 678.50 155.55
  C 688.80 159.33 693.61 169.84 693.61 180.25
  Q 693.61 182.24 693.54 221.67
  Q 693.54 222.28 692.94 222.28
  L 673.26 222.28
  Q 672.62 222.28 672.62 221.64
  Q 672.58 187.36 672.57 186.73
  Q 672.56 180.28 671.52 177.96
  C 668.32 170.81 658.87 168.84 653.28 173.85
  C 649.16 177.55 649.35 182.08 649.35 188.32
  Q 649.36 211.35 649.29 221.73
  Q 649.29 222.27 648.75 222.27
  L 628.79 222.27
  A 0.45 0.45 0.0 0 1 628.34 221.82
  L 628.34 154.96
  A 0.44 0.43 -0.0 0 1 628.78 154.53
  L 648.81 154.53
  Q 649.32 154.53 649.32 155.04
  L 649.32 159.50
  Z"
/>
<path fill="#0031a7" d="
  M 1006.78 217.32
  A 0.21 0.20 -18.8 0 0 1006.45 217.16
  Q 993.43 227.11 977.58 221.27
  C 967.27 217.49 962.46 206.97 962.46 196.55
  Q 962.45 194.56 962.52 155.10
  Q 962.52 154.49 963.12 154.49
  L 982.82 154.49
  Q 983.46 154.49 983.46 155.13
  Q 983.50 189.44 983.51 190.07
  Q 983.52 196.52 984.56 198.84
  C 987.77 206.00 997.22 207.97 1002.82 202.95
  C 1006.94 199.25 1006.75 194.72 1006.75 188.47
  Q 1006.74 165.42 1006.81 155.04
  Q 1006.81 154.50 1007.35 154.50
  L 1027.32 154.49
  A 0.45 0.45 0.0 0 1 1027.77 154.94
  L 1027.78 221.86
  A 0.44 0.43 -0.0 0 1 1027.34 222.29
  L 1007.29 222.29
  Q 1006.78 222.29 1006.78 221.78
  L 1006.78 217.32
  Z"
/>
<rect fill="#0031a7" x="535.40" y="260.74" width="21.68" height="95.74" rx="0.46"/>
<path fill="#0031a7" d="
  M 929.27 303.48
  C 926.04 303.84 923.81 306.06 925.66 309.25
  Q 926.97 311.52 930.80 312.80
  C 942.35 316.67 961.26 321.62 960.68 337.52
  C 959.91 358.66 936.22 360.71 920.94 357.07
  C 913.24 355.24 905.41 349.85 901.60 342.59
  Q 901.34 342.09 901.80 341.77
  L 915.17 332.69
  Q 915.60 332.39 915.91 332.82
  Q 921.56 340.58 931.78 341.85
  Q 935.45 342.31 937.75 341.24
  C 942.56 339.00 940.01 334.24 936.05 332.85
  Q 930.69 330.96 921.06 327.34
  Q 915.26 325.16 910.45 321.02
  Q 905.09 316.39 904.71 308.84
  C 904.22 298.89 910.24 291.70 919.65 288.88
  C 933.93 284.59 952.65 287.35 960.78 301.20
  A 0.43 0.43 0.0 0 1 960.65 301.78
  L 947.98 310.39
  A 0.52 0.52 0.0 0 1 947.36 310.37
  C 941.82 305.87 936.78 302.65 929.27 303.48
  Z"
/>
<path fill="#0031a7" d="
  M 854.35 328.85
  Q 856.54 337.03 863.81 339.19
  Q 874.31 342.30 882.40 334.33
  Q 882.78 333.95 883.22 334.27
  L 896.46 344.05
  Q 896.93 344.39 896.56 344.84
  C 888.22 355.19 874.52 359.57 861.99 357.40
  Q 851.20 355.53 844.34 348.98
  C 833.01 338.20 830.66 319.01 837.76 305.04
  Q 843.83 293.11 857.57 288.55
  C 861.76 287.15 869.77 286.77 874.48 287.85
  C 893.95 292.35 901.51 308.75 900.34 327.91
  A 0.37 0.36 1.6 0 1 899.97 328.25
  L 854.81 328.25
  Q 854.19 328.25 854.35 328.85
  Z
  M 855.09 315.00
  L 879.91 315.00
  A 0.13 0.13 0.0 0 0 880.04 314.87
  L 880.04 314.79
  A 12.50 10.65 -0.0 0 0 867.54 304.14
  L 867.46 304.14
  A 12.50 10.65 0.0 0 0 854.96 314.79
  L 854.96 314.87
  A 0.13 0.13 0.0 0 0 855.09 315.00
  Z"
/>
<path fill="#0031a7" d="
  M 679.41 322.55
  C 679.41 308.10 686.45 294.91 700.02 289.68
  C 709.43 286.06 720.12 286.81 728.06 293.71
  Q 728.68 294.25 728.68 293.43
  L 728.69 289.33
  Q 728.69 288.70 729.33 288.70
  L 748.96 288.71
  Q 749.49 288.71 749.51 289.24
  Q 749.61 291.70 749.60 322.58
  Q 749.59 353.45 749.48 355.92
  Q 749.46 356.44 748.93 356.44
  L 729.30 356.44
  Q 728.66 356.44 728.66 355.81
  L 728.66 351.71
  Q 728.66 350.89 728.04 351.43
  C 720.09 358.32 709.40 359.06 700.00 355.43
  C 686.42 350.19 679.40 337.00 679.41 322.55
  Z
  M 715.1092 338.0030
  A 15.33 14.58 86.6 0 0 728.7543 321.8353
  A 15.33 14.58 86.6 0 0 713.2908 307.3970
  A 15.33 14.58 86.6 0 0 699.6457 323.5647
  A 15.33 14.58 86.6 0 0 715.1092 338.0030
  Z"
/>
<path fill="#0031a7" d="
  M 588.08 294.43
  C 597.15 286.22 612.09 285.19 621.50 293.46
  Q 622.68 294.50 625.15 296.91
  Q 625.48 297.23 625.78 296.89
  C 632.38 289.56 640.54 287.32 650.07 287.93
  C 659.06 288.50 667.15 294.14 670.24 302.51
  Q 672.23 307.90 672.29 314.55
  Q 672.40 326.86 672.39 356.05
  A 0.45 0.45 0.0 0 1 671.94 356.50
  L 651.80 356.50
  A 0.38 0.38 0.0 0 1 651.42 356.12
  Q 651.50 330.32 651.39 317.61
  Q 651.32 309.96 645.78 307.30
  C 638.01 303.57 630.20 307.97 630.04 317.06
  Q 629.85 327.44 629.95 356.08
  Q 629.96 356.49 629.55 356.49
  L 609.70 356.49
  Q 609.10 356.49 609.09 355.89
  Q 608.99 324.90 609.06 319.76
  C 609.11 315.77 608.56 310.95 605.49 308.52
  C 600.47 304.54 592.15 305.35 589.11 311.11
  Q 587.57 314.04 587.56 320.65
  Q 587.52 338.33 587.57 355.93
  Q 587.57 356.49 587.01 356.49
  L 567.00 356.49
  A 0.36 0.36 0.0 0 1 566.64 356.13
  L 566.64 289.29
  Q 566.64 288.75 567.19 288.75
  L 587.04 288.75
  Q 587.56 288.75 587.56 289.27
  L 587.56 294.20
  Q 587.56 294.90 588.08 294.43
  Z"
/>
<path fill="#0031a7" d="
  M 805.89 293.55
  L 805.89 289.33
  Q 805.89 288.75 806.47 288.75
  L 826.46 288.75
  A 0.34 0.34 0.0 0 1 826.80 289.09
  Q 826.83 340.67 826.76 353.24
  Q 826.73 359.87 823.61 367.12
  C 818.89 378.10 807.29 384.43 795.74 385.40
  C 782.72 386.48 770.89 383.34 761.72 373.83
  A 0.55 0.55 0.0 0 1 761.76 373.03
  L 774.84 361.87
  A 0.43 0.43 0.0 0 1 775.41 361.88
  C 780.38 366.43 786.92 368.87 793.72 367.47
  Q 805.19 365.11 805.94 352.01
  Q 806.02 350.62 804.98 351.55
  C 796.96 358.70 783.63 359.29 774.36 354.35
  Q 760.30 346.86 757.20 330.06
  C 754.35 314.66 760.56 296.58 776.07 290.14
  Q 786.26 285.90 797.50 289.23
  Q 799.64 289.87 805.38 293.82
  Q 805.89 294.17 805.89 293.55
  Z
  M 792.2792 338.0030
  A 15.33 14.58 86.6 0 0 805.9243 321.8353
  A 15.33 14.58 86.6 0 0 790.4608 307.3970
  A 15.33 14.58 86.6 0 0 776.8157 323.5647
  A 15.33 14.58 86.6 0 0 792.2792 338.0030
  Z"
/>
</svg>
