<?xml version="1.0" encoding="UTF-8" standalone="no"?>
<!DOCTYPE svg PUBLIC "-//W3C//DTD SVG 1.1//EN" "http://www.w3.org/Graphics/SVG/1.1/DTD/svg11.dtd">
<svg xmlns="http://www.w3.org/2000/svg" version="1.1" viewBox="0.00 0.00 1200.00 400.00">
<path fill="#cc3401" d="
  M 110.04 206.00
  L 129.26 206.00
  A 0.36 0.36 0.0 0 1 129.62 206.36
  L 129.62 245.90
  A 0.36 0.36 0.0 0 1 129.26 246.26
  L 83.61 246.26
  A 0.36 0.36 0.0 0 0 83.30 246.43
  L 69.01 269.84
  A 0.36 0.36 0.0 0 1 68.70 270.01
  L 20.30 270.01
  A 0.36 0.36 0.0 0 1 20.00 269.45
  L 138.06 93.90
  A 0.36 0.36 0.0 0 1 138.36 93.74
  L 179.80 93.74
  A 0.36 0.36 0.0 0 1 180.16 94.10
  L 180.16 270.90
  A 0.36 0.36 0.0 0 1 179.80 271.26
  L 137.09 271.26
  A 0.36 0.36 0.0 0 1 136.73 270.90
  L 136.73 162.54
  A 0.36 0.36 0.0 0 0 136.06 162.35
  L 109.73 205.45
  A 0.36 0.36 0.0 0 0 110.04 206.00
  Z"
/>
<path fill="#cc3401" d="
  M 230.82 167.38
  A 0.58 0.58 0.0 0 0 230.28 167.96
  L 230.28 302.11
  A 0.89 0.88 0.0 0 1 229.39 302.99
  L 187.97 302.99
  A 1.03 1.03 0.0 0 1 186.94 301.96
  L 186.94 130.06
  A 0.55 0.55 0.0 0 1 187.48 129.51
  Q 215.92 129.07 248.26 129.54
  C 272.71 129.90 296.67 141.26 306.47 164.28
  C 310.98 174.86 311.82 187.92 310.56 199.80
  C 309.38 210.87 306.25 221.61 299.24 230.10
  Q 286.22 245.87 264.56 246.17
  Q 246.50 246.42 237.63 246.28
  A 0.49 0.48 0.6 0 1 237.15 245.80
  L 237.15 208.55
  A 0.86 0.85 1.0 0 1 238.04 207.70
  Q 245.31 207.95 251.23 207.38
  C 263.32 206.21 267.09 197.32 266.74 186.57
  Q 266.33 174.06 256.47 169.35
  Q 252.18 167.29 243.78 167.10
  Q 236.90 166.93 230.82 167.38
  Z"
/>
<path fill="#231f20" d="
  M 378.70 164.50
  Q 382.82 164.49 386.65 164.57
  Q 387.34 164.59 387.60 165.23
  L 419.01 244.26
  A 0.57 0.56 -10.8 0 1 418.48 245.03
  L 402.72 245.03
  A 0.99 0.97 -10.3 0 1 401.80 244.41
  L 395.08 227.50
  A 1.03 1.02 -10.1 0 0 394.15 226.86
  Q 386.45 226.73 378.88 226.76
  Q 371.31 226.78 363.60 226.95
  A 1.03 1.02 9.8 0 0 362.68 227.59
  L 356.06 244.54
  A 0.99 0.97 10.0 0 1 355.14 245.16
  L 339.38 245.25
  A 0.57 0.56 10.5 0 1 338.85 244.49
  L 369.81 165.28
  Q 370.07 164.64 370.76 164.62
  Q 374.59 164.51 378.70 164.50
  Z
  M 367.77 212.53
  A 0.54 0.54 0.0 0 0 368.28 213.26
  L 388.76 213.22
  A 0.54 0.54 0.0 0 0 389.26 212.49
  L 378.97 184.65
  A 0.54 0.54 0.0 0 0 377.96 184.65
  L 367.77 212.53
  Z"
/>
<rect fill="#231f20" x="-7.71" y="-7.12" transform="translate(663.85,171.62) rotate(0.1)" width="15.42" height="14.24" rx="0.61"/>
<path fill="#231f20" d="
  M 865.44 192.48
  L 865.44 165.40
  A 0.90 0.90 0.0 0 1 866.34 164.50
  L 880.13 164.50
  A 0.78 0.77 90.0 0 1 880.90 165.28
  L 880.90 242.68
  Q 880.90 245.24 878.34 245.25
  Q 869.09 245.26 868.75 245.27
  Q 866.29 245.32 866.46 242.75
  Q 866.57 240.92 866.59 237.98
  A 0.37 0.37 0.0 0 0 865.96 237.71
  C 863.47 240.08 862.26 241.38 859.82 242.87
  Q 849.05 249.48 838.32 243.98
  C 824.00 236.62 821.44 216.77 825.60 203.11
  Q 829.21 191.30 839.88 187.05
  C 847.10 184.18 854.94 184.97 861.02 189.70
  Q 863.82 191.88 865.02 192.70
  Q 865.44 192.99 865.44 192.48
  Z
  M 839.68 215.67
  C 839.65 223.73 842.26 234.17 852.48 234.21
  C 862.69 234.25 865.38 223.83 865.41 215.77
  C 865.44 207.71 862.83 197.28 852.62 197.24
  C 842.40 197.20 839.71 207.62 839.68 215.67
  Z"
/>
<path fill="#231f20" d="
  M 938.44 215.21
  A 0.59 0.59 0.0 0 0 938.07 215.76
  L 938.07 244.08
  A 0.91 0.91 0.0 0 1 937.16 244.99
  L 922.74 244.99
  Q 921.84 244.99 921.84 244.10
  L 921.84 165.15
  A 0.64 0.64 0.0 0 1 922.47 164.51
  Q 938.65 164.44 953.75 164.73
  C 962.13 164.90 970.41 164.93 976.61 171.32
  C 986.36 181.39 985.78 200.83 974.20 209.40
  C 968.26 213.79 960.20 214.54 953.00 214.66
  C 945.61 214.79 940.40 214.39 938.44 215.21
  Z
  M 938.00 178.80
  L 938.12 200.43
  A 0.49 0.49 0.0 0 0 938.61 200.92
  L 954.34 200.84
  A 12.38 11.13 -0.3 0 0 966.66 189.65
  L 966.66 189.29
  A 12.38 11.13 -0.3 0 0 954.22 178.22
  L 938.49 178.30
  A 0.49 0.49 0.0 0 0 938.00 178.80
  Z"
/>
<path fill="#231f20" d="
  M 738.64 199.00
  L 733.46 199.00
  A 1.16 1.15 0.0 0 1 732.30 197.85
  L 732.30 187.81
  A 1.05 1.04 -90.0 0 1 733.34 186.76
  L 738.69 186.76
  A 0.73 0.71 -90.0 0 0 739.40 186.03
  L 739.40 175.85
  Q 739.40 175.07 740.07 174.68
  L 754.21 166.52
  A 0.45 0.45 0.0 0 1 754.89 166.91
  L 754.89 185.80
  A 0.96 0.95 -0.0 0 0 755.85 186.75
  L 763.54 186.75
  A 1.94 1.93 90.0 0 1 765.47 188.69
  L 765.47 196.89
  A 2.12 2.11 -0.0 0 1 763.35 199.00
  L 755.79 199.00
  A 0.82 0.81 -89.3 0 0 754.98 199.80
  Q 754.74 213.87 754.98 227.16
  C 755.12 234.56 758.08 234.05 764.18 232.54
  A 0.85 0.85 0.0 0 1 765.22 233.23
  L 766.81 242.94
  A 1.13 1.13 0.0 0 1 766.13 244.16
  Q 756.36 248.30 746.89 244.85
  C 741.02 242.72 739.46 236.33 739.41 230.76
  Q 739.36 226.08 739.41 199.77
  Q 739.41 199.00 738.64 199.00
  Z"
/>
<path fill="#231f20" d="
  M 560.4551 246.5887
  A 30.80 30.34 93.9 0 1 532.2803 213.7964
  A 30.80 30.34 93.9 0 1 564.6449 185.1313
  A 30.80 30.34 93.9 0 1 592.8197 217.9236
  A 30.80 30.34 93.9 0 1 560.4551 246.5887
  Z
  M 562.6084 234.0300
  A 18.13 14.44 90.1 0 0 577.0800 215.9252
  A 18.13 14.44 90.1 0 0 562.6716 197.7700
  A 18.13 14.44 90.1 0 0 548.2000 215.8748
  A 18.13 14.44 90.1 0 0 562.6084 234.0300
  Z"
/>
<path fill="#231f20" d="
  M 434.58 198.79
  C 432.78 200.13 433.38 202.65 434.78 203.98
  Q 435.75 204.90 437.81 205.46
  Q 453.64 209.71 456.13 210.46
  C 459.93 211.61 464.54 213.19 467.13 216.15
  C 477.25 227.74 467.79 242.93 454.50 245.40
  C 440.08 248.08 422.27 245.75 417.35 229.60
  A 0.99 0.98 -13.0 0 1 418.14 228.34
  L 431.22 226.20
  A 1.30 1.29 74.8 0 1 432.64 227.02
  C 433.76 229.90 434.89 232.73 438.26 233.89
  Q 445.98 236.53 452.37 233.82
  C 456.07 232.26 457.42 227.11 453.21 225.07
  Q 451.55 224.26 446.03 223.26
  Q 435.95 221.42 428.11 217.55
  C 420.18 213.63 417.24 205.52 420.45 197.15
  C 425.64 183.65 444.38 184.09 455.81 186.97
  C 462.38 188.62 466.44 192.92 468.78 198.95
  Q 469.57 201.01 467.39 201.37
  L 456.84 203.08
  A 2.59 2.59 0.0 0 1 454.10 201.68
  C 450.93 195.29 439.54 195.08 434.58 198.79
  Z"
/>
<path fill="#231f20" d="
  M 491.49 198.79
  C 489.69 200.13 490.29 202.65 491.69 203.98
  Q 492.66 204.90 494.72 205.46
  Q 510.55 209.71 513.04 210.46
  C 516.84 211.61 521.46 213.18 524.05 216.14
  C 534.17 227.73 524.71 242.93 511.42 245.40
  C 497.00 248.08 479.19 245.75 474.27 229.60
  A 0.99 0.98 -13.0 0 1 475.06 228.34
  L 488.14 226.20
  A 1.30 1.29 74.8 0 1 489.56 227.02
  C 490.68 229.90 491.81 232.73 495.18 233.89
  Q 502.90 236.53 509.29 233.82
  C 512.99 232.26 514.34 227.11 510.13 225.07
  Q 508.47 224.26 502.95 223.26
  Q 492.87 221.42 485.02 217.55
  C 477.09 213.63 474.15 205.52 477.36 197.15
  C 482.55 183.65 501.29 184.09 512.72 186.96
  C 519.29 188.61 523.35 192.91 525.69 198.94
  Q 526.48 201.00 524.30 201.36
  L 513.75 203.08
  A 2.59 2.59 0.0 0 1 511.01 201.68
  C 507.84 195.29 496.45 195.08 491.49 198.79
  Z"
/>
<path fill="#231f20" d="
  M 633.81 203.83
  C 630.98 197.23 623.43 195.93 617.68 199.68
  Q 613.36 202.49 612.25 208.83
  C 610.73 217.50 611.27 232.13 622.27 233.66
  Q 626.26 234.21 629.40 232.74
  C 633.12 231.01 634.31 227.20 635.67 223.41
  Q 635.87 222.84 636.46 222.95
  L 650.18 225.32
  Q 650.66 225.40 650.56 225.88
  C 648.67 234.68 643.22 241.94 634.48 244.71
  C 619.32 249.51 602.83 244.46 597.69 228.03
  Q 592.68 212.02 600.18 197.84
  C 606.31 186.24 623.84 182.48 635.59 187.20
  Q 646.12 191.42 649.87 203.79
  A 0.32 0.32 0.0 0 1 649.62 204.20
  L 635.73 206.47
  Q 635.15 206.56 634.87 206.05
  Q 634.39 205.19 633.81 203.83
  Z"
/>
<path fill="#231f20" d="
  M 714.32 239.38
  C 709.47 243.39 703.83 246.56 697.71 246.33
  Q 691.01 246.07 685.88 243.59
  Q 679.63 240.56 678.22 232.48
  Q 676.39 221.92 683.72 216.21
  Q 687.21 213.49 697.77 211.10
  Q 705.53 209.34 713.38 207.34
  A 0.51 0.51 0.0 0 0 713.75 206.91
  C 714.58 199.53 710.35 197.17 703.73 197.02
  Q 695.95 196.85 693.47 204.15
  Q 693.33 204.57 692.90 204.49
  L 680.02 202.26
  Q 679.49 202.17 679.61 201.65
  Q 681.57 193.37 688.23 189.18
  C 695.87 184.38 709.17 184.91 717.86 187.24
  C 727.37 189.79 729.12 198.29 729.03 207.04
  C 728.90 219.24 728.50 226.56 729.65 236.39
  C 729.97 239.16 731.22 241.81 732.12 244.48
  A 0.38 0.38 0.0 0 1 731.76 244.99
  L 718.39 244.99
  A 1.55 1.54 79.0 0 1 716.96 244.02
  L 715.21 239.61
  Q 714.92 238.89 714.32 239.38
  Z
  M 711.28 231.02
  C 714.27 227.74 714.14 221.37 713.78 217.84
  Q 713.72 217.24 713.13 217.38
  Q 702.35 219.86 698.14 221.40
  C 694.30 222.81 691.75 227.18 693.95 231.03
  C 697.86 237.90 706.86 235.89 711.28 231.02
  Z"
/>
<path fill="#231f20" d="
  M 781.89 222.60
  C 782.83 228.38 785.46 233.55 791.99 234.55
  Q 801.11 235.94 803.91 227.23
  A 1.00 0.99 13.6 0 1 805.03 226.55
  L 818.94 228.96
  Q 819.55 229.06 819.33 229.63
  Q 814.40 242.50 802.66 245.36
  C 795.18 247.18 784.78 246.49 778.04 242.10
  Q 768.66 235.99 766.65 223.62
  C 763.87 206.49 770.20 187.68 789.99 185.65
  C 802.39 184.38 813.49 190.25 817.74 202.36
  Q 820.67 210.68 820.23 219.70
  Q 820.21 220.21 819.70 220.21
  Q 788.22 220.28 785.00 220.26
  Q 782.84 220.25 782.07 221.58
  Q 781.80 222.06 781.89 222.60
  Z
  M 782.94 210.97
  L 804.16 211.01
  A 0.81 0.81 0.0 0 0 804.97 210.20
  L 804.97 209.90
  A 12.59 11.22 -89.9 0 0 793.77 197.29
  L 793.37 197.29
  A 12.59 11.22 -89.9 0 0 782.13 209.86
  L 782.13 210.16
  A 0.81 0.81 0.0 0 0 782.94 210.97
  Z"
/>
<path fill="#231f20" d="
  M 1005.33 193.93
  Q 1005.66 193.55 1008.47 189.98
  C 1013.12 184.09 1021.47 184.89 1027.53 188.17
  A 0.80 0.80 0.0 0 1 1027.90 189.14
  L 1023.62 201.11
  A 0.60 0.60 0.0 0 1 1022.75 201.43
  C 1010.39 194.27 1006.49 205.39 1006.14 215.00
  Q 1005.73 225.87 1005.93 244.25
  A 0.73 0.73 0.0 0 1 1005.20 244.99
  L 991.33 244.99
  A 0.90 0.89 -90.0 0 1 990.44 244.09
  L 990.44 188.47
  A 1.92 1.92 0.0 0 1 992.33 186.55
  Q 995.87 186.48 1002.29 186.49
  Q 1005.06 186.49 1004.82 189.52
  Q 1004.67 191.26 1004.82 193.75
  Q 1004.86 194.46 1005.33 193.93
  Z"
/>
<path fill="#231f20" d="
  M 1040.78 221.57
  Q 1040.51 222.05 1040.60 222.59
  C 1041.54 228.37 1044.17 233.54 1050.70 234.55
  Q 1059.82 235.94 1062.62 227.23
  A 1.00 0.99 13.7 0 1 1063.74 226.55
  L 1077.65 228.97
  Q 1078.26 229.07 1078.04 229.64
  Q 1073.10 242.51 1061.36 245.36
  C 1053.88 247.18 1043.48 246.48 1036.74 242.09
  Q 1027.37 235.98 1025.36 223.61
  C 1022.59 206.47 1028.93 187.67 1048.72 185.65
  C 1061.12 184.38 1072.22 190.26 1076.46 202.37
  Q 1079.39 210.69 1078.94 219.71
  Q 1078.92 220.22 1078.41 220.22
  Q 1046.93 220.28 1043.71 220.25
  Q 1041.55 220.24 1040.78 221.57
  Z
  M 1041.49 210.98
  L 1063.01 211.02
  A 0.66 0.66 0.0 0 0 1063.67 210.36
  L 1063.67 209.80
  A 12.50 11.15 -89.9 0 0 1052.54 197.28
  L 1052.00 197.28
  A 12.50 11.15 -89.9 0 0 1040.83 209.76
  L 1040.83 210.32
  A 0.66 0.66 0.0 0 0 1041.49 210.98
  Z"
/>
<path fill="#231f20" d="
  M 1133.35 234.52
  Q 1133.29 234.58 1131.61 237.13
  C 1129.53 240.29 1124.57 243.90 1120.22 244.83
  C 1110.35 246.94 1101.19 247.39 1092.22 242.88
  Q 1083.78 238.63 1081.16 229.22
  A 0.68 0.68 0.0 0 1 1081.71 228.36
  L 1095.19 226.16
  Q 1096.14 226.00 1096.41 226.93
  C 1099.05 235.94 1108.52 236.64 1115.96 233.95
  C 1121.56 231.92 1120.38 225.37 1114.82 224.23
  Q 1101.55 221.52 1093.49 218.28
  C 1077.12 211.68 1080.58 190.90 1096.60 186.85
  Q 1106.73 184.28 1117.03 186.29
  Q 1128.45 188.52 1132.69 199.58
  A 1.26 1.26 0.0 0 1 1131.72 201.27
  L 1119.61 203.25
  Q 1119.01 203.35 1118.63 202.87
  C 1117.54 201.52 1116.99 199.67 1115.39 198.78
  Q 1108.40 194.88 1100.77 197.47
  Q 1097.19 198.69 1097.30 202.15
  Q 1097.31 202.64 1097.67 202.98
  Q 1099.94 205.09 1102.92 205.88
  Q 1111.06 208.02 1116.35 209.31
  C 1125.38 211.52 1135.19 215.71 1134.95 226.60
  A 1.18 1.18 0.0 0 0 1136.32 227.80
  L 1146.18 226.19
  Q 1146.82 226.09 1147.16 226.64
  C 1148.12 228.19 1148.77 230.48 1149.93 231.54
  Q 1153.33 234.64 1155.76 234.98
  C 1159.69 235.53 1166.40 235.63 1169.30 232.31
  C 1172.87 228.22 1169.62 225.14 1165.51 224.23
  Q 1154.37 221.76 1145.75 218.79
  C 1140.93 217.13 1136.51 213.50 1134.98 208.55
  C 1131.80 198.28 1137.10 189.38 1147.38 186.87
  C 1155.89 184.78 1170.63 184.37 1177.78 190.66
  Q 1182.02 194.39 1184.14 200.57
  A 0.42 0.42 0.0 0 1 1183.81 201.13
  L 1170.39 203.32
  Q 1169.86 203.41 1169.62 202.94
  Q 1167.56 199.06 1165.61 198.19
  Q 1158.42 194.97 1151.25 197.72
  C 1148.57 198.75 1147.11 202.00 1149.75 203.91
  Q 1151.60 205.25 1152.13 205.37
  Q 1162.74 207.78 1165.70 208.62
  C 1173.38 210.82 1182.68 213.57 1185.49 221.46
  C 1187.78 227.92 1184.76 235.89 1179.94 240.30
  C 1171.95 247.61 1157.13 247.57 1147.23 244.52
  Q 1139.93 242.27 1136.59 237.66
  Q 1134.42 234.66 1134.18 234.49
  Q 1133.74 234.19 1133.35 234.52
  Z
  M 1134.27 228.26
  L 1132.72 228.33
  A 0.43 0.43 0.0 0 0 1132.31 228.78
  L 1132.32 229.00
  A 3.51 1.21 87.4 0 0 1133.68 232.45
  L 1133.68 232.45
  A 3.51 1.21 87.4 0 0 1134.73 228.89
  L 1134.72 228.67
  A 0.43 0.43 0.0 0 0 1134.27 228.26
  Z"
/>
<rect fill="#231f20" x="656.14" y="186.76" width="15.42" height="58.24" rx="0.51"/>
</svg>
