<?xml version="1.0" encoding="UTF-8" standalone="no"?>
<!DOCTYPE svg PUBLIC "-//W3C//DTD SVG 1.1//EN" "http://www.w3.org/Graphics/SVG/1.1/DTD/svg11.dtd">
<svg xmlns="http://www.w3.org/2000/svg" version="1.1" viewBox="0.00 0.00 1200.00 400.00">
<path fill="#000000" d="
  M 364.39 355.85
  A 1.96 1.96 0.0 0 1 362.43 357.81
  L 51.25 357.81
  A 1.96 1.96 0.0 0 1 49.29 355.85
  L 49.29 44.67
  A 1.96 1.96 0.0 0 1 51.25 42.71
  L 362.43 42.71
  A 1.96 1.96 0.0 0 1 364.39 44.67
  L 364.39 355.85
  Z
  M 246.71 194.62
  Q 245.71 193.45 247.01 192.62
  Q 253.36 188.54 257.86 183.62
  C 268.44 172.09 269.75 156.35 264.52 141.79
  C 257.56 122.38 238.93 114.79 219.99 112.52
  Q 215.48 111.98 204.99 111.98
  Q 173.04 111.99 140.64 111.99
  A 0.97 0.97 0.0 0 0 139.67 112.96
  L 139.67 287.31
  A 1.30 1.30 0.0 0 0 140.97 288.61
  Q 168.79 288.68 196.26 288.61
  C 214.29 288.56 224.90 288.78 238.98 284.72
  C 259.16 278.90 274.00 264.53 276.35 242.92
  C 278.54 222.71 269.87 204.47 250.37 196.91
  Q 247.81 195.92 246.71 194.62
  Z"
/>
<path fill="#000000" d="
  M 757.62 355.78
  A 1.99 1.99 0.0 0 1 755.63 357.77
  L 444.57 357.77
  A 1.99 1.99 0.0 0 1 442.58 355.78
  L 442.58 44.72
  A 1.99 1.99 0.0 0 1 444.57 42.73
  L 755.63 42.73
  A 1.99 1.99 0.0 0 1 757.62 44.72
  L 757.62 355.78
  Z
  M 639.97 194.64
  Q 638.97 193.47 640.27 192.64
  Q 646.62 188.56 651.12 183.64
  C 661.70 172.12 663.01 156.38 657.79 141.83
  C 650.83 122.42 632.21 114.83 613.27 112.56
  Q 608.76 112.02 598.28 112.01
  Q 566.33 112.02 533.94 112.01
  A 0.97 0.97 0.0 0 0 532.97 112.98
  L 532.95 287.29
  A 1.30 1.30 0.0 0 0 534.25 288.59
  Q 562.06 288.66 589.52 288.60
  C 607.55 288.55 618.15 288.77 632.23 284.72
  C 652.41 278.90 667.24 264.54 669.60 242.93
  C 671.79 222.73 663.12 204.49 643.63 196.93
  Q 641.07 195.94 639.97 194.64
  Z"
/>
<path fill="#000000" d="
  M 1150.82 355.84
  A 1.94 1.94 0.0 0 1 1148.88 357.78
  L 837.70 357.78
  A 1.94 1.94 0.0 0 1 835.76 355.84
  L 835.76 44.66
  A 1.94 1.94 0.0 0 1 837.70 42.72
  L 1148.88 42.72
  A 1.94 1.94 0.0 0 1 1150.82 44.66
  L 1150.82 355.84
  Z
  M 915.06 202.01
  C 915.28 214.98 917.21 226.93 922.06 238.91
  C 936.16 273.77 970.35 291.98 1007.25 291.14
  Q 1035.49 290.50 1061.13 277.95
  A 1.35 1.34 76.9 0 0 1061.88 276.74
  L 1061.88 244.97
  A 0.90 0.90 0.0 0 0 1060.52 244.19
  Q 1052.18 249.18 1043.55 252.58
  C 1017.40 262.89 981.99 262.36 964.60 236.60
  C 957.62 226.25 954.99 213.90 954.77 201.33
  C 954.56 188.75 956.76 176.31 963.38 165.73
  C 979.87 139.39 1015.24 137.64 1041.73 147.04
  Q 1050.47 150.14 1058.98 154.84
  A 0.90 0.90 0.0 0 0 1060.31 154.01
  L 1059.21 122.26
  A 1.35 1.34 -78.9 0 0 1058.42 121.08
  Q 1032.37 109.42 1004.12 109.75
  C 967.21 110.19 933.67 129.57 920.78 164.89
  C 916.35 177.03 914.83 189.04 915.06 202.01
  Z"
/>
<path fill="#000000" d="
  M 567.97 142.34
  A 1.95 1.95 0.0 0 1 569.90 140.37
  L 601.27 139.98
  A 23.52 21.70 -0.7 0 1 625.05 161.39
  L 625.07 162.65
  A 23.52 21.70 -0.7 0 1 601.81 184.64
  L 570.44 185.02
  A 1.95 1.95 0.0 0 1 568.47 183.10
  L 567.97 142.34
  Z"
/>
<path fill="#000000" d="
  M 174.98 142.44
  A 1.99 1.99 0.0 0 1 176.95 140.43
  L 207.36 140.11
  A 24.22 21.33 -0.6 0 1 231.80 161.18
  L 231.82 163.14
  A 24.22 21.33 -0.6 0 1 207.82 184.73
  L 177.42 185.04
  A 1.99 1.99 0.0 0 1 175.40 183.08
  L 174.98 142.44
  Z"
/>
<path fill="#000000" d="
  M 175.54 213.05
  A 1.52 1.52 0.0 0 1 177.07 211.54
  L 213.63 211.93
  A 27.30 22.85 0.6 0 1 240.69 235.06
  L 240.67 237.56
  A 27.30 22.85 0.6 0 1 213.13 260.13
  L 176.57 259.74
  A 1.52 1.52 0.0 0 1 175.07 258.21
  L 175.54 213.05
  Z"
/>
<path fill="#000000" d="
  M 568.47 213.73
  A 2.04 2.04 0.0 0 1 570.53 211.70
  L 608.15 212.03
  A 25.82 22.87 0.5 0 1 633.77 235.13
  L 633.75 237.57
  A 25.82 22.87 0.5 0 1 607.73 260.21
  L 570.11 259.88
  A 2.04 2.04 0.0 0 1 568.09 257.82
  L 568.47 213.73
  Z"
/>
</svg>
