<?xml version="1.0" encoding="UTF-8" standalone="no"?>
<!DOCTYPE svg PUBLIC "-//W3C//DTD SVG 1.1//EN" "http://www.w3.org/Graphics/SVG/1.1/DTD/svg11.dtd">
<svg xmlns="http://www.w3.org/2000/svg" version="1.1" viewBox="0.00 0.00 1200.00 400.00">
<path fill="#012d5a" d="
  M 303.37 92.06
  Q 303.64 92.06 303.95 91.72
  Q 335.20 58.05 377.76 46.75
  C 406.35 39.15 439.71 39.93 468.65 50.47
  C 525.57 71.20 565.06 122.62 569.49 183.22
  Q 569.73 186.43 569.73 194.28
  Q 569.73 202.13 569.49 205.34
  C 565.05 265.95 525.56 317.36 468.64 338.09
  C 439.70 348.63 406.34 349.41 377.75 341.80
  Q 335.19 330.50 303.95 296.83
  Q 303.63 296.49 303.36 296.49
  Q 303.09 296.49 302.78 296.83
  Q 271.53 330.50 228.97 341.80
  C 200.38 349.40 167.02 348.62 138.08 338.08
  C 81.16 317.35 41.67 265.93 37.23 205.33
  Q 37.00 202.12 37.00 194.27
  Q 37.00 186.42 37.23 183.21
  C 41.67 122.60 81.17 71.19 138.09 50.46
  C 167.03 39.92 200.39 39.14 228.98 46.74
  Q 271.54 58.05 302.78 91.72
  Q 303.10 92.06 303.37 92.06
  Z
  M 310.36 194.73
  A 119.55 119.55 0.0 0 0 190.81 75.18
  A 119.55 119.55 0.0 0 0 71.26 194.73
  A 119.55 119.55 0.0 0 0 190.81 314.28
  A 119.55 119.55 0.0 0 0 310.36 194.73
  Z
  M 421.76 199.09
  Q 421.89 199.09 422.00 199.15
  Q 422.12 199.21 422.17 199.33
  Q 432.46 223.79 442.65 248.05
  A 0.96 0.96 0.0 0 0 443.53 248.63
  L 471.72 248.63
  A 1.61 1.60 -81.0 0 0 473.24 247.52
  L 505.84 145.51
  A 0.64 0.64 0.0 0 0 505.23 144.67
  L 472.27 144.67
  A 1.83 1.82 -81.7 0 0 470.52 145.98
  L 455.43 197.46
  A 0.38 0.35 -88.1 0 1 455.17 197.72
  Q 454.71 197.84 454.49 197.30
  Q 452.91 193.37 435.44 145.43
  A 1.12 1.10 -9.5 0 0 434.41 144.71
  Q 427.96 144.66 421.77 144.66
  Q 415.58 144.66 409.13 144.70
  A 1.12 1.10 9.5 0 0 408.10 145.42
  Q 390.61 193.36 389.03 197.29
  Q 388.81 197.83 388.35 197.71
  A 0.38 0.35 88.1 0 1 388.09 197.45
  L 373.02 145.96
  A 1.83 1.82 81.7 0 0 371.27 144.65
  L 338.31 144.64
  A 0.64 0.64 0.0 0 0 337.70 145.48
  L 370.26 247.50
  A 1.61 1.60 81.0 0 0 371.78 248.61
  L 399.97 248.62
  A 0.96 0.96 0.0 0 0 400.85 248.04
  Q 411.05 223.79 421.35 199.33
  Q 421.40 199.21 421.51 199.15
  Q 421.62 199.09 421.76 199.09
  Z"
/>
<path fill="#012d5a" d="
  M 1064.58 118.65
  Q 1074.41 115.08 1082.49 115.46
  Q 1098.66 116.24 1103.57 131.48
  Q 1104.58 134.63 1104.66 142.27
  Q 1104.90 166.26 1104.76 181.81
  Q 1104.76 182.34 1104.22 182.34
  L 1087.53 182.34
  A 0.52 0.51 0.5 0 1 1087.01 181.82
  Q 1087.11 163.54 1086.99 145.17
  C 1086.89 130.33 1074.66 129.41 1064.44 134.95
  Q 1063.97 135.21 1063.97 135.75
  L 1063.97 181.68
  A 0.66 0.66 0.0 0 1 1063.31 182.34
  L 1047.04 182.34
  A 0.83 0.82 -0.0 0 1 1046.21 181.52
  L 1046.21 93.64
  Q 1046.21 93.00 1046.85 93.00
  L 1063.10 93.00
  A 0.85 0.85 0.0 0 1 1063.95 93.85
  L 1063.95 118.21
  Q 1063.95 118.88 1064.58 118.65
  Z"
/>
<path fill="#012d5a" d="
  M 637.05 96.54
  A 1.06 1.06 0.0 0 1 638.10 95.48
  L 674.85 95.41
  A 39.73 39.67 -0.1 0 1 714.65 135.01
  L 714.67 142.91
  A 39.73 39.67 -0.1 0 1 675.01 182.65
  L 638.26 182.72
  A 1.06 1.06 0.0 0 1 637.19 181.66
  L 637.05 96.54
  Z
  M 657.06 114.42
  L 656.54 163.56
  A 0.69 0.69 0.0 0 0 657.23 164.26
  L 671.93 164.41
  A 22.67 22.33 0.6 0 0 694.83 142.32
  L 694.89 136.46
  A 22.67 22.33 0.6 0 0 672.45 113.89
  L 657.76 113.74
  A 0.69 0.69 0.0 0 0 657.06 114.42
  Z"
/>
<path fill="#012d5a" d="
  M 893.44 117.38
  L 907.50 117.38
  A 0.87 0.87 0.0 0 1 908.37 118.25
  L 908.37 130.48
  A 0.86 0.86 0.0 0 1 907.51 131.34
  L 893.23 131.34
  A 0.54 0.53 90.0 0 0 892.70 131.88
  Q 892.75 143.82 892.74 161.00
  C 892.74 167.49 899.63 167.45 903.98 165.51
  A 1.49 1.48 -23.1 0 1 905.96 166.30
  L 909.96 175.95
  A 1.28 1.26 -30.9 0 1 909.58 177.42
  Q 902.60 183.11 893.58 183.44
  C 881.56 183.88 875.36 175.57 875.18 164.33
  Q 874.97 152.04 875.47 131.96
  A 0.61 0.61 0.0 0 0 874.86 131.34
  L 865.18 131.34
  A 0.93 0.93 0.0 0 1 864.25 130.41
  L 864.25 118.45
  Q 864.25 117.38 865.32 117.38
  L 874.98 117.38
  A 1.01 1.01 0.0 0 0 875.98 116.52
  L 878.12 102.89
  Q 878.31 101.67 879.55 101.67
  L 891.82 101.67
  A 0.93 0.92 -0.0 0 1 892.75 102.59
  L 892.75 116.68
  A 0.70 0.69 90.0 0 0 893.44 117.38
  Z"
/>
<path fill="#012d5a" d="
  M 999.62 150.04
  C 999.79 155.27 1001.25 159.87 1004.84 163.52
  C 1011.55 170.35 1020.03 167.97 1026.96 163.27
  Q 1027.95 162.59 1028.70 163.53
  L 1036.27 173.00
  Q 1036.98 173.89 1036.15 174.67
  C 1024.64 185.44 1006.58 187.10 994.19 177.30
  C 986.02 170.84 982.26 160.83 981.92 150.62
  C 981.59 140.40 984.70 130.17 992.43 123.20
  C 1004.16 112.61 1022.29 113.09 1034.47 123.09
  Q 1035.35 123.82 1034.70 124.75
  L 1027.76 134.69
  Q 1027.07 135.68 1026.04 135.07
  C 1018.82 130.83 1010.21 129.00 1003.95 136.25
  C 1000.61 140.13 999.45 144.82 999.62 150.04
  Z"
/>
<path fill="#012d5a" d="
  M 743.56 155.50
  C 745.69 170.97 760.93 171.15 771.42 164.51
  A 1.16 1.15 -38.7 0 1 772.85 164.66
  L 780.80 172.62
  A 0.95 0.94 -44.0 0 1 780.77 173.98
  Q 765.47 188.25 744.92 181.58
  C 734.67 178.26 728.78 168.50 726.95 158.27
  C 724.12 142.40 729.06 122.12 746.62 116.84
  Q 756.14 113.98 764.66 116.90
  C 781.26 122.59 783.97 138.58 781.85 153.98
  A 1.17 1.17 0.0 0 1 780.69 154.99
  L 744.00 154.99
  A 0.45 0.44 86.1 0 0 743.56 155.50
  Z
  M 743.93 143.02
  L 766.53 142.98
  A 0.49 0.49 0.0 0 0 767.02 142.49
  L 767.02 142.16
  A 12.46 11.69 89.9 0 0 755.31 129.72
  L 755.11 129.72
  A 12.46 11.69 89.9 0 0 743.44 142.20
  L 743.44 142.53
  A 0.49 0.49 0.0 0 0 743.93 143.02
  Z"
/>
<path fill="#012d5a" d="
  M 945.27 130.64
  C 942.12 130.60 936.70 132.77 939.41 136.65
  Q 940.91 138.81 943.87 139.86
  Q 953.82 143.41 960.61 146.32
  Q 967.13 149.10 969.70 152.28
  C 975.66 159.64 974.60 172.09 967.06 178.07
  Q 963.78 180.66 958.36 182.10
  C 945.10 185.62 932.15 183.13 920.43 176.55
  A 1.13 1.12 -64.5 0 1 919.94 175.15
  L 924.32 164.07
  A 1.10 1.09 -67.9 0 1 925.76 163.46
  C 932.98 166.54 940.61 168.85 948.23 168.98
  Q 951.56 169.03 954.67 166.36
  Q 955.06 166.03 955.10 165.52
  Q 955.41 161.96 952.29 160.77
  C 938.69 155.57 916.96 149.93 921.45 129.64
  C 923.79 119.06 937.80 115.10 947.01 115.47
  Q 958.85 115.93 970.21 121.22
  Q 971.30 121.72 970.86 122.84
  L 966.10 134.86
  A 0.79 0.78 23.0 0 1 965.04 135.28
  Q 955.27 130.78 945.27 130.64
  Z"
/>
<path fill="#012d5a" d="
  M 1134.26 155.53
  C 1136.43 171.00 1151.67 171.14 1162.15 164.47
  A 1.16 1.15 -38.9 0 1 1163.58 164.62
  L 1171.55 172.56
  A 0.95 0.94 -44.1 0 1 1171.53 173.92
  Q 1156.26 188.23 1135.69 181.62
  C 1125.43 178.32 1119.51 168.58 1117.65 158.35
  C 1114.77 142.48 1119.66 122.19 1137.21 116.86
  Q 1146.72 113.97 1155.25 116.87
  C 1171.87 122.51 1174.63 138.50 1172.55 153.91
  A 1.17 1.17 0.0 0 1 1171.39 154.92
  L 1134.69 155.02
  A 0.45 0.44 85.9 0 0 1134.26 155.53
  Z
  M 1134.53 142.98
  L 1157.25 143.02
  A 0.50 0.50 0.0 0 0 1157.75 142.52
  L 1157.75 142.33
  A 12.59 11.77 -89.9 0 0 1146.00 129.72
  L 1145.82 129.72
  A 12.59 11.77 -89.9 0 0 1134.03 142.29
  L 1134.03 142.48
  A 0.50 0.50 0.0 0 0 1134.53 142.98
  Z"
/>
<path fill="#012d5a" d="
  M 836.52 178.92
  Q 836.04 178.13 835.26 178.62
  Q 822.85 186.51 808.76 182.26
  C 796.79 178.66 794.96 167.28 794.94 156.53
  Q 794.87 132.37 795.00 118.56
  Q 795.00 118.00 795.56 118.00
  L 811.75 118.00
  A 0.84 0.84 0.0 0 1 812.59 118.86
  Q 812.28 137.96 812.68 157.01
  C 812.82 163.83 816.38 167.26 823.01 167.24
  Q 828.81 167.21 833.78 164.54
  A 1.24 1.24 0.0 0 0 834.43 163.45
  L 834.43 118.79
  Q 834.43 118.00 835.21 118.00
  L 851.67 118.00
  A 0.91 0.91 0.0 0 1 852.58 118.91
  L 852.58 181.75
  Q 852.58 182.84 851.49 182.84
  L 838.58 182.84
  A 1.36 1.35 87.5 0 1 837.23 181.60
  Q 837.07 179.84 836.52 178.92
  Z"
/>
<path fill="#012d5a" d="
  M 124.69 136.95
  A 0.82 0.82 0.0 0 1 125.52 136.13
  L 206.39 136.42
  A 60.87 56.91 0.2 0 1 267.06 193.54
  L 267.04 197.72
  A 60.87 56.91 0.2 0 1 205.97 254.42
  L 125.10 254.13
  A 0.82 0.82 0.0 0 1 124.29 253.31
  L 124.69 136.95
  Z
  M 162.08 171.25
  L 161.92 219.13
  A 0.63 0.63 0.0 0 0 162.54 219.76
  L 201.89 219.90
  A 25.24 23.04 0.2 0 0 227.21 196.94
  L 227.23 193.88
  A 25.24 23.04 0.2 0 0 202.07 170.76
  L 162.72 170.62
  A 0.63 0.63 0.0 0 0 162.08 171.25
  Z"
/>
<rect fill="#012d5a" x="812.00" y="207.15" width="17.64" height="89.70" rx="0.75"/>
<rect fill="#012d5a" x="846.37" y="207.15" width="17.80" height="89.70" rx="0.98"/>
<path fill="#012d5a" d="
  M 661.25 269.76
  C 662.29 266.21 662.97 259.88 663.99 255.77
  Q 668.46 237.78 674.72 216.51
  Q 675.06 215.37 676.24 215.37
  L 691.77 215.37
  A 1.43 1.42 -7.4 0 1 693.15 216.43
  Q 696.46 228.67 701.91 248.28
  C 703.84 255.24 704.84 260.84 706.57 269.43
  A 0.36 0.34 9.0 0 0 706.76 269.68
  Q 706.94 269.77 707.07 269.67
  Q 707.12 269.64 707.12 269.58
  Q 707.84 259.69 709.45 251.71
  Q 712.35 237.29 717.25 216.19
  A 1.05 1.05 0.0 0 1 718.27 215.38
  L 735.56 215.38
  A 0.76 0.75 6.6 0 1 736.30 216.30
  L 717.70 296.20
  A 1.49 1.49 0.0 0 1 716.25 297.35
  L 699.26 297.35
  A 1.41 1.41 0.0 0 1 697.90 296.31
  Q 692.54 276.70 686.47 253.10
  Q 685.49 249.29 683.95 240.72
  Q 683.53 238.40 683.15 240.72
  Q 682.17 246.72 680.61 252.92
  Q 677.96 263.42 668.87 296.28
  Q 668.58 297.35 667.47 297.35
  L 651.04 297.35
  A 1.09 1.09 0.0 0 1 649.98 296.50
  L 631.36 216.47
  A 0.89 0.89 0.0 0 1 632.23 215.38
  L 649.70 215.38
  A 1.04 1.04 0.0 0 1 650.72 216.21
  Q 654.37 233.74 657.92 251.44
  Q 658.58 254.74 659.39 260.58
  Q 660.48 268.51 660.94 269.77
  Q 661.11 270.25 661.25 269.76
  Z"
/>
<path fill="#012d5a" d="
  M 759.39 269.89
  C 761.55 285.36 776.80 285.52 787.29 278.85
  A 1.17 1.15 -38.8 0 1 788.72 279.00
  L 796.69 286.95
  A 0.95 0.94 -44.1 0 1 796.66 288.31
  Q 781.38 302.62 760.80 295.98
  C 750.54 292.68 744.62 282.92 742.77 272.69
  C 739.91 256.81 744.82 236.51 762.38 231.19
  Q 771.90 228.31 780.43 231.22
  C 797.06 236.88 799.80 252.88 797.71 268.30
  A 1.17 1.17 0.0 0 1 796.55 269.31
  L 759.83 269.38
  A 0.45 0.45 0.0 0 0 759.39 269.89
  Z
  M 759.65 257.32
  L 782.41 257.36
  A 0.41 0.41 0.0 0 0 782.82 256.95
  L 782.82 256.39
  A 12.21 11.53 -89.9 0 0 771.31 244.16
  L 770.79 244.16
  A 12.21 11.53 -89.9 0 0 759.24 256.35
  L 759.24 256.91
  A 0.41 0.41 0.0 0 0 759.65 257.32
  Z"
/>
<path fill="#012d5a" d="
  M 894.82 269.85
  C 896.97 285.33 912.22 285.49 922.70 278.83
  A 1.16 1.15 -38.8 0 1 924.13 278.98
  L 932.10 286.94
  A 0.95 0.94 -44.0 0 1 932.07 288.30
  Q 916.78 302.59 896.21 295.94
  C 885.96 292.63 880.05 282.88 878.21 272.65
  C 875.36 256.77 880.28 236.48 897.84 231.18
  Q 907.36 228.31 915.88 231.22
  C 932.50 236.89 935.23 252.88 933.12 268.29
  A 1.17 1.17 0.0 0 1 931.96 269.30
  L 895.26 269.34
  A 0.45 0.44 86.0 0 0 894.82 269.85
  Z
  M 895.43 257.61
  L 917.63 257.37
  A 0.59 0.59 0.0 0 0 918.21 256.78
  L 918.21 256.24
  A 12.23 11.01 89.4 0 0 907.07 244.12
  L 905.71 244.14
  A 12.23 11.01 89.4 0 0 894.83 256.48
  L 894.83 257.02
  A 0.59 0.59 0.0 0 0 895.43 257.61
  Z"
/>
</svg>
