<?xml version="1.0" encoding="UTF-8" standalone="no"?>
<!DOCTYPE svg PUBLIC "-//W3C//DTD SVG 1.1//EN" "http://www.w3.org/Graphics/SVG/1.1/DTD/svg11.dtd">
<svg xmlns="http://www.w3.org/2000/svg" version="1.1" viewBox="0.00 0.00 1200.00 400.00">
<rect fill="#020202" x="521.82" y="83.50" width="13.38" height="19.50" rx="0.35"/>
<path fill="#020202" d="
  M 300.21 152.57
  Q 300.16 183.06 300.22 214.80
  Q 300.23 221.31 306.98 222.17
  Q 312.02 222.81 316.47 221.88
  Q 321.37 220.86 323.56 220.62
  Q 324.13 220.56 324.13 221.13
  L 324.13 241.36
  Q 324.13 241.90 323.60 241.97
  Q 308.70 243.93 297.28 243.69
  Q 292.20 243.59 286.76 241.84
  C 275.30 238.15 271.13 228.94 271.14 217.50
  Q 271.16 184.39 271.13 152.49
  Q 271.13 151.99 270.63 151.99
  L 254.76 151.99
  Q 254.28 151.99 254.28 151.51
  L 254.28 131.48
  Q 254.28 130.75 255.01 130.75
  L 270.70 130.75
  Q 271.15 130.75 271.15 130.30
  L 271.15 97.07
  Q 271.15 96.50 271.72 96.50
  L 299.73 96.50
  A 0.48 0.48 0.0 0 1 300.21 96.98
  L 300.21 130.49
  A 0.27 0.26 -0.0 0 0 300.48 130.75
  L 323.69 130.75
  A 0.45 0.44 90.0 0 1 324.13 131.20
  L 324.13 151.43
  A 0.57 0.56 -90.0 0 1 323.57 152.00
  L 300.78 152.00
  Q 300.21 152.00 300.21 152.57
  Z"
/>
<path fill="#020202" d="
  M 376.80 152.00
  Q 376.23 152.00 376.23 152.57
  Q 376.18 183.06 376.24 214.80
  Q 376.26 221.31 383.01 222.17
  Q 388.05 222.81 392.50 221.88
  Q 397.39 220.86 399.58 220.62
  Q 400.15 220.56 400.15 221.13
  L 400.16 241.36
  Q 400.16 241.90 399.63 241.97
  Q 384.73 243.93 373.31 243.69
  Q 368.23 243.59 362.79 241.84
  C 351.33 238.15 347.16 228.94 347.17 217.50
  Q 347.18 184.39 347.15 152.49
  Q 347.15 151.99 346.65 151.99
  L 330.78 151.99
  Q 330.30 151.99 330.30 151.51
  L 330.30 131.48
  Q 330.30 130.75 331.03 130.75
  L 346.72 130.75
  Q 347.17 130.75 347.17 130.30
  L 347.17 97.07
  Q 347.17 96.50 347.74 96.50
  L 375.75 96.50
  A 0.48 0.48 0.0 0 1 376.23 96.98
  L 376.23 130.49
  A 0.27 0.26 -0.0 0 0 376.50 130.75
  L 399.71 130.75
  A 0.45 0.44 90.0 0 1 400.15 131.20
  L 400.15 151.43
  A 0.57 0.56 90.0 0 1 399.59 152.00
  L 376.80 152.00
  Z"
/>
<path fill="#020202" d="
  M 859.69 196.86
  A 0.37 0.37 0.0 0 0 859.80 196.20
  Q 842.02 183.66 844.04 161.80
  C 845.58 145.20 855.88 132.97 872.21 128.23
  C 887.21 123.87 902.63 125.01 916.06 133.38
  Q 916.51 133.67 916.95 133.35
  Q 918.21 132.43 920.92 130.16
  Q 928.11 124.18 940.29 123.63
  Q 940.90 123.61 940.90 124.23
  L 940.90 134.96
  Q 940.90 135.44 940.42 135.45
  C 933.71 135.67 928.14 136.23 922.75 140.34
  A 0.58 0.57 51.5 0 0 922.66 141.16
  Q 929.42 149.39 930.36 159.87
  C 932.33 181.67 921.68 197.92 900.11 202.92
  Q 884.20 206.61 867.82 201.31
  A 1.66 1.59 44.3 0 0 866.87 201.30
  Q 862.16 202.72 858.82 206.49
  C 856.15 209.51 855.42 213.83 858.14 216.95
  C 860.60 219.77 867.27 220.92 870.93 221.17
  Q 880.05 221.80 898.51 222.07
  Q 907.47 222.19 917.68 224.70
  C 929.29 227.55 939.33 234.34 941.07 246.76
  C 944.10 268.41 926.59 278.48 907.97 281.16
  C 888.64 283.95 837.17 285.69 838.20 254.27
  C 838.59 242.32 846.64 235.60 857.19 231.76
  Q 859.25 231.01 857.10 230.60
  Q 853.04 229.82 849.53 227.74
  C 841.41 222.93 841.45 212.74 846.70 205.68
  Q 851.45 199.29 859.69 196.86
  Z
  M 917.2054 162.5378
  A 26.12 26.12 0.0 0 0 891.0399 136.4634
  L 883.4199 136.4767
  A 26.12 26.12 0.0 0 0 857.3455 162.6422
  L 857.3546 167.8622
  A 26.12 26.12 0.0 0 0 883.5201 193.9366
  L 891.1401 193.9233
  A 26.12 26.12 0.0 0 0 917.2145 167.7578
  L 917.2054 162.5378
  Z
  M 851.55 252.98
  C 851.67 274.26 886.94 272.45 900.26 271.05
  C 911.97 269.82 928.23 266.02 928.16 252.57
  C 928.09 239.12 911.79 235.50 900.07 234.39
  C 886.73 233.13 851.44 231.70 851.55 252.98
  Z"
/>
<path fill="#020202" d="
  M 579.34 144.46
  Q 579.34 145.52 580.02 144.72
  C 589.73 133.34 601.78 125.72 617.57 125.75
  Q 634.24 125.77 643.24 140.03
  C 644.39 141.85 645.17 144.32 645.82 146.00
  Q 646.05 146.59 646.47 146.11
  C 658.21 132.26 671.26 124.16 690.12 126.17
  Q 694.70 126.66 699.81 128.84
  C 711.47 133.83 714.84 145.73 714.84 157.29
  Q 714.85 160.64 714.83 241.61
  A 0.39 0.38 -90.0 0 1 714.45 242.00
  L 702.02 242.00
  Q 701.49 242.00 701.49 241.47
  Q 701.47 214.21 701.55 156.00
  C 701.56 148.20 698.82 140.78 690.76 137.80
  C 684.67 135.54 678.13 135.86 671.73 138.61
  C 663.18 142.29 652.50 149.14 647.92 156.98
  Q 647.09 158.40 647.09 160.22
  Q 647.11 193.02 647.09 241.59
  A 0.41 0.41 0.0 0 1 646.68 242.00
  L 634.28 242.00
  Q 633.76 242.00 633.76 241.48
  Q 633.66 217.95 633.74 156.02
  C 633.75 146.09 629.48 138.50 619.24 136.78
  Q 609.98 135.22 601.41 139.68
  C 593.07 144.02 584.59 149.77 579.61 157.73
  A 1.85 1.82 61.1 0 0 579.34 158.69
  L 579.34 241.46
  Q 579.34 242.00 578.79 242.00
  L 566.48 242.00
  A 0.52 0.52 0.0 0 1 565.96 241.48
  L 565.96 128.64
  Q 565.96 128.00 566.60 128.00
  L 578.79 128.00
  Q 579.34 128.00 579.34 128.55
  L 579.34 144.46
  Z"
/>
<path fill="#020202" d="
  M 807.15 228.81
  Q 806.86 228.90 800.18 233.67
  Q 786.91 243.15 770.82 244.17
  Q 761.71 244.75 755.30 243.11
  C 745.05 240.49 736.85 232.89 734.54 222.24
  C 732.56 213.16 733.62 203.03 738.61 195.01
  C 743.24 187.58 753.28 181.95 761.40 179.15
  C 769.00 176.52 776.23 174.14 784.75 172.16
  Q 793.62 170.11 807.22 167.07
  Q 807.71 166.96 807.74 166.46
  Q 808.26 157.00 806.79 150.61
  C 804.39 140.21 794.61 136.60 784.63 136.28
  C 768.13 135.77 756.51 143.56 747.79 156.70
  Q 747.52 157.11 747.10 156.85
  L 739.34 152.01
  Q 738.85 151.71 739.11 151.20
  Q 742.45 144.78 748.06 138.85
  C 755.18 131.33 765.59 126.99 775.51 126.15
  C 794.51 124.55 815.54 128.36 819.50 150.76
  Q 820.75 157.84 820.59 164.00
  Q 820.53 166.34 820.53 221.00
  Q 820.53 230.07 822.16 241.50
  Q 822.24 242.00 821.73 242.00
  L 809.94 242.00
  Q 809.37 242.00 809.30 241.44
  L 807.69 229.00
  Q 807.64 228.63 807.15 228.81
  Z
  M 761.77 233.04
  C 777.48 236.45 796.40 225.80 806.78 215.18
  Q 807.15 214.80 807.15 214.26
  L 807.15 178.31
  Q 807.15 177.86 806.70 177.94
  Q 786.23 181.91 770.17 188.14
  C 758.77 192.57 747.55 198.86 747.00 212.48
  C 746.58 222.91 751.55 230.82 761.77 233.04
  Z"
/>
<path fill="#020202" d="
  M 961.09 186.10
  Q 960.74 198.56 964.96 210.00
  C 971.21 226.96 985.62 235.23 1003.46 233.53
  C 1017.08 232.24 1025.07 221.59 1031.95 210.98
  A 0.68 0.68 0.0 0 1 1032.86 210.76
  L 1042.61 216.39
  A 0.26 0.26 0.0 0 1 1042.70 216.75
  C 1036.10 228.03 1026.27 239.19 1012.80 242.42
  Q 1000.56 245.35 989.53 243.94
  C 960.80 240.26 949.57 218.67 947.83 192.42
  C 946.29 169.07 952.03 142.04 974.87 130.32
  C 988.66 123.25 1008.90 124.49 1021.30 133.41
  C 1036.95 144.66 1041.72 166.24 1041.50 185.00
  Q 1041.49 185.50 1040.99 185.50
  L 961.71 185.50
  Q 961.11 185.50 961.09 186.10
  Z
  M 961.63 174.88
  L 1027.59 175.12
  A 0.28 0.28 0.0 0 0 1027.87 174.84
  L 1027.87 174.66
  A 38.44 33.20 -89.8 0 0 994.81 136.10
  L 994.69 136.10
  A 38.44 33.20 -89.8 0 0 961.35 174.42
  L 961.35 174.60
  A 0.28 0.28 0.0 0 0 961.63 174.88
  Z"
/>
<path fill="#020202" d="
  M 1051.42 220.94
  L 1060.47 214.78
  A 0.58 0.58 0.0 0 1 1061.28 214.93
  C 1065.56 221.01 1070.85 226.79 1077.57 229.94
  Q 1089.56 235.56 1103.51 232.96
  C 1114.07 230.98 1122.66 222.68 1122.51 211.63
  C 1122.33 198.06 1108.90 192.74 1097.40 189.64
  Q 1080.03 184.95 1075.05 183.21
  Q 1070.13 181.50 1063.84 177.18
  Q 1058.29 173.37 1055.47 164.83
  C 1053.50 158.88 1054.25 149.04 1057.23 143.18
  Q 1062.42 132.99 1073.03 129.15
  Q 1093.22 121.83 1112.58 129.83
  Q 1123.14 134.18 1130.66 146.11
  Q 1130.91 146.50 1130.52 146.76
  L 1121.29 153.05
  Q 1120.82 153.37 1120.47 152.94
  Q 1115.49 146.93 1114.50 146.00
  Q 1104.02 136.19 1090.42 136.28
  C 1078.24 136.35 1068.40 142.03 1067.82 155.15
  C 1067.31 166.78 1077.95 171.24 1087.31 173.92
  Q 1090.60 174.87 1107.31 179.79
  C 1118.99 183.22 1130.49 189.62 1134.30 201.93
  C 1139.97 220.27 1129.45 236.71 1111.64 241.87
  C 1089.05 248.41 1064.88 241.47 1051.30 221.58
  A 0.46 0.46 0.0 0 1 1051.42 220.94
  Z"
/>
<rect fill="#020202" x="521.82" y="127.99" width="13.38" height="114.00" rx="0.35"/>
<path fill="#020202" d="
  M 71.09 235.01
  A 0.44 0.43 56.1 0 0 71.25 234.18
  Q 66.49 231.88 62.58 229.31
  Q 54.79 224.19 55.63 215.18
  C 56.47 206.30 64.44 199.53 72.37 196.34
  A 0.21 0.20 53.4 0 0 72.42 195.99
  C 63.55 188.62 57.18 180.40 56.41 169.10
  C 55.19 151.15 66.47 136.43 83.30 130.86
  C 98.16 125.95 114.26 128.01 126.79 137.63
  Q 127.17 137.92 127.50 137.57
  Q 137.36 127.18 152.69 128.36
  Q 153.26 128.40 153.26 128.97
  L 153.26 145.69
  Q 153.26 146.17 152.78 146.18
  C 146.39 146.25 141.82 146.33 136.55 148.46
  A 0.33 0.32 -27.6 0 0 136.40 148.93
  Q 143.47 160.07 141.83 173.29
  Q 139.53 191.89 122.82 199.80
  C 113.25 204.33 103.19 204.29 92.31 204.30
  C 88.01 204.31 79.30 205.24 79.81 211.35
  C 80.28 217.01 88.06 218.14 92.82 218.50
  C 100.91 219.11 118.24 219.45 131.46 222.67
  C 155.29 228.48 159.45 255.72 141.30 270.53
  C 133.57 276.83 122.30 280.49 111.37 281.45
  Q 92.31 283.12 74.80 278.72
  C 61.07 275.28 48.57 265.62 52.60 249.64
  C 54.85 240.73 62.33 235.45 71.09 235.01
  Z
  M 117.8997 166.3177
  A 18.66 18.36 0.3 0 0 99.3361 147.8603
  A 18.66 18.36 0.3 0 0 80.5803 166.1223
  A 18.66 18.36 0.3 0 0 99.1439 184.5797
  A 18.66 18.36 0.3 0 0 117.8997 166.3177
  Z
  M 88.96 239.73
  C 81.96 240.55 75.01 246.36 76.32 254.01
  C 77.86 263.01 90.48 263.59 97.45 264.15
  C 107.71 264.96 120.98 264.48 126.83 255.73
  C 131.86 248.20 121.33 243.07 115.54 241.63
  Q 101.78 238.22 88.96 239.73
  Z"
/>
<path fill="#020202" d="
  M 182.61 190.39
  C 182.34 202.70 186.91 219.86 201.62 221.83
  Q 205.88 222.40 211.35 221.38
  C 219.66 219.83 224.19 215.23 229.92 209.33
  Q 230.29 208.95 230.74 209.23
  L 248.82 220.49
  Q 249.30 220.80 248.99 221.27
  Q 239.10 236.16 222.28 240.99
  C 210.26 244.43 194.67 244.72 183.47 239.41
  C 170.93 233.47 162.45 221.81 159.03 208.50
  Q 153.73 187.82 158.15 166.71
  C 163.52 141.07 183.75 125.34 210.34 128.65
  Q 230.93 131.22 241.57 149.45
  C 248.83 161.89 250.14 175.75 249.28 189.70
  A 0.32 0.32 0.0 0 1 248.96 190.00
  L 183.01 190.00
  A 0.40 0.40 0.0 0 0 182.61 190.39
  Z
  M 182.96 172.21
  L 224.52 172.29
  A 0.25 0.25 0.0 0 0 224.77 172.04
  L 224.77 169.60
  A 21.61 20.44 -89.9 0 0 204.37 147.95
  L 203.19 147.95
  A 21.61 20.44 -89.9 0 0 182.71 169.52
  L 182.71 171.96
  A 0.25 0.25 0.0 0 0 182.96 172.21
  Z"
/>
<path fill="#020202" d="
  M 456.21 198.44
  A 0.22 0.22 0.0 0 0 456.58 198.36
  L 475.32 130.78
  Q 475.46 130.25 476.01 130.25
  L 501.30 130.25
  A 0.44 0.43 8.4 0 1 501.72 130.81
  Q 485.60 182.11 469.46 233.41
  C 465.06 247.41 459.40 263.30 449.69 273.18
  C 443.19 279.78 433.69 282.13 424.07 281.75
  Q 414.32 281.37 411.90 281.02
  Q 411.30 280.93 411.30 280.32
  L 411.30 259.92
  Q 411.30 259.35 411.88 259.39
  C 421.65 260.13 430.36 261.37 436.89 255.39
  Q 439.31 253.17 441.88 247.12
  Q 444.32 241.34 443.80 236.34
  Q 443.58 234.27 441.02 226.05
  Q 432.16 197.64 411.28 130.84
  A 0.46 0.45 -8.8 0 1 411.72 130.25
  L 437.28 130.25
  Q 437.75 130.25 437.87 130.69
  Q 453.08 187.57 455.73 197.52
  Q 455.88 198.08 456.21 198.44
  Z"
/>
</svg>
