<?xml version="1.0" encoding="UTF-8" standalone="no"?>
<!DOCTYPE svg PUBLIC "-//W3C//DTD SVG 1.1//EN" "http://www.w3.org/Graphics/SVG/1.1/DTD/svg11.dtd">
<svg xmlns="http://www.w3.org/2000/svg" version="1.1" viewBox="0.00 0.00 1200.00 400.00">
<path fill="#121212" d="
  M 482.37 95.37
  C 496.20 84.86 513.71 78.12 531.03 78.80
  Q 537.19 79.04 543.17 81.43
  C 557.64 87.21 562.57 100.87 562.54 115.53
  Q 562.42 166.02 562.91 201.25
  C 562.93 202.98 563.60 204.41 564.98 205.52
  Q 568.94 208.71 573.28 211.37
  Q 575.85 212.95 575.25 215.62
  A 1.77 1.76 -83.6 0 1 573.53 217.00
  L 505.80 217.00
  A 1.93 1.93 0.0 0 1 503.95 214.52
  Q 504.74 211.81 506.73 210.72
  Q 512.36 207.63 515.05 205.76
  A 3.93 3.92 72.7 0 0 516.74 202.53
  Q 516.79 119.57 516.81 115.50
  C 516.85 105.86 513.15 99.49 502.93 98.65
  C 497.02 98.16 488.91 97.85 484.54 102.28
  C 480.56 106.30 480.76 110.75 480.75 117.14
  Q 480.72 159.44 480.75 201.75
  Q 480.75 203.55 482.64 206.15
  C 484.54 208.75 488.68 208.98 491.13 211.40
  Q 492.13 212.38 493.16 213.49
  A 1.90 1.89 -58.7 0 1 493.60 215.30
  C 493.26 216.50 492.52 216.99 491.23 216.99
  Q 460.88 217.00 423.62 216.99
  A 1.41 1.41 0.0 0 1 422.41 216.30
  C 420.82 213.61 422.50 211.83 424.90 210.63
  Q 429.79 208.18 433.25 205.51
  C 434.48 204.57 434.90 203.05 434.90 201.44
  Q 434.91 121.10 434.90 40.76
  C 434.90 37.44 433.11 36.06 429.90 34.83
  Q 425.81 33.25 423.54 32.55
  C 421.30 31.86 419.87 30.77 419.88 28.38
  A 1.53 1.53 0.0 0 1 421.16 26.87
  L 476.01 17.52
  Q 480.51 16.76 480.51 21.32
  L 480.51 94.45
  A 1.16 1.16 0.0 0 0 482.37 95.37
  Z"
/>
<path fill="#121212" d="
  M 340.25 44.00
  Q 378.25 43.99 415.92 44.04
  A 3.25 3.25 0.0 0 1 419.17 47.28
  Q 419.19 92.96 419.02 95.77
  Q 418.96 96.80 418.67 97.72
  A 1.12 1.12 0.0 0 1 416.87 98.24
  Q 415.09 96.74 413.35 94.43
  Q 407.56 86.78 387.04 59.21
  Q 382.28 52.80 379.49 51.27
  Q 374.23 48.38 367.60 51.08
  Q 366.34 51.59 366.30 53.39
  Q 365.95 69.11 366.05 197.51
  C 366.06 200.96 367.17 202.97 370.51 204.32
  C 375.89 206.48 380.34 208.66 384.18 211.81
  Q 385.31 212.74 385.80 213.62
  A 1.75 1.75 0.0 0 1 384.69 216.17
  Q 381.87 216.87 379.57 216.93
  Q 376.86 216.99 340.29 217.00
  Q 303.72 217.00 301.01 216.94
  Q 298.71 216.89 295.89 216.19
  A 1.75 1.75 0.0 0 1 294.78 213.64
  Q 295.27 212.76 296.40 211.83
  C 300.24 208.68 304.69 206.50 310.06 204.33
  C 313.40 202.98 314.51 200.97 314.52 197.52
  Q 314.56 69.12 314.20 53.40
  Q 314.16 51.60 312.90 51.09
  Q 306.27 48.40 301.01 51.29
  Q 298.22 52.82 293.47 59.23
  Q 272.96 86.81 267.17 94.46
  Q 265.43 96.78 263.65 98.28
  A 1.12 1.12 0.0 0 1 261.85 97.76
  Q 261.56 96.84 261.50 95.81
  Q 261.33 93.00 261.33 47.32
  A 3.25 3.25 0.0 0 1 264.58 44.08
  Q 302.25 44.01 340.25 44.00
  Z"
/>
<path fill="#121212" d="
  M 615.04 154.10
  A 1.27 1.24 -12.8 0 0 614.25 155.33
  C 614.90 168.66 619.62 184.13 629.53 192.88
  C 642.76 204.55 661.54 205.13 677.38 197.80
  Q 683.57 194.94 690.60 191.13
  A 1.32 1.31 53.2 0 1 692.17 191.36
  C 694.01 193.24 691.05 197.28 689.60 198.83
  Q 671.73 218.13 646.06 220.71
  Q 634.67 221.85 626.03 220.53
  Q 615.30 218.89 606.74 215.68
  Q 587.07 208.29 577.19 188.78
  Q 573.76 182.01 571.49 172.14
  C 562.81 134.40 577.83 89.83 620.85 82.84
  C 636.07 80.37 652.63 80.92 666.64 87.42
  C 690.32 98.42 696.62 125.09 695.87 149.17
  C 695.80 151.32 695.99 153.75 693.00 153.75
  Q 628.92 153.68 616.28 153.92
  Q 615.47 153.93 615.04 154.10
  Z
  M 614.54 145.18
  L 652.31 146.04
  A 1.11 1.11 0.0 0 0 653.45 144.96
  L 653.52 141.50
  A 53.09 19.81 -88.7 0 0 634.92 87.97
  L 634.54 87.96
  A 53.09 19.81 -88.7 0 0 613.53 140.59
  L 613.46 144.05
  A 1.11 1.11 0.0 0 0 614.54 145.18
  Z"
/>
<circle fill="#121212" cx="818.41" cy="200.21" r="24.94"/>
<path fill="#121212" d="
  M 713.13 368.38
  A 2.09 2.05 -68.7 0 0 712.62 368.61
  Q 709.39 370.72 706.24 373.02
  C 703.56 374.97 700.65 376.34 697.38 377.91
  Q 695.38 378.86 693.63 379.37
  Q 672.69 385.50 654.00 377.09
  C 638.56 370.14 629.56 353.56 625.99 337.13
  Q 619.66 307.92 627.58 278.57
  Q 629.07 273.06 632.47 266.48
  Q 641.38 249.20 658.07 240.99
  C 674.66 232.84 693.82 233.41 711.59 237.51
  A 1.62 1.61 -83.3 0 0 713.57 235.94
  Q 713.60 215.87 713.56 199.00
  C 713.55 196.20 711.02 194.72 708.10 194.04
  Q 702.95 192.84 698.41 190.07
  A 1.74 1.73 -52.0 0 1 698.08 187.37
  Q 698.95 186.50 700.73 186.18
  Q 712.72 183.97 755.44 176.15
  Q 760.83 175.16 760.86 181.01
  Q 760.99 210.60 760.98 360.53
  C 760.98 363.07 763.04 365.25 765.59 365.74
  C 770.03 366.58 773.67 367.92 776.83 370.95
  A 1.92 1.90 -68.3 0 1 777.40 372.29
  C 777.41 373.87 776.20 374.88 774.67 375.07
  Q 740.29 379.36 719.60 381.95
  C 716.63 382.32 714.39 381.98 715.06 378.24
  Q 715.73 374.55 716.08 370.77
  Q 716.39 367.38 713.13 368.38
  Z
  M 712.98 354.89
  L 713.88 251.59
  A 9.24 9.24 0.0 0 0 704.72 242.27
  L 702.74 242.26
  A 41.59 28.10 -89.5 0 0 674.28 283.60
  L 673.94 322.20
  A 41.59 28.10 -89.5 0 0 701.68 364.03
  L 703.66 364.05
  A 9.24 9.24 0.0 0 0 712.98 354.89
  Z"
/>
<path fill="#121212" d="
  M 155.44 372.19
  C 157.18 371.35 157.54 369.32 157.54 367.40
  Q 157.57 337.75 157.55 306.00
  C 157.55 303.09 156.96 301.86 154.36 300.32
  Q 145.25 294.95 142.40 293.40
  C 140.57 292.41 138.90 290.74 139.40 288.49
  Q 140.00 285.76 143.50 285.76
  Q 197.71 285.74 222.50 285.76
  Q 223.74 285.76 224.57 287.48
  C 226.16 290.82 224.45 292.55 221.50 294.24
  Q 215.55 297.66 210.08 300.85
  A 4.79 4.78 -15.1 0 0 207.71 304.96
  Q 207.70 336.25 207.71 368.00
  C 207.71 370.52 206.32 371.63 203.97 372.43
  C 189.97 377.17 173.85 380.00 161.06 381.36
  Q 151.97 382.33 137.75 381.92
  C 119.96 381.42 101.47 377.75 85.70 369.35
  Q 57.86 354.52 48.71 324.10
  Q 42.79 304.39 43.15 283.51
  Q 43.25 277.55 43.80 268.04
  Q 44.41 257.69 49.33 243.56
  Q 59.34 214.81 85.42 199.18
  C 101.05 189.81 119.05 185.68 137.53 184.58
  Q 166.10 182.88 196.24 191.11
  Q 200.52 192.28 200.84 192.44
  C 203.27 193.71 203.49 195.74 203.49 198.49
  Q 203.48 216.26 203.44 243.24
  C 203.44 245.15 202.03 246.02 200.38 244.99
  Q 198.34 243.72 197.11 242.15
  C 188.20 230.77 183.56 222.14 170.94 202.13
  C 169.08 199.18 166.02 195.17 162.73 194.29
  Q 158.40 193.13 153.06 192.49
  C 142.24 191.20 130.33 194.92 122.97 203.14
  C 109.86 217.77 105.69 240.13 104.33 260.03
  Q 102.57 285.79 105.59 314.72
  Q 106.41 322.56 107.62 329.30
  C 111.24 349.52 118.57 374.94 144.28 374.05
  C 147.50 373.94 152.23 373.75 155.44 372.19
  Z"
/>
<path fill="#121212" d="
  M 1055.35 249.16
  Q 1056.57 250.66 1058.64 249.15
  C 1074.04 237.93 1096.97 229.75 1116.10 234.15
  C 1134.82 238.46 1140.33 253.28 1140.40 270.73
  Q 1140.59 317.63 1140.44 355.00
  Q 1140.42 359.36 1141.92 364.39
  C 1142.45 366.16 1142.79 366.90 1144.52 367.89
  C 1147.92 369.83 1152.01 372.40 1153.07 376.00
  A 1.58 1.57 72.9 0 1 1152.05 377.94
  Q 1149.56 378.75 1147.28 378.76
  Q 1088.76 378.84 1084.00 378.85
  Q 1082.04 378.85 1080.74 378.53
  C 1078.21 377.90 1077.77 374.92 1080.01 373.49
  Q 1082.47 371.91 1088.40 368.43
  C 1092.82 365.84 1092.55 358.31 1092.63 353.74
  Q 1093.36 310.64 1092.48 268.28
  Q 1092.42 265.27 1090.89 261.33
  C 1087.74 253.22 1076.30 253.91 1068.04 254.40
  C 1059.73 254.89 1055.85 259.72 1055.88 268.26
  Q 1055.99 297.07 1056.27 356.41
  C 1056.30 362.22 1057.02 366.18 1061.92 369.08
  C 1065.68 371.31 1067.42 372.14 1069.06 375.57
  A 2.11 2.11 0.0 0 1 1068.54 378.06
  Q 1067.68 378.79 1066.25 378.80
  Q 1032.35 378.88 1000.51 379.45
  C 996.89 379.51 990.49 375.70 996.63 372.20
  Q 1003.52 368.28 1006.13 366.77
  A 4.15 4.14 -15.1 0 0 1008.19 363.19
  L 1008.19 258.04
  A 3.65 3.64 11.7 0 0 1005.98 254.69
  Q 1001.49 252.77 996.34 251.43
  C 993.56 250.70 990.50 247.69 992.83 244.71
  Q 993.48 243.88 994.96 243.63
  Q 1011.16 240.83 1050.70 234.02
  A 3.77 3.77 0.0 0 1 1055.11 237.73
  L 1055.11 248.46
  A 1.15 1.14 26.3 0 0 1055.35 249.16
  Z"
/>
<path fill="#121212" d="
  M 313.78 365.36
  Q 313.15 365.77 309.21 368.69
  Q 293.30 380.50 272.26 381.81
  C 253.52 382.97 237.06 373.36 233.49 354.01
  Q 232.39 348.09 232.33 342.02
  Q 231.98 304.80 232.36 260.75
  C 232.39 257.64 230.47 255.47 227.31 254.58
  Q 222.57 253.24 217.96 250.44
  C 215.19 248.76 215.73 245.56 218.92 245.08
  Q 224.71 244.22 275.49 235.46
  A 3.61 3.60 -4.9 0 1 279.71 239.01
  Q 279.73 342.48 279.71 347.26
  C 279.66 361.65 288.00 366.97 301.77 364.83
  C 312.17 363.21 315.16 355.26 315.13 345.75
  Q 315.03 321.94 314.82 259.17
  A 3.61 3.60 -78.3 0 0 312.66 255.88
  Q 309.06 254.30 302.09 251.71
  Q 298.54 250.39 299.24 246.77
  A 2.21 2.20 0.6 0 1 301.03 245.02
  L 358.22 235.28
  A 3.36 3.35 85.2 0 1 362.14 238.59
  Q 362.14 343.61 362.14 360.25
  Q 362.14 364.55 365.62 365.39
  Q 371.86 366.89 376.97 370.93
  A 2.00 1.90 -54.8 0 1 377.35 373.51
  Q 376.92 374.20 375.55 374.55
  Q 373.06 375.19 370.50 375.51
  Q 339.35 379.40 320.12 381.74
  A 3.80 3.80 0.0 0 1 315.87 377.97
  L 315.87 366.49
  A 1.35 1.35 0.0 0 0 313.78 365.36
  Z"
/>
<path fill="#121212" d="
  M 452.94 367.59
  A 1.83 1.83 0.0 0 0 450.43 367.45
  C 443.10 373.68 436.83 378.65 427.09 380.77
  Q 418.00 382.74 407.45 381.03
  Q 381.59 376.83 378.06 350.76
  Q 377.89 349.49 377.51 344.43
  C 375.32 315.49 400.10 305.65 423.18 301.18
  Q 424.36 300.95 449.78 296.22
  A 2.12 2.12 0.0 0 0 451.51 294.16
  C 451.75 279.97 452.88 266.92 448.91 254.95
  Q 444.55 241.82 430.44 241.01
  Q 424.49 240.67 421.10 244.60
  C 413.00 253.98 404.91 266.49 398.43 275.12
  C 396.53 277.65 393.18 281.79 391.15 283.14
  Q 390.03 283.89 389.11 283.75
  A 1.96 1.96 0.0 0 1 387.44 281.82
  Q 387.38 266.20 387.46 247.29
  Q 387.48 244.13 391.10 243.06
  Q 418.87 234.82 446.01 235.34
  C 471.48 235.83 498.75 244.57 498.84 275.80
  Q 498.98 320.55 498.95 363.27
  C 498.94 368.36 504.38 369.24 508.38 370.16
  C 511.77 370.95 514.38 374.86 509.73 376.69
  Q 490.91 384.11 472.70 380.36
  Q 465.33 378.85 458.18 373.17
  C 456.05 371.48 454.67 369.42 452.94 367.59
  Z
  M 450.92 358.02
  L 452.01 309.69
  A 5.73 5.73 0.0 0 0 446.42 303.83
  L 444.42 303.79
  A 21.88 20.91 -88.7 0 0 423.02 325.19
  L 422.65 341.22
  A 21.88 20.91 -88.7 0 0 443.06 363.57
  L 445.06 363.62
  A 5.73 5.73 0.0 0 0 450.92 358.02
  Z"
/>
<path fill="#121212" d="
  M 795.75 362.07
  Q 795.76 302.59 795.74 260.25
  C 795.73 250.34 780.55 255.89 779.99 247.96
  C 779.87 246.20 781.55 245.25 783.01 245.00
  Q 805.97 241.04 838.68 235.42
  C 843.50 234.60 843.77 237.51 843.77 241.37
  Q 843.75 311.08 843.77 362.48
  C 843.78 365.59 846.18 367.60 849.22 368.88
  Q 854.25 371.00 856.93 374.77
  A 1.92 1.91 -32.2 0 1 856.29 377.56
  C 855.26 378.12 853.53 378.47 852.37 378.48
  Q 821.69 378.65 786.68 378.73
  C 783.48 378.74 781.14 377.46 781.80 373.98
  Q 781.90 373.45 782.35 373.18
  C 786.82 370.48 795.75 368.00 795.75 362.07
  Z"
/>
<path fill="#121212" d="
  M 929.57 367.62
  A 1.83 1.83 0.0 0 0 927.06 367.48
  C 919.72 373.70 913.45 378.67 903.70 380.78
  Q 894.61 382.75 884.06 381.03
  Q 858.20 376.81 854.69 350.73
  Q 854.52 349.46 854.14 344.40
  C 851.97 315.46 876.76 305.63 899.85 301.18
  Q 901.03 300.95 926.45 296.24
  A 2.12 2.12 0.0 0 0 928.19 294.18
  C 928.44 279.98 929.58 266.93 925.61 254.96
  Q 921.26 241.82 907.15 241.00
  Q 901.20 240.66 897.81 244.59
  C 889.70 253.96 881.60 266.47 875.11 275.10
  C 873.21 277.63 869.86 281.76 867.82 283.11
  Q 866.70 283.86 865.78 283.72
  A 1.96 1.96 0.0 0 1 864.11 281.79
  Q 864.07 266.17 864.16 247.26
  Q 864.18 244.09 867.80 243.03
  Q 895.58 234.81 922.73 235.34
  C 948.20 235.85 975.47 244.61 975.54 275.85
  Q 975.65 320.60 975.59 363.33
  C 975.57 368.42 981.01 369.31 985.01 370.23
  C 988.40 371.02 991.01 374.93 986.36 376.76
  Q 967.53 384.17 949.32 380.41
  Q 941.95 378.89 934.80 373.20
  C 932.67 371.51 931.29 369.45 929.57 367.62
  Z
  M 927.56 358.22
  L 928.58 309.45
  A 5.44 5.44 0.0 0 0 923.25 303.90
  L 920.94 303.85
  A 21.06 20.77 -88.8 0 0 899.74 324.47
  L 899.37 342.01
  A 21.06 20.77 -88.8 0 0 919.69 363.50
  L 922.00 363.55
  A 5.44 5.44 0.0 0 0 927.56 358.22
  Z"
/>
<path fill="#121212" d="
  M 577.15 275.20
  C 578.24 274.82 581.19 265.23 583.66 258.38
  Q 591.66 236.18 615.17 235.77
  C 618.35 235.72 620.49 237.30 620.51 240.50
  Q 620.55 245.30 620.51 276.25
  C 620.51 278.36 618.46 279.16 616.46 278.89
  Q 605.89 277.48 595.03 279.51
  Q 585.69 281.25 580.33 283.24
  Q 578.04 284.09 578.04 287.34
  Q 578.10 332.75 578.28 358.76
  Q 578.32 363.99 581.47 367.49
  C 584.83 371.21 591.48 371.38 591.25 377.31
  A 1.17 1.17 0.0 0 1 590.10 378.43
  Q 550.70 379.11 518.90 378.31
  C 517.61 378.27 516.57 377.85 515.96 376.81
  A 1.83 1.83 0.0 0 1 516.53 374.37
  Q 522.00 370.72 527.89 366.90
  Q 530.05 365.50 530.11 362.55
  Q 530.24 355.93 530.19 257.23
  A 3.39 3.38 -80.4 0 0 527.92 254.03
  Q 524.24 252.75 518.49 251.35
  Q 514.48 250.37 515.46 246.72
  A 2.33 2.33 0.0 0 1 517.32 245.03
  Q 526.57 243.42 572.07 235.61
  Q 576.85 234.79 576.76 239.76
  Q 576.33 264.13 576.16 274.48
  Q 576.14 275.55 577.15 275.20
  Z"
/>
</svg>
