<?xml version="1.0" encoding="UTF-8" standalone="no"?>
<!DOCTYPE svg PUBLIC "-//W3C//DTD SVG 1.1//EN" "http://www.w3.org/Graphics/SVG/1.1/DTD/svg11.dtd">
<svg xmlns="http://www.w3.org/2000/svg" version="1.1" viewBox="0.00 0.00 1200.00 400.00">
<path fill="#000000" d="
  M 31.31 167.86
  A 0.30 0.30 0.0 0 0 31.72 168.23
  L 63.34 153.92
  A 0.41 0.40 -11.9 0 1 63.91 154.29
  L 63.92 199.44
  Q 63.92 200.17 63.28 200.49
  L 38.16 213.20
  A 0.80 0.80 0.0 0 0 37.95 214.47
  Q 54.21 231.28 76.25 222.41
  Q 77.35 221.97 78.41 220.98
  Q 78.81 220.60 78.81 220.05
  L 78.80 191.14
  A 1.23 1.23 0.0 0 0 78.34 190.18
  L 68.89 182.59
  A 0.60 0.60 0.0 0 1 68.89 181.65
  L 78.43 174.01
  Q 78.79 173.72 78.79 173.26
  L 78.79 152.55
  Q 78.79 152.06 78.31 151.97
  C 63.68 149.14 48.97 144.83 34.71 140.94
  Q 32.00 140.20 28.20 140.79
  C 21.68 141.81 19.07 149.86 23.18 154.72
  Q 24.42 156.18 22.69 155.34
  C 9.93 149.16 12.76 130.72 23.27 124.08
  Q 33.51 117.61 45.30 121.12
  Q 61.29 125.87 67.88 128.08
  C 73.60 130.01 83.33 133.30 87.43 127.31
  C 88.38 125.94 88.49 124.19 87.77 122.59
  C 85.82 118.30 81.92 117.63 77.65 117.12
  Q 77.27 117.07 77.39 116.71
  Q 77.46 116.52 77.71 116.49
  Q 83.87 115.65 89.88 118.34
  Q 101.99 123.79 99.03 137.56
  C 97.14 146.32 88.99 151.82 80.41 151.94
  A 0.58 0.58 0.0 0 0 79.84 152.52
  L 79.84 172.94
  Q 79.84 173.64 80.39 174.08
  L 89.91 181.73
  A 0.51 0.51 0.0 0 1 89.91 182.53
  L 80.48 190.09
  A 1.68 1.66 70.9 0 0 79.85 191.40
  L 79.86 219.49
  A 0.49 0.49 0.0 0 0 80.64 219.88
  Q 91.72 211.80 97.13 200.14
  Q 98.11 198.03 98.07 200.36
  Q 97.92 209.66 94.01 218.59
  Q 86.61 235.50 67.95 241.27
  Q 57.65 244.46 48.03 242.48
  Q 34.53 239.70 25.67 231.65
  C 8.50 216.06 4.86 189.31 17.94 169.83
  Q 28.30 154.40 46.21 148.84
  Q 48.88 148.01 46.56 149.55
  C 39.53 154.23 34.06 159.99 31.31 167.86
  Z
  M 31.79 169.36
  Q 30.28 169.92 29.82 171.36
  Q 22.93 193.04 36.16 212.14
  Q 36.66 212.86 37.41 212.42
  L 43.35 208.99
  A 1.07 1.07 0.0 0 0 43.88 208.06
  L 43.82 164.77
  A 0.60 0.60 0.0 0 0 42.94 164.25
  Q 36.13 167.72 31.79 169.36
  Z"
/>
<path fill="#000000" d="
  M 858.11 167.86
  A 0.30 0.30 0.0 0 0 858.52 168.23
  L 890.14 153.92
  A 0.41 0.41 0.0 0 1 890.71 154.29
  L 890.71 199.45
  Q 890.71 200.18 890.07 200.50
  L 864.95 213.21
  A 0.80 0.80 0.0 0 0 864.74 214.48
  Q 881.00 231.29 903.04 222.42
  Q 904.14 221.98 905.20 220.99
  Q 905.60 220.61 905.60 220.06
  L 905.60 191.15
  A 1.23 1.23 0.0 0 0 905.14 190.19
  L 895.69 182.60
  A 0.60 0.60 0.0 0 1 895.69 181.66
  L 905.23 174.02
  Q 905.59 173.73 905.59 173.27
  L 905.59 152.56
  Q 905.59 152.07 905.11 151.98
  C 890.48 149.14 875.77 144.83 861.51 140.94
  Q 858.80 140.20 855.00 140.79
  C 848.48 141.81 845.87 149.86 849.98 154.72
  Q 851.22 156.18 849.49 155.34
  C 836.73 149.15 839.56 130.71 850.07 124.07
  Q 860.31 117.61 872.11 121.12
  Q 888.10 125.87 894.69 128.08
  C 900.41 130.01 910.14 133.31 914.24 127.32
  C 915.19 125.95 915.30 124.20 914.58 122.60
  C 912.63 118.30 908.73 117.63 904.46 117.12
  Q 904.08 117.07 904.20 116.71
  Q 904.27 116.52 904.52 116.49
  Q 910.68 115.65 916.69 118.35
  Q 928.80 123.80 925.84 137.57
  C 923.95 146.33 915.79 151.83 907.21 151.95
  A 0.58 0.58 0.0 0 0 906.64 152.53
  L 906.64 172.95
  Q 906.64 173.65 907.19 174.09
  L 916.71 181.74
  A 0.51 0.51 0.0 0 1 916.71 182.54
  L 907.28 190.10
  A 1.68 1.66 70.9 0 0 906.65 191.41
  L 906.65 219.50
  A 0.49 0.49 0.0 0 0 907.43 219.89
  Q 918.51 211.82 923.93 200.16
  Q 924.91 198.05 924.87 200.38
  Q 924.72 209.68 920.80 218.61
  Q 913.40 235.52 894.74 241.28
  Q 884.43 244.47 874.81 242.49
  Q 861.31 239.71 852.45 231.66
  C 835.28 216.06 831.65 189.31 844.73 169.83
  Q 855.10 154.40 873.01 148.84
  Q 875.68 148.01 873.36 149.55
  C 866.33 154.23 860.86 159.99 858.11 167.86
  Z
  M 858.68 169.33
  Q 857.17 169.89 856.71 171.33
  Q 849.77 193.05 863.00 212.22
  Q 863.50 212.94 864.26 212.50
  L 870.21 209.07
  A 1.08 1.07 -15.0 0 0 870.75 208.14
  L 870.75 164.75
  A 0.61 0.60 -13.7 0 0 869.87 164.22
  Q 863.04 167.69 858.68 169.33
  Z"
/>
<path fill="#000000" d="
  M 745.11 229.36
  A 1.32 1.32 0.0 0 0 743.36 229.26
  L 738.50 233.15
  Q 738.39 233.24 738.28 233.15
  L 738.03 232.93
  Q 737.65 232.60 738.02 232.27
  L 746.22 225.02
  A 2.80 2.77 69.7 0 0 747.16 222.95
  Q 747.20 169.33 747.14 148.47
  C 747.13 145.02 745.59 139.09 741.64 138.45
  A 0.45 0.45 0.0 0 1 741.45 137.64
  L 764.55 121.25
  A 0.38 0.38 0.0 0 1 765.15 121.56
  L 765.15 219.31
  A 2.64 2.61 23.8 0 0 765.86 221.10
  L 771.18 226.81
  A 0.88 0.87 46.6 0 0 772.41 226.85
  L 776.29 223.23
  A 0.50 0.50 0.0 0 1 777.03 223.30
  L 777.27 223.64
  Q 777.38 223.81 777.23 223.94
  L 757.72 241.20
  A 0.59 0.58 46.8 0 1 756.92 241.17
  L 745.11 229.36
  Z"
/>
<path fill="#000000" d="
  M 273.98 151.25
  L 273.98 214.46
  A 0.67 0.67 0.0 0 0 274.54 215.12
  Q 285.57 216.96 293.48 225.22
  A 0.97 0.97 0.0 0 0 294.91 225.18
  L 298.92 220.56
  Q 299.26 220.16 299.66 220.51
  L 299.87 220.69
  A 0.18 0.17 41.6 0 1 299.89 220.94
  L 281.86 241.73
  A 0.86 0.86 0.0 0 1 280.56 241.73
  C 275.61 235.92 263.83 231.29 259.66 240.95
  C 256.86 247.41 262.95 252.49 268.69 253.51
  Q 270.78 253.88 268.66 254.09
  C 255.33 255.38 245.15 244.28 248.58 231.02
  C 251.47 219.87 260.99 215.17 272.00 214.98
  Q 272.93 214.96 272.93 214.03
  L 272.93 187.76
  Q 272.93 186.27 271.44 186.25
  C 268.75 186.21 265.47 186.61 263.88 188.74
  C 262.22 190.95 262.65 193.55 264.59 195.62
  Q 265.03 196.10 265.21 196.49
  Q 265.44 197.00 264.90 196.85
  C 256.79 194.70 252.39 186.41 254.49 178.75
  C 256.70 170.67 264.00 168.09 271.88 167.81
  A 1.19 1.18 -2.0 0 0 273.02 166.60
  Q 272.82 157.99 272.96 151.40
  Q 273.04 147.83 271.96 146.10
  Q 269.70 142.46 267.19 140.95
  C 261.30 137.41 258.37 142.28 256.99 147.37
  Q 256.92 147.62 256.66 147.62
  Q 256.53 147.62 256.42 147.52
  Q 256.34 147.45 256.34 147.35
  Q 256.29 142.09 256.57 139.78
  C 257.97 128.42 267.88 120.82 279.25 124.84
  C 284.56 126.71 288.05 131.50 290.91 136.74
  Q 305.86 164.14 325.36 200.06
  Q 326.70 202.52 326.70 199.72
  L 326.70 149.02
  A 0.58 0.58 0.0 0 0 326.14 148.44
  Q 316.88 148.17 310.74 141.95
  Q 310.02 141.23 309.36 141.99
  L 304.41 147.70
  Q 304.25 147.89 304.12 147.67
  L 303.81 147.14
  Q 303.65 146.85 303.86 146.60
  L 322.42 125.21
  Q 322.77 124.80 323.14 125.18
  C 330.09 132.26 341.88 133.89 345.57 122.61
  Q 346.12 120.92 346.60 122.63
  C 349.80 133.92 342.90 145.68 331.23 147.95
  Q 330.34 148.12 328.29 148.62
  Q 327.80 148.74 327.80 149.24
  L 327.80 241.69
  A 0.66 0.66 0.0 0 1 327.31 242.33
  C 324.61 243.06 323.85 241.16 322.60 238.85
  Q 288.30 175.67 274.90 151.02
  Q 273.98 149.34 273.98 151.25
  Z"
/>
<path fill="#000000" d="
  M 129.31 176.81
  L 146.53 161.58
  A 0.78 0.77 -41.6 0 1 147.62 161.64
  L 161.28 177.08
  Q 161.63 177.48 162.05 177.16
  L 167.29 173.25
  A 0.64 0.62 -63.0 0 1 167.67 173.12
  L 168.59 173.12
  A 0.19 0.19 0.0 0 1 168.71 173.45
  L 162.63 178.32
  Q 162.25 178.63 162.25 179.11
  Q 162.56 200.67 161.98 222.18
  C 161.73 231.52 161.74 237.08 158.00 243.96
  C 152.20 254.64 139.50 259.88 127.82 258.15
  Q 126.07 257.89 127.76 257.37
  C 140.82 253.35 143.58 241.64 143.73 229.18
  Q 144.00 207.37 143.81 185.94
  Q 143.80 184.88 143.13 184.05
  L 135.38 174.36
  A 0.99 0.99 0.0 0 0 133.97 174.22
  L 128.90 178.50
  A 0.77 0.76 -20.5 0 0 128.63 179.08
  L 128.63 221.24
  Q 128.63 221.82 129.04 222.23
  L 133.17 226.35
  A 0.87 0.86 48.4 0 0 134.33 226.42
  L 138.22 223.31
  A 0.53 0.52 -31.7 0 1 139.03 223.50
  L 139.16 223.80
  Q 139.24 223.98 139.09 224.10
  L 118.93 240.24
  A 0.81 0.80 47.8 0 1 117.85 240.18
  L 106.45 228.78
  A 1.46 1.39 48.1 0 0 104.56 228.63
  L 100.89 231.58
  Q 100.68 231.74 100.52 231.54
  L 100.34 231.30
  Q 100.06 230.96 100.40 230.69
  L 109.42 223.46
  Q 109.79 223.17 109.79 222.70
  Q 109.88 188.20 109.78 146.16
  Q 109.77 142.49 106.52 141.13
  A 0.65 0.64 -52.9 0 1 106.37 140.03
  L 127.82 122.85
  A 0.49 0.48 70.6 0 1 128.61 123.23
  L 128.61 176.49
  Q 128.61 177.43 129.31 176.81
  Z"
/>
<path fill="#000000" d="
  M 573.92 140.75
  Q 573.92 142.00 574.90 141.22
  L 593.61 126.23
  A 0.26 0.26 0.0 0 1 593.93 126.24
  L 608.35 138.75
  A 0.43 0.43 0.0 0 0 608.92 138.74
  L 614.90 133.15
  Q 615.32 132.77 615.64 133.23
  L 615.82 133.48
  A 0.31 0.31 0.0 0 1 615.78 133.89
  L 609.27 139.96
  Q 608.88 140.32 608.88 140.85
  Q 608.88 181.31 608.89 221.75
  C 608.89 229.40 608.90 237.34 601.10 241.47
  C 593.79 245.34 585.08 243.37 577.60 241.11
  Q 565.33 237.40 552.50 236.84
  C 547.44 236.62 541.55 237.03 537.94 240.89
  C 533.38 245.75 535.83 253.48 542.57 254.65
  Q 545.63 255.18 551.86 254.42
  Q 555.72 253.95 578.22 249.65
  Q 582.31 248.86 589.02 248.51
  Q 599.54 247.96 606.36 255.68
  C 610.57 260.46 610.35 267.99 607.49 273.43
  C 604.74 278.65 599.19 281.77 593.37 283.37
  Q 591.31 283.94 592.99 282.63
  Q 597.35 279.21 596.64 273.72
  C 596.10 269.52 592.77 268.86 588.62 269.17
  C 578.39 269.93 565.80 273.25 558.37 274.62
  C 544.15 277.23 529.77 275.74 526.47 258.96
  C 524.38 248.34 530.39 242.03 539.34 237.63
  Q 540.16 237.23 540.16 236.31
  L 540.16 193.22
  A 1.18 1.17 -85.4 0 0 539.18 192.06
  Q 536.83 191.70 534.18 192.43
  C 529.88 193.60 528.54 198.30 532.26 201.18
  Q 533.84 202.40 531.89 202.00
  Q 526.54 200.89 524.02 195.99
  C 520.03 188.22 523.96 178.92 532.01 176.01
  Q 535.86 174.62 539.69 174.41
  A 0.47 0.47 0.0 0 0 540.14 173.94
  Q 540.22 159.72 540.11 146.94
  C 540.02 135.77 528.27 133.63 525.75 144.89
  Q 525.70 145.10 525.48 145.06
  L 525.17 145.01
  Q 525.09 144.99 525.09 144.90
  Q 525.84 135.08 534.01 129.52
  C 542.54 123.71 555.16 126.35 559.35 135.64
  Q 560.76 138.77 560.76 148.11
  Q 560.72 216.04 560.75 235.49
  A 0.89 0.89 0.0 0 0 561.49 236.37
  L 571.97 238.32
  A 0.73 0.72 5.3 0 0 572.83 237.61
  L 572.83 127.56
  A 0.37 0.36 -90.0 0 1 573.19 127.19
  L 573.54 127.19
  Q 573.92 127.19 573.92 127.58
  L 573.92 140.75
  Z
  M 587.44 176.64
  Q 588.19 176.00 588.19 174.50
  Q 588.24 166.84 588.22 149.13
  Q 588.21 148.35 587.63 147.85
  L 579.04 140.40
  A 0.89 0.88 -43.6 0 0 577.91 140.38
  L 574.36 143.23
  Q 573.96 143.55 573.95 144.06
  Q 573.85 160.94 573.98 174.62
  C 573.99 176.35 574.59 176.82 576.01 177.63
  Q 582.20 181.16 587.44 176.64
  Z
  M 581.07 180.69
  Q 578.96 180.69 577.38 179.87
  Q 574.83 178.55 574.42 178.38
  Q 573.95 178.19 573.93 178.70
  Q 573.92 178.86 573.92 184.44
  Q 573.92 190.02 573.93 190.19
  Q 573.95 190.70 574.42 190.51
  Q 574.83 190.34 577.39 189.01
  Q 578.96 188.19 581.07 188.19
  Q 583.18 188.19 584.75 189.01
  Q 587.31 190.34 587.72 190.51
  Q 588.19 190.70 588.21 190.19
  Q 588.22 190.02 588.22 184.44
  Q 588.22 178.86 588.21 178.70
  Q 588.19 178.19 587.72 178.38
  Q 587.31 178.55 584.75 179.87
  Q 583.18 180.69 581.07 180.69
  Z
  M 573.89 238.25
  A 0.66 0.66 0.0 0 0 574.36 238.88
  C 581.11 240.86 587.93 235.76 588.10 229.09
  Q 588.34 219.67 588.19 194.54
  C 588.18 192.66 587.48 192.13 586.03 191.27
  Q 579.95 187.69 574.65 192.45
  Q 573.92 193.11 573.93 195.26
  Q 573.98 216.97 573.89 238.25
  Z"
/>
<rect fill="#000000" x="-9.39" y="-8.39" transform="translate(946.36,145.97) rotate(-42.3)" width="18.78" height="16.78" rx="0.61"/>
<path fill="#000000" d="
  M 495.46 173.34
  Q 496.13 173.93 496.79 173.34
  L 502.09 168.65
  Q 502.27 168.49 502.43 168.68
  L 502.64 168.94
  A 0.62 0.61 50.3 0 1 502.57 169.78
  L 490.22 180.71
  A 1.41 1.39 -20.9 0 0 489.74 181.76
  L 489.74 220.27
  A 1.17 1.16 74.2 0 1 489.19 221.26
  L 456.59 241.46
  A 1.39 1.38 -41.1 0 1 455.01 241.36
  L 439.06 228.56
  Q 438.51 228.11 437.95 228.56
  L 421.80 241.50
  A 0.97 0.97 0.0 0 1 420.55 241.47
  L 406.13 228.98
  A 0.82 0.82 0.0 0 0 405.11 228.93
  L 398.67 233.50
  Q 398.37 233.71 398.17 233.40
  L 397.99 233.11
  Q 397.90 232.97 398.04 232.86
  L 404.49 227.69
  A 0.98 0.96 71.0 0 0 404.85 226.93
  Q 404.90 207.51 404.84 191.17
  C 404.81 182.40 402.04 180.32 396.08 174.84
  Q 391.93 171.03 391.80 164.11
  C 391.63 155.15 400.14 147.64 408.55 146.51
  Q 410.04 146.31 408.91 147.30
  C 398.06 156.82 411.39 163.76 418.31 168.84
  C 422.36 171.81 423.17 175.51 423.18 180.86
  Q 423.19 198.86 423.18 219.60
  A 2.13 2.12 19.4 0 0 423.98 221.26
  L 434.10 229.38
  A 0.80 0.80 0.0 0 0 435.10 229.38
  L 437.29 227.63
  Q 437.65 227.34 437.65 226.87
  L 437.65 181.98
  A 0.70 0.68 -68.2 0 0 437.45 181.49
  L 432.03 176.07
  A 0.73 0.72 46.8 0 1 432.06 175.01
  L 446.86 161.92
  Q 447.09 161.71 447.32 161.91
  L 461.19 173.94
  A 0.69 0.68 -46.9 0 1 461.22 174.94
  L 456.59 179.57
  A 1.95 1.93 -22.7 0 0 456.02 180.94
  L 456.02 220.04
  Q 456.02 220.68 456.50 221.10
  L 468.22 231.26
  A 2.24 2.24 0.0 0 0 471.93 229.57
  L 471.93 182.15
  A 0.89 0.86 23.1 0 0 471.67 181.53
  L 466.40 176.56
  A 0.63 0.63 0.0 0 1 466.41 175.63
  L 481.21 161.81
  Q 481.66 161.39 482.13 161.79
  L 495.46 173.34
  Z"
/>
<path fill="#000000" d="
  M 1177.92 187.10
  L 1188.87 195.90
  Q 1189.85 196.68 1189.85 197.94
  L 1189.85 222.82
  A 0.98 0.98 0.0 0 1 1189.34 223.68
  Q 1174.86 231.58 1161.99 240.87
  A 0.87 0.87 0.0 0 1 1160.82 240.73
  C 1157.23 236.44 1149.58 231.83 1145.08 238.05
  C 1142.63 241.44 1146.56 245.49 1149.58 246.60
  A 0.27 0.27 0.0 0 1 1149.70 247.02
  L 1149.51 247.24
  Q 1149.46 247.31 1149.37 247.30
  C 1138.41 245.19 1133.26 233.42 1139.21 223.94
  Q 1143.32 217.40 1150.76 210.63
  Q 1151.72 209.76 1150.74 208.91
  L 1140.34 199.89
  A 1.74 1.73 20.6 0 1 1139.74 198.58
  L 1139.74 179.10
  A 0.99 0.98 76.9 0 1 1140.28 178.22
  C 1149.90 173.47 1158.58 167.79 1167.87 161.61
  Q 1168.40 161.26 1168.84 161.72
  C 1171.31 164.31 1174.55 166.99 1178.42 167.03
  Q 1186.34 167.11 1187.44 159.60
  Q 1187.73 157.56 1188.27 159.55
  C 1190.26 166.86 1186.14 174.99 1181.75 180.76
  Q 1177.95 185.76 1177.74 186.13
  Q 1177.41 186.69 1177.92 187.10
  Z
  M 1182.83 175.73
  C 1174.22 184.46 1163.81 180.99 1157.89 171.66
  Q 1156.80 169.95 1156.80 171.98
  L 1156.80 190.62
  A 1.98 1.95 20.8 0 0 1157.48 192.10
  L 1163.12 196.99
  Q 1163.96 197.72 1164.79 196.99
  Q 1172.73 190.11 1179.04 182.56
  Q 1181.70 179.37 1183.35 176.10
  Q 1184.26 174.29 1182.83 175.73
  Z
  M 1140.71 225.65
  C 1146.70 218.48 1153.88 215.00 1162.48 219.58
  C 1166.89 221.93 1169.68 225.63 1172.21 230.19
  Q 1172.91 231.45 1172.91 230.01
  L 1172.91 205.65
  A 1.78 1.75 20.7 0 0 1172.30 204.32
  L 1165.82 198.70
  A 0.90 0.90 0.0 0 0 1164.62 198.72
  Q 1156.06 206.66 1148.29 214.54
  Q 1143.60 219.29 1140.26 224.99
  Q 1140.06 225.34 1140.38 225.57
  L 1140.61 225.74
  Q 1140.62 225.75 1140.71 225.65
  Z"
/>
<path fill="#000000" d="
  M 809.71 226.63
  L 815.52 221.48
  A 0.36 0.36 0.0 0 1 816.07 221.56
  L 816.30 221.94
  Q 816.46 222.19 816.24 222.39
  L 795.40 240.83
  A 0.47 0.46 -36.1 0 1 794.70 240.73
  L 766.90 195.85
  Q 765.91 194.26 766.96 192.71
  L 788.34 161.27
  A 0.40 0.39 41.0 0 1 788.96 161.23
  C 794.97 167.69 802.81 167.65 809.08 161.72
  Q 810.06 160.80 809.81 162.12
  C 806.68 178.58 795.69 187.75 779.96 176.73
  Q 779.54 176.43 779.15 176.78
  Q 777.57 178.19 778.36 179.38
  Q 793.04 201.68 809.26 226.56
  A 0.31 0.30 53.3 0 0 809.71 226.63
  Z"
/>
<path fill="#000000" d="
  M 624.32 225.53
  L 619.68 229.45
  A 0.43 0.42 -34.8 0 1 619.04 229.34
  L 618.89 229.07
  Q 618.79 228.91 618.93 228.78
  L 623.85 224.19
  Q 624.21 223.85 624.21 223.36
  L 624.21 179.18
  A 0.95 0.95 0.0 0 1 624.75 178.32
  Q 639.39 171.45 654.83 161.89
  A 0.90 0.89 -40.2 0 1 655.88 161.97
  L 675.68 179.14
  A 0.70 0.69 -46.0 0 0 676.61 179.12
  L 681.48 174.58
  Q 682.00 174.09 682.26 174.76
  L 682.40 175.12
  A 0.24 0.23 -32.2 0 1 682.34 175.38
  L 677.58 179.83
  Q 677.07 180.30 677.07 180.99
  L 677.07 221.78
  A 1.03 1.03 0.0 0 1 676.56 222.67
  L 644.27 241.31
  A 0.88 0.87 50.3 0 1 643.27 241.21
  L 625.20 225.54
  Q 624.76 225.16 624.32 225.53
  Z
  M 657.94 230.75
  A 0.50 0.50 0.0 0 0 658.77 230.37
  L 658.77 185.74
  A 0.50 0.50 0.0 0 0 658.60 185.36
  L 643.16 171.98
  A 0.50 0.50 0.0 0 0 642.33 172.36
  L 642.33 216.98
  A 0.50 0.50 0.0 0 0 642.50 217.36
  L 657.94 230.75
  Z"
/>
<path fill="#000000" d="
  M 178.14 224.92
  L 173.12 229.36
  Q 172.89 229.56 172.66 229.36
  L 172.35 229.09
  A 0.39 0.39 0.0 0 1 172.35 228.51
  L 177.69 223.78
  Q 178.08 223.45 178.08 222.93
  L 178.08 181.26
  Q 178.08 180.73 178.55 180.49
  Q 194.33 172.49 210.09 162.19
  Q 210.66 161.82 211.00 162.40
  L 225.55 187.61
  A 0.48 0.48 0.0 0 1 225.42 188.24
  L 198.13 208.52
  A 5.00 4.99 49.2 0 0 197.58 216.06
  L 210.32 228.80
  A 0.74 0.73 48.1 0 0 211.30 228.86
  L 228.43 215.14
  A 0.46 0.45 55.4 0 1 229.11 215.27
  L 229.32 215.64
  Q 229.44 215.84 229.26 215.98
  L 198.02 241.00
  A 1.10 1.10 0.0 0 1 196.58 240.95
  L 179.08 224.92
  Q 178.61 224.50 178.14 224.92
  Z
  M 197.06 172.65
  A 0.40 0.40 0.0 0 0 196.31 172.85
  L 196.31 207.68
  A 0.40 0.40 0.0 0 0 196.95 208.01
  L 211.02 197.55
  A 0.40 0.40 0.0 0 0 211.13 197.03
  L 197.06 172.65
  Z"
/>
<path fill="#000000" d="
  M 344.40 224.92
  Q 343.93 224.50 343.46 224.92
  L 338.43 229.36
  Q 338.20 229.56 337.97 229.36
  L 337.66 229.09
  A 0.39 0.39 0.0 0 1 337.66 228.51
  L 343.01 223.78
  Q 343.40 223.45 343.40 222.93
  L 343.40 181.26
  Q 343.40 180.73 343.87 180.49
  Q 359.65 172.49 375.42 162.19
  Q 375.99 161.82 376.33 162.40
  L 390.87 187.62
  A 0.48 0.48 0.0 0 1 390.74 188.25
  L 363.45 208.52
  A 5.00 4.99 49.2 0 0 362.90 216.06
  L 375.64 228.81
  A 0.74 0.73 48.1 0 0 376.62 228.87
  L 393.75 215.15
  A 0.46 0.45 55.4 0 1 394.43 215.28
  L 394.64 215.65
  Q 394.76 215.85 394.58 215.99
  L 363.33 241.01
  A 1.10 1.10 0.0 0 1 361.89 240.96
  L 344.40 224.92
  Z
  M 362.30 172.51
  A 0.36 0.36 0.0 0 0 361.63 172.69
  L 361.63 207.75
  A 0.36 0.36 0.0 0 0 362.20 208.04
  L 376.37 197.52
  A 0.36 0.36 0.0 0 0 376.47 197.05
  L 362.30 172.51
  Z"
/>
<path fill="#000000" d="
  M 715.04 177.45
  L 715.04 221.03
  A 2.14 2.14 0.0 0 0 715.78 222.65
  L 722.31 228.31
  A 0.83 0.83 0.0 0 0 723.38 228.32
  L 728.96 223.61
  A 0.46 0.46 0.0 0 1 729.62 223.69
  L 729.82 223.96
  Q 730.02 224.23 729.75 224.46
  L 710.35 240.81
  A 0.61 0.61 0.0 0 1 709.56 240.80
  L 694.55 227.78
  A 0.71 0.70 43.7 0 0 693.61 227.80
  L 688.97 232.14
  A 0.51 0.50 43.6 0 1 688.29 232.15
  L 688.04 231.93
  A 0.35 0.35 0.0 0 1 688.03 231.41
  L 695.73 224.23
  A 1.84 1.81 69.1 0 0 696.32 222.88
  L 696.32 185.34
  A 3.15 3.15 0.0 0 0 695.69 183.45
  L 690.38 176.31
  A 0.87 0.86 50.2 0 0 689.09 176.19
  L 684.55 180.42
  Q 684.37 180.59 684.19 180.43
  L 683.98 180.24
  A 0.43 0.43 0.0 0 1 683.97 179.60
  L 702.44 162.36
  A 0.62 0.61 48.5 0 1 703.33 162.42
  L 713.73 174.76
  A 0.50 0.49 -42.3 0 0 714.45 174.79
  L 726.05 163.19
  Q 726.39 162.84 726.81 163.10
  Q 728.91 164.44 730.06 165.04
  Q 736.15 168.21 740.76 162.96
  Q 741.66 161.93 741.69 163.30
  C 741.87 171.71 736.76 182.55 727.04 182.90
  C 722.44 183.06 718.92 180.33 715.78 177.15
  Q 715.04 176.40 715.04 177.45
  Z"
/>
<path fill="#000000" d="
  M 1068.39 226.01
  A 0.56 0.55 -43.2 0 0 1069.18 226.03
  L 1073.11 222.37
  A 0.54 0.54 0.0 0 1 1073.97 222.54
  L 1074.08 222.80
  Q 1074.17 222.99 1074.02 223.14
  L 1055.42 240.49
  A 0.82 0.82 0.0 0 1 1054.26 240.45
  L 1040.34 225.53
  A 0.67 0.67 0.0 0 1 1040.44 224.53
  C 1042.21 223.25 1043.61 222.31 1043.62 219.80
  Q 1043.64 207.44 1043.60 187.24
  A 2.47 2.45 -66.8 0 0 1042.93 185.55
  L 1033.55 175.49
  A 0.82 0.81 -41.8 0 0 1032.43 175.43
  L 1029.74 177.69
  Q 1029.31 178.05 1029.31 178.62
  L 1029.31 219.94
  A 2.86 2.85 -66.5 0 0 1030.07 221.88
  L 1034.44 226.55
  A 0.54 0.54 0.0 0 1 1034.41 227.32
  L 1020.44 240.36
  A 0.32 0.31 -41.9 0 1 1019.99 240.34
  L 1007.64 226.39
  A 0.74 0.74 0.0 0 1 1007.71 225.34
  C 1009.18 224.02 1011.20 222.66 1011.15 220.25
  Q 1011.01 214.29 1011.01 188.00
  A 3.52 3.49 25.2 0 0 1010.19 185.75
  L 1001.55 175.50
  Q 1001.19 175.08 1000.70 175.34
  Q 998.88 176.29 997.66 177.80
  Q 997.34 178.19 997.34 178.71
  Q 997.34 200.60 997.33 220.03
  Q 997.33 220.77 998.87 222.39
  Q 1001.26 224.88 1003.15 226.80
  Q 1003.54 227.19 1003.13 227.56
  L 989.03 240.73
  A 0.41 0.40 47.5 0 1 988.45 240.70
  L 975.32 225.85
  A 0.76 0.75 48.5 0 1 975.38 224.78
  L 978.43 222.08
  Q 979.17 221.42 979.18 220.43
  Q 979.27 202.26 979.21 188.02
  Q 979.20 185.45 978.33 184.51
  Q 973.37 179.20 971.23 176.42
  Q 970.44 175.39 969.42 176.20
  L 964.31 180.30
  Q 964.08 180.48 963.85 180.29
  L 963.64 180.10
  A 0.32 0.32 0.0 0 1 963.64 179.62
  L 982.53 162.90
  Q 982.86 162.61 983.16 162.93
  L 996.18 176.89
  A 0.44 0.40 48.5 0 0 996.75 176.95
  L 1014.18 163.00
  A 0.70 0.69 49.1 0 1 1015.12 163.07
  L 1028.12 177.00
  Q 1028.33 177.23 1028.58 177.03
  L 1046.76 162.47
  Q 1047.30 162.04 1047.76 162.56
  L 1060.40 176.85
  Q 1060.76 177.25 1061.18 176.92
  L 1067.23 172.07
  A 0.66 0.65 45.7 0 1 1068.07 172.09
  L 1068.30 172.29
  A 0.25 0.25 0.0 0 1 1068.29 172.68
  L 1061.67 177.99
  A 0.72 0.70 71.6 0 0 1061.40 178.55
  L 1061.40 216.78
  A 4.41 4.40 23.6 0 0 1062.58 219.78
  L 1068.39 226.01
  Z"
/>
<path fill="#000000" d="
  M 1083.12 224.89
  Q 1082.65 224.47 1082.18 224.89
  L 1077.16 229.32
  Q 1076.93 229.52 1076.70 229.32
  L 1076.39 229.05
  A 0.39 0.39 0.0 0 1 1076.39 228.47
  L 1081.73 223.75
  Q 1082.12 223.42 1082.12 222.90
  L 1082.15 181.26
  Q 1082.15 180.73 1082.62 180.49
  Q 1098.40 172.51 1114.15 162.23
  Q 1114.72 161.86 1115.06 162.44
  L 1129.58 187.64
  A 0.48 0.48 0.0 0 1 1129.45 188.27
  L 1102.16 208.52
  A 4.99 4.99 0.0 0 0 1101.61 216.05
  L 1114.33 228.79
  A 0.74 0.73 48.1 0 0 1115.31 228.85
  L 1132.44 215.15
  A 0.46 0.45 55.5 0 1 1133.12 215.29
  L 1133.33 215.66
  Q 1133.45 215.86 1133.27 215.99
  L 1102.03 240.97
  A 1.10 1.10 0.0 0 1 1100.59 240.92
  L 1083.12 224.89
  Z
  M 1100.99 172.53
  A 0.43 0.43 0.0 0 0 1100.19 172.74
  L 1100.19 207.70
  A 0.43 0.43 0.0 0 0 1100.88 208.05
  L 1115.00 197.56
  A 0.43 0.43 0.0 0 0 1115.12 197.00
  L 1100.99 172.53
  Z"
/>
<path fill="#000000" d="
  M 961.68 173.30
  L 962.49 173.30
  A 0.25 0.25 0.0 0 1 962.66 173.74
  L 956.04 179.59
  A 0.25 0.25 0.0 0 0 955.96 179.77
  L 955.96 219.54
  A 0.25 0.25 0.0 0 0 956.03 219.71
  L 963.73 227.97
  A 0.25 0.25 0.0 0 0 964.07 227.99
  L 969.30 223.57
  A 0.25 0.25 0.0 0 1 969.69 223.66
  L 969.83 223.98
  A 0.25 0.25 0.0 0 1 969.78 224.26
  L 951.62 241.20
  A 0.25 0.25 0.0 0 1 951.26 241.18
  L 938.52 226.06
  A 0.25 0.25 0.0 0 0 938.16 226.04
  L 932.51 231.31
  A 0.25 0.25 0.0 0 1 932.09 231.12
  L 932.09 230.21
  A 0.25 0.25 0.0 0 1 932.17 230.03
  L 937.27 225.26
  A 0.25 0.25 0.0 0 0 937.35 225.08
  L 937.35 185.00
  A 0.25 0.25 0.0 0 0 937.30 184.84
  L 929.60 175.24
  A 0.25 0.25 0.0 0 0 929.24 175.20
  L 924.30 179.37
  A 0.25 0.25 0.0 0 1 923.92 179.29
  L 923.65 178.77
  A 0.25 0.25 0.0 0 1 923.71 178.47
  L 941.75 162.51
  A 0.25 0.25 0.0 0 1 942.11 162.54
  L 955.35 178.24
  A 0.25 0.25 0.0 0 0 955.70 178.27
  L 961.52 173.36
  A 0.25 0.25 0.0 0 1 961.68 173.30
  Z"
/>
</svg>
