<?xml version="1.0" encoding="UTF-8" standalone="no"?>
<!DOCTYPE svg PUBLIC "-//W3C//DTD SVG 1.1//EN" "http://www.w3.org/Graphics/SVG/1.1/DTD/svg11.dtd">
<svg xmlns="http://www.w3.org/2000/svg" version="1.1" viewBox="0.00 0.00 1200.00 400.00">
<path fill="#de2b13" d="
  M 1145.49 253.99
  Q 1145.63 245.30 1145.55 230.86
  C 1145.53 227.00 1146.67 225.10 1150.75 225.06
  Q 1164.37 224.90 1168.97 225.08
  Q 1174.45 225.29 1174.53 230.93
  Q 1174.67 241.23 1174.75 277.76
  Q 1174.76 279.04 1174.41 279.92
  A 0.97 0.96 10.6 0 1 1173.53 280.52
  Q 1099.35 280.69 1074.50 280.75
  Q 1070.53 280.76 1070.50 277.32
  C 1070.42 269.11 1070.78 259.80 1077.13 253.88
  C 1079.12 252.02 1077.95 251.37 1078.10 249.29
  C 1080.00 221.58 1080.55 194.98 1078.58 167.99
  Q 1077.97 159.60 1075.41 151.29
  Q 1072.70 142.53 1072.43 141.10
  Q 1071.36 135.52 1071.24 130.51
  Q 1071.20 128.97 1071.98 128.22
  Q 1072.47 127.75 1074.00 127.55
  Q 1096.46 124.63 1118.77 127.71
  C 1121.30 128.06 1122.83 129.81 1122.66 132.45
  C 1122.13 140.95 1117.77 147.65 1115.35 155.20
  Q 1114.35 158.33 1113.56 165.82
  Q 1108.89 209.96 1111.53 253.41
  A 1.70 1.68 88.2 0 0 1113.21 255.00
  L 1144.46 255.00
  A 1.03 1.03 0.0 0 0 1145.49 253.99
  Z"
/>
<path fill="#de2b13" d="
  M 35.45 254.04
  Q 35.55 253.63 35.57 253.03
  Q 35.61 251.10 35.59 156.75
  C 35.59 154.99 34.13 153.56 32.36 152.57
  C 29.27 150.82 27.97 149.85 26.97 146.65
  Q 24.23 137.86 24.15 128.76
  A 1.97 1.96 89.4 0 1 26.08 126.78
  C 52.97 126.30 80.37 125.86 107.64 127.11
  Q 117.81 127.57 119.78 128.25
  C 126.76 130.66 127.43 136.87 127.82 144.07
  Q 131.08 204.81 127.98 265.52
  Q 127.53 274.43 121.05 277.54
  Q 118.11 278.95 108.76 279.41
  Q 68.24 281.43 26.14 280.17
  Q 24.25 280.12 24.23 278.23
  Q 24.12 265.86 24.18 260.23
  Q 24.22 256.83 27.02 256.28
  Q 28.85 255.93 34.49 254.93
  A 1.23 1.22 -87.7 0 0 35.45 254.04
  Z
  M 97.96 154.64
  A 3.36 3.36 0.0 0 0 94.60 151.28
  L 70.68 151.28
  A 3.36 3.36 0.0 0 0 67.32 154.64
  L 67.32 251.90
  A 3.36 3.36 0.0 0 0 70.68 255.26
  L 94.60 255.26
  A 3.36 3.36 0.0 0 0 97.96 251.90
  L 97.96 154.64
  Z"
/>
<path fill="#de2b13" d="
  M 183.96 212.48
  A 2.20 2.05 -16.2 0 0 182.89 214.27
  Q 182.85 234.18 182.88 249.50
  Q 182.89 252.71 183.27 253.64
  Q 183.46 254.11 183.89 254.38
  Q 184.76 254.96 186.01 254.96
  Q 198.84 255.06 214.02 255.00
  Q 218.59 254.98 218.36 250.76
  Q 218.26 248.95 218.30 231.99
  C 218.31 225.88 223.00 226.11 228.30 226.03
  Q 236.12 225.90 240.50 226.08
  Q 247.38 226.35 247.30 233.50
  Q 247.28 235.81 247.22 275.82
  A 4.45 4.44 -89.9 0 1 242.78 280.26
  L 145.47 280.26
  Q 143.28 280.26 143.26 278.07
  Q 143.17 269.26 143.24 260.00
  Q 143.26 257.18 145.71 256.48
  Q 150.36 255.13 151.77 254.68
  A 2.34 2.34 0.0 0 0 153.38 252.11
  C 152.65 247.17 152.49 243.56 152.79 238.30
  Q 154.86 201.69 152.57 160.88
  Q 152.03 151.16 145.21 147.65
  Q 144.68 147.38 144.42 146.86
  Q 143.56 145.12 143.56 143.28
  Q 143.55 134.52 143.59 127.38
  A 1.16 1.16 0.0 0 1 144.75 126.23
  L 245.76 126.23
  A 2.31 2.30 88.4 0 1 248.06 128.41
  Q 248.09 128.94 248.02 129.76
  Q 247.66 134.03 245.46 168.23
  Q 245.19 172.27 240.75 172.41
  Q 236.96 172.53 223.54 172.48
  C 218.92 172.46 218.44 169.84 218.43 165.78
  Q 218.43 160.15 218.42 154.67
  Q 218.40 150.51 214.25 150.51
  L 186.81 150.51
  Q 182.98 150.51 182.97 154.35
  Q 182.91 168.01 182.97 178.66
  C 183.00 183.94 182.73 186.75 188.74 186.75
  Q 207.75 186.74 226.43 186.75
  A 4.03 4.03 0.0 0 1 230.46 190.78
  L 230.46 209.94
  A 2.09 2.09 0.0 0 1 228.36 212.03
  Q 205.76 211.94 186.54 212.00
  Q 184.77 212.01 183.96 212.48
  Z"
/>
<path fill="#de2b13" d="
  M 355.44 201.19
  Q 355.61 201.46 358.36 203.07
  C 362.95 205.76 364.83 209.29 365.41 214.78
  Q 368.31 242.25 369.10 249.62
  A 5.01 5.01 0.0 0 0 370.28 252.37
  C 372.47 254.94 374.92 257.63 376.03 260.70
  Q 378.63 267.87 377.66 276.36
  Q 377.47 278.03 377.14 278.64
  Q 376.80 279.25 375.16 279.48
  Q 352.34 282.70 329.27 279.62
  A 2.46 2.46 0.0 0 1 327.21 277.82
  C 325.30 270.79 324.99 261.43 330.83 256.01
  C 331.71 255.19 333.80 253.69 334.31 251.43
  C 336.90 240.06 338.33 227.28 336.58 215.42
  Q 336.32 213.71 334.68 213.21
  C 326.30 210.62 314.72 211.33 305.76 212.56
  A 2.49 2.49 0.0 0 0 303.64 214.67
  Q 301.26 231.43 305.57 249.08
  Q 306.13 251.36 311.41 259.85
  Q 315.90 267.06 314.37 276.16
  Q 313.93 278.73 311.76 279.11
  Q 289.57 283.03 266.09 279.41
  Q 264.42 279.15 264.11 277.42
  Q 263.44 273.68 263.45 269.46
  C 263.47 263.67 265.57 259.09 269.18 254.22
  Q 270.15 252.91 270.31 250.79
  Q 274.03 199.53 271.31 153.40
  C 271.04 148.84 261.51 152.81 260.95 145.47
  Q 260.85 144.27 259.47 129.09
  Q 259.21 126.23 262.08 126.23
  Q 306.76 126.22 351.50 126.23
  Q 361.14 126.23 364.84 133.60
  Q 366.67 137.24 366.57 146.80
  Q 366.34 168.87 365.14 188.15
  C 364.85 192.68 362.98 195.70 359.10 198.01
  Q 355.71 200.02 355.46 200.35
  Q 355.16 200.76 355.44 201.19
  Z
  M 335.9355 154.6677
  A 2.87 2.87 0.0 0 0 333.0705 151.7927
  L 307.1305 151.7474
  A 2.87 2.87 0.0 0 0 304.2555 154.6124
  L 304.2045 183.8523
  A 2.87 2.87 0.0 0 0 307.0695 186.7273
  L 333.0095 186.7726
  A 2.87 2.87 0.0 0 0 335.8845 183.9076
  L 335.9355 154.6677
  Z"
/>
<path fill="#de2b13" d="
  M 464.12 254.17
  A 0.83 0.82 90.0 0 0 464.94 255.00
  L 496.04 255.00
  A 1.32 1.31 -0.0 0 0 497.36 253.69
  L 497.36 215.06
  Q 497.36 212.00 494.30 212.00
  L 436.94 212.00
  Q 434.26 212.00 434.30 209.32
  Q 434.37 204.77 435.36 145.66
  Q 435.48 138.21 435.80 136.86
  C 437.02 131.66 441.06 128.86 446.18 127.94
  C 447.97 127.62 450.71 127.06 452.80 126.96
  Q 484.67 125.41 516.34 127.34
  Q 522.78 127.73 525.45 132.39
  Q 526.88 134.89 526.90 140.92
  Q 526.96 159.25 526.92 168.52
  Q 526.90 173.25 522.57 173.27
  Q 513.73 173.29 501.36 173.22
  A 4.06 4.06 0.0 0 1 497.32 169.16
  L 497.32 153.18
  Q 497.32 150.51 494.66 150.51
  L 465.35 150.51
  Q 463.95 150.51 463.95 151.91
  L 463.95 185.23
  A 1.26 1.26 0.0 0 0 465.21 186.49
  Q 479.73 186.50 524.75 186.50
  Q 527.78 186.50 527.84 189.24
  Q 528.63 231.22 527.42 258.13
  C 527.10 265.31 526.01 271.97 521.65 276.18
  C 518.78 278.95 515.20 279.12 511.19 279.44
  Q 481.89 281.81 453.53 279.54
  C 444.91 278.85 439.15 277.82 435.89 270.40
  Q 434.78 267.88 434.77 261.85
  Q 434.73 246.68 434.76 226.33
  A 1.09 1.09 0.0 0 1 435.85 225.24
  L 462.45 225.24
  A 1.67 1.67 0.0 0 1 464.12 226.91
  L 464.12 254.17
  Z"
/>
<path fill="#de2b13" d="
  M 701.06 251.00
  A 3.68 3.68 0.0 0 0 703.22 254.35
  L 709.42 257.19
  A 3.73 3.71 -77.8 0 1 711.59 260.58
  L 711.59 277.99
  A 2.77 2.77 0.0 0 1 708.83 280.76
  Q 686.86 280.78 664.75 280.76
  C 662.34 280.76 660.60 279.08 660.68 276.42
  C 660.88 268.98 660.92 259.30 666.69 253.98
  C 668.10 252.67 668.53 251.19 668.65 249.51
  Q 672.05 202.68 670.11 154.99
  C 670.05 153.46 670.44 151.95 668.89 151.02
  C 667.48 150.16 664.79 150.51 662.55 150.51
  A 2.61 2.61 0.0 0 1 659.94 147.90
  L 659.94 129.03
  Q 659.94 126.23 662.73 126.23
  L 710.02 126.23
  A 1.91 1.91 0.0 0 1 711.93 128.11
  Q 712.00 133.99 711.94 141.20
  Q 711.91 145.91 711.82 146.30
  C 710.97 149.95 706.93 150.71 703.56 151.03
  Q 701.06 151.26 701.06 154.06
  Q 701.00 196.21 701.06 251.00
  Z"
/>
<path fill="#de2b13" d="
  M 765.40 185.89
  A 0.61 0.60 -90.0 0 0 766.00 186.50
  L 809.07 186.50
  A 1.56 1.56 0.0 0 1 810.63 188.06
  L 810.63 210.18
  Q 810.63 212.00 808.81 212.01
  Q 800.40 212.01 770.75 211.96
  Q 767.78 211.95 766.65 212.38
  A 1.84 1.16 -14.6 0 0 765.42 213.69
  L 765.32 253.49
  A 1.50 1.50 0.0 0 0 766.82 255.00
  L 798.75 255.00
  A 1.17 1.17 0.0 0 0 799.92 253.83
  L 799.92 226.54
  A 1.31 1.30 -90.0 0 1 801.22 225.23
  L 827.17 225.23
  Q 829.36 225.23 829.36 227.42
  L 829.36 277.36
  Q 829.36 280.51 826.21 280.51
  L 729.02 280.51
  Q 725.12 280.51 725.34 276.61
  Q 726.27 260.67 726.36 258.57
  C 726.63 252.07 735.72 258.83 735.74 249.75
  Q 735.85 202.91 735.75 155.09
  C 735.73 146.16 725.44 154.21 725.40 148.05
  Q 725.35 142.06 725.34 130.53
  C 725.33 125.86 728.27 126.24 732.12 126.23
  Q 787.87 126.21 827.42 126.23
  A 1.97 1.96 0.0 0 1 829.38 128.18
  Q 829.46 149.10 829.31 168.71
  Q 829.27 173.68 823.99 173.64
  Q 815.43 173.57 808.60 173.51
  Q 803.55 173.46 802.91 173.29
  Q 799.20 172.30 799.47 167.51
  Q 800.07 156.77 800.34 152.80
  Q 800.49 150.52 798.20 150.52
  L 766.48 150.52
  Q 765.40 150.52 765.40 151.60
  L 765.40 185.89
  Z"
/>
<path fill="#de2b13" d="
  M 906.83 212.28
  Q 906.51 212.05 905.23 212.05
  Q 896.40 212.02 883.41 211.98
  A 0.73 0.73 0.0 0 1 882.68 211.25
  L 882.68 187.56
  A 1.06 1.06 0.0 0 1 883.74 186.50
  L 934.68 186.50
  Q 937.37 186.50 937.37 189.19
  L 937.37 279.45
  A 0.80 0.80 0.0 0 1 936.57 280.25
  Q 901.90 280.27 867.04 280.25
  Q 856.73 280.25 853.20 278.68
  Q 847.97 276.36 845.88 270.77
  Q 844.75 267.75 844.57 260.61
  Q 843.63 221.33 843.91 185.25
  Q 844.14 156.46 845.00 147.07
  C 845.70 139.45 845.33 132.79 850.76 129.31
  Q 852.82 128.00 857.52 127.66
  Q 892.31 125.12 923.53 127.42
  Q 927.84 127.74 930.81 130.45
  C 938.84 137.80 937.69 158.86 937.29 169.30
  C 937.16 172.79 935.15 173.22 931.98 173.24
  Q 921.33 173.31 911.51 173.24
  Q 906.74 173.21 906.72 169.04
  Q 906.69 162.59 906.62 155.57
  Q 906.58 151.26 902.04 151.46
  Q 901.58 151.48 878.25 151.57
  Q 873.32 151.59 873.32 156.52
  L 873.32 253.27
  Q 873.32 254.99 875.05 254.99
  L 906.97 254.99
  A 0.99 0.99 0.0 0 0 907.96 254.00
  L 907.95 214.44
  Q 907.95 213.06 906.83 212.28
  Z"
/>
<path fill="#de2b13" d="
  M 1023.15 255.15
  C 1024.91 254.89 1026.12 254.17 1026.11 252.25
  Q 1026.08 237.70 1026.08 233.73
  Q 1026.07 226.28 1033.03 226.26
  Q 1043.70 226.24 1047.04 226.25
  Q 1052.85 226.28 1054.65 230.03
  Q 1055.58 231.98 1055.58 237.59
  Q 1055.57 256.60 1055.58 276.94
  Q 1055.58 280.76 1051.76 280.76
  L 953.79 280.76
  A 2.74 2.73 0.0 0 1 951.05 278.03
  L 951.05 257.73
  Q 951.05 255.87 952.91 255.94
  C 955.30 256.03 960.02 254.79 960.15 251.84
  Q 961.99 207.95 959.77 159.89
  C 959.51 154.28 959.55 150.76 953.57 149.67
  Q 950.70 149.15 950.77 145.79
  Q 950.82 143.46 950.93 128.82
  Q 950.95 126.23 953.53 126.23
  L 1050.96 126.23
  Q 1055.21 126.23 1055.22 130.47
  Q 1055.29 161.62 1055.14 168.62
  Q 1055.04 172.98 1050.50 172.77
  Q 1047.36 172.62 1030.51 171.51
  Q 1026.12 171.22 1026.07 167.02
  Q 1025.97 159.12 1025.95 155.07
  A 3.06 3.05 -88.2 0 0 1023.10 152.03
  Q 1009.62 151.15 995.99 150.27
  Q 991.54 149.99 991.55 154.25
  Q 991.55 163.06 991.58 181.63
  A 3.61 3.61 0.0 0 0 994.98 185.23
  Q 998.22 185.43 1032.00 187.46
  Q 1038.84 187.88 1039.00 194.24
  Q 1039.16 200.51 1039.01 207.24
  C 1038.91 212.02 1035.15 212.01 1031.50 212.00
  Q 1010.22 211.94 994.05 212.03
  A 2.50 2.49 89.9 0 0 991.57 214.53
  Q 991.57 242.66 991.57 249.27
  Q 991.57 252.26 994.33 253.11
  Q 1008.18 257.37 1023.15 255.15
  Z"
/>
<path fill="#de2b13" d="
  M 584.64 214.01
  Q 584.28 227.55 585.57 241.25
  C 586.13 247.30 588.21 252.31 590.56 257.59
  C 593.68 264.63 594.76 271.40 593.63 278.87
  A 2.23 2.23 0.0 0 1 591.43 280.76
  L 545.20 280.76
  A 3.31 3.31 0.0 0 1 541.90 277.27
  Q 542.39 268.53 543.04 259.51
  Q 543.18 257.62 544.25 256.83
  Q 544.71 256.49 546.80 256.39
  C 550.09 256.22 551.21 253.80 551.11 250.64
  Q 551.08 249.61 551.18 244.00
  Q 551.70 215.36 551.96 199.00
  Q 552.26 179.42 550.68 163.04
  C 550.14 157.45 548.11 152.67 545.87 147.69
  C 543.09 141.51 541.93 135.65 541.85 128.99
  Q 541.82 126.45 544.54 126.48
  Q 548.62 126.53 634.76 126.50
  Q 641.64 126.49 644.84 131.99
  Q 646.40 134.67 646.87 142.04
  Q 648.57 168.69 647.37 193.52
  C 646.75 206.30 641.42 211.20 628.79 211.71
  Q 608.87 212.51 586.51 212.21
  A 1.85 1.85 0.0 0 0 584.64 214.01
  Z
  M 617.5915 157.9645
  A 6.17 6.17 0.0 0 0 611.4865 151.7302
  L 590.6276 151.5118
  A 6.17 6.17 0.0 0 0 584.3933 157.6168
  L 584.1485 180.9955
  A 6.17 6.17 0.0 0 0 590.2535 187.2298
  L 611.1124 187.4482
  A 6.17 6.17 0.0 0 0 617.3467 181.3432
  L 617.5915 157.9645
  Z"
/>
</svg>
