<?xml version="1.0" encoding="UTF-8" standalone="no"?>
<!DOCTYPE svg PUBLIC "-//W3C//DTD SVG 1.1//EN" "http://www.w3.org/Graphics/SVG/1.1/DTD/svg11.dtd">
<svg xmlns="http://www.w3.org/2000/svg" version="1.1" viewBox="0.00 0.00 1200.00 400.00">
<path fill="#000000" d="
  M 305.82 155.78
  Q 307.26 154.28 305.19 154.42
  C 290.37 155.45 277.46 151.95 272.22 137.04
  Q 271.85 136.00 271.96 134.90
  A 1.68 1.68 0.0 0 1 274.18 133.48
  C 281.51 135.99 287.64 137.66 295.08 137.42
  Q 307.30 137.02 314.24 135.22
  Q 324.85 132.47 335.52 131.79
  Q 336.77 131.71 341.01 132.16
  C 359.57 134.12 364.63 149.08 364.90 165.29
  Q 365.43 197.64 365.41 216.04
  C 365.40 222.09 363.50 224.54 358.65 228.53
  Q 349.09 236.41 343.07 242.07
  C 340.78 244.23 338.90 244.21 335.99 242.82
  Q 328.55 239.26 328.19 239.10
  Q 324.44 237.49 317.67 235.52
  C 304.81 231.77 290.78 233.11 278.79 238.80
  Q 272.60 241.75 270.22 242.90
  A 0.60 0.59 -7.8 0 1 269.37 242.26
  Q 269.44 241.87 269.89 241.14
  Q 277.84 228.16 290.73 219.72
  C 292.29 218.70 292.67 217.33 292.67 215.41
  Q 292.67 173.58 292.71 168.76
  Q 292.74 164.51 296.83 162.33
  Q 302.35 159.40 305.82 155.78
  Z
  M 313.05 199.50
  C 313.06 202.41 311.34 204.52 309.11 206.36
  Q 304.07 210.52 299.01 213.51
  Q 297.87 214.19 297.89 215.60
  A 1.29 1.29 0.0 0 0 299.36 216.87
  Q 322.21 213.71 341.79 224.66
  A 1.86 1.86 0.0 0 0 344.55 223.04
  Q 344.57 196.28 344.51 161.75
  C 344.49 149.85 337.55 149.56 327.23 149.66
  C 317.74 149.75 313.14 151.29 313.10 161.74
  Q 313.03 183.47 313.05 199.50
  Z"
/>
<path fill="#000000" d="
  M 81.81 157.08
  A 2.49 2.33 -21.6 0 0 80.95 158.90
  Q 80.96 199.30 80.94 203.88
  Q 80.94 205.19 79.34 206.58
  Q 69.48 215.10 57.44 219.86
  Q 56.93 220.06 56.53 220.03
  A 0.57 0.57 0.0 0 1 56.14 219.08
  C 60.02 214.69 61.00 211.10 61.01 204.95
  Q 61.05 177.38 60.84 155.26
  C 60.82 152.99 60.35 151.40 58.11 150.69
  C 44.62 146.46 30.79 145.04 21.11 156.61
  Q 19.55 158.48 18.10 159.77
  A 1.19 1.19 0.0 0 1 16.12 158.97
  C 15.71 153.73 17.61 150.42 20.74 145.87
  C 30.56 131.59 47.55 130.18 63.71 133.17
  Q 72.49 134.80 91.28 138.96
  Q 95.72 139.94 105.25 140.26
  Q 113.36 140.54 120.39 136.69
  A 1.73 1.67 -57.3 0 1 121.28 136.48
  Q 123.56 136.57 122.70 139.05
  Q 119.09 149.42 108.35 153.30
  Q 96.58 157.55 83.89 156.64
  Q 82.45 156.53 81.81 157.08
  Z"
/>
<path fill="#000000" d="
  M 648.86 223.09
  A 1.55 1.55 0.0 0 0 649.64 225.37
  C 652.89 226.56 655.46 226.35 659.95 226.30
  Q 673.65 226.15 684.96 219.40
  C 693.89 214.06 700.07 205.89 704.93 196.48
  Q 705.93 194.54 707.87 195.26
  Q 708.34 195.43 708.30 195.93
  Q 707.00 212.70 698.11 225.05
  C 685.05 243.19 661.62 249.06 640.69 242.15
  Q 620.10 235.35 611.94 215.17
  C 607.06 203.09 606.98 186.23 613.74 174.49
  C 619.17 165.04 626.77 159.37 636.89 154.30
  Q 638.62 153.43 640.17 153.28
  A 0.63 0.63 0.0 0 1 640.73 154.30
  Q 638.55 157.11 634.40 162.88
  C 626.44 173.98 624.16 189.01 629.28 201.98
  Q 632.71 210.69 638.08 217.70
  C 642.81 223.87 648.98 221.05 652.05 215.26
  Q 654.11 211.38 654.10 207.25
  Q 654.00 166.42 654.00 156.50
  C 654.01 152.05 651.47 150.33 647.24 149.37
  C 640.63 147.87 634.34 146.63 628.29 148.19
  Q 619.11 150.56 612.08 158.34
  Q 611.55 158.93 610.73 159.24
  A 1.50 1.50 0.0 0 1 608.71 158.03
  Q 608.55 156.77 609.16 155.16
  C 617.51 132.98 637.24 129.37 658.25 133.30
  C 669.34 135.38 680.35 138.26 688.39 140.16
  Q 697.25 142.25 705.69 139.89
  Q 708.63 139.07 714.23 137.19
  Q 714.60 137.07 715.86 137.09
  A 0.90 0.89 12.8 0 1 716.66 138.36
  C 709.35 154.17 692.88 157.12 677.25 156.95
  Q 674.64 156.92 674.60 159.29
  Q 674.30 177.10 674.54 202.01
  C 674.58 205.50 672.20 207.74 668.91 209.65
  C 661.71 213.84 657.49 216.35 654.24 218.17
  Q 650.69 220.16 648.86 223.09
  Z"
/>
<path fill="#000000" d="
  M 146.89 176.21
  Q 147.43 178.02 149.07 177.08
  Q 154.50 173.95 167.26 166.50
  Q 168.61 165.71 170.39 166.41
  Q 172.76 167.34 176.97 171.32
  Q 182.26 176.33 182.34 183.54
  Q 182.60 206.81 182.83 219.06
  C 182.90 222.80 183.22 225.91 186.17 228.03
  C 187.98 229.34 190.00 229.27 192.67 229.38
  Q 195.07 229.47 193.22 231.00
  L 178.83 242.86
  A 3.04 3.04 0.0 0 1 174.77 242.69
  Q 168.13 236.15 163.81 231.70
  Q 162.20 230.04 162.13 228.25
  Q 161.85 221.26 161.77 184.26
  Q 161.77 181.94 159.41 180.33
  Q 157.97 179.35 155.34 179.34
  C 150.74 179.33 146.62 179.60 146.63 185.05
  Q 146.69 216.09 146.82 224.05
  C 146.86 226.70 152.21 229.23 154.51 230.14
  A 1.64 1.64 0.0 0 1 155.40 232.32
  C 154.58 234.17 148.97 238.06 143.88 242.13
  Q 140.73 244.65 137.92 241.84
  Q 129.95 233.89 127.56 231.44
  Q 126.12 229.97 126.05 227.00
  Q 125.74 214.82 126.06 159.00
  Q 126.08 155.93 123.59 153.58
  C 122.31 152.36 119.67 152.17 118.45 151.96
  A 0.68 0.67 -59.7 0 1 118.14 150.77
  Q 125.32 144.89 131.66 139.91
  C 133.85 138.19 135.91 139.79 138.03 141.32
  C 148.58 148.94 146.82 159.27 146.54 172.50
  Q 146.49 174.88 146.89 176.21
  Z"
/>
<path fill="#000000" d="
  M 481.74 155.86
  A 2.57 2.56 -89.8 0 0 479.19 153.28
  L 473.27 153.26
  A 0.84 0.84 0.0 0 1 472.73 151.77
  Q 477.72 147.58 484.26 142.40
  Q 487.62 139.74 487.83 139.64
  C 490.36 138.44 491.90 140.36 493.77 141.65
  Q 502.18 147.40 502.12 158.53
  Q 501.99 189.30 501.92 220.07
  Q 501.91 225.36 505.56 228.09
  C 506.99 229.16 509.32 229.33 510.76 230.46
  A 1.33 1.33 0.0 0 1 510.77 232.54
  L 498.75 242.14
  A 3.92 3.92 0.0 0 1 493.51 241.84
  L 481.96 230.21
  Q 481.49 229.75 481.50 229.09
  L 481.74 155.86
  Z"
/>
<path fill="#000000" d="
  M 771.23 155.89
  A 2.58 2.57 -90.0 0 0 768.66 153.31
  L 762.72 153.31
  A 0.85 0.84 24.9 0 1 762.17 151.82
  Q 767.16 147.60 773.71 142.38
  Q 777.07 139.70 777.28 139.60
  C 779.81 138.38 781.37 140.31 783.25 141.59
  Q 791.70 147.33 791.68 158.50
  Q 791.65 189.37 791.69 220.24
  Q 791.70 225.55 795.37 228.27
  C 796.81 229.34 799.14 229.50 800.59 230.63
  A 1.33 1.33 0.0 0 1 800.61 232.72
  L 788.58 242.39
  A 3.93 3.93 0.0 0 1 783.33 242.11
  L 771.70 230.48
  Q 771.23 230.02 771.23 229.36
  L 771.23 155.89
  Z"
/>
<path fill="#000000" d="
  M 463.07 153.53
  L 453.78 161.00
  A 3.21 3.21 0.0 0 1 449.50 160.77
  L 441.08 152.35
  A 3.21 3.21 0.0 0 1 441.34 147.58
  L 450.62 140.11
  A 3.21 3.21 0.0 0 1 454.90 140.34
  L 463.33 148.76
  A 3.21 3.21 0.0 0 1 463.07 153.53
  Z"
/>
<path fill="#000000" d="
  M 1136.84 176.38
  Q 1137.37 178.18 1139.01 177.25
  Q 1144.43 174.14 1157.16 166.75
  Q 1158.50 165.97 1160.27 166.67
  Q 1162.63 167.60 1166.82 171.58
  Q 1172.08 176.58 1172.14 183.77
  Q 1172.34 206.95 1172.54 219.15
  C 1172.60 222.88 1172.91 225.98 1175.84 228.10
  C 1177.64 229.41 1179.66 229.34 1182.32 229.46
  Q 1184.71 229.56 1182.86 231.08
  L 1168.49 242.86
  A 3.03 3.02 -42.4 0 1 1164.45 242.68
  Q 1157.85 236.14 1153.56 231.70
  Q 1151.96 230.04 1151.89 228.26
  Q 1151.63 221.29 1151.64 184.43
  Q 1151.65 182.12 1149.30 180.51
  Q 1147.87 179.53 1145.25 179.52
  C 1140.67 179.49 1136.56 179.75 1136.56 185.18
  Q 1136.54 216.11 1136.65 224.04
  C 1136.68 226.68 1142.01 229.21 1144.30 230.12
  A 1.63 1.63 0.0 0 1 1145.18 232.30
  C 1144.36 234.14 1138.76 238.00 1133.68 242.04
  Q 1130.53 244.55 1127.74 241.74
  Q 1119.82 233.80 1117.44 231.35
  Q 1116.01 229.88 1115.95 226.93
  Q 1115.67 214.79 1116.13 159.18
  Q 1116.16 156.12 1113.68 153.77
  C 1112.41 152.56 1109.78 152.36 1108.56 152.15
  A 0.67 0.67 0.0 0 1 1108.26 150.96
  Q 1115.43 145.12 1121.75 140.17
  C 1123.94 138.47 1125.99 140.07 1128.10 141.60
  C 1138.59 149.21 1136.81 159.50 1136.50 172.68
  Q 1136.44 175.05 1136.84 176.38
  Z"
/>
<path fill="#000000" d="
  M 42.17 161.17
  C 34.01 171.75 31.83 186.59 34.90 199.40
  C 37.87 211.86 47.37 220.58 59.22 224.87
  Q 63.24 226.33 68.05 226.30
  C 86.06 226.21 101.29 216.00 109.67 200.20
  Q 110.30 199.01 112.30 195.20
  C 113.04 193.79 114.01 193.21 115.40 194.07
  Q 115.87 194.35 115.80 194.89
  C 113.70 213.47 106.57 230.54 89.16 239.24
  Q 69.93 248.85 49.40 242.83
  Q 42.92 240.93 35.24 235.48
  C 19.89 224.58 11.34 202.89 16.22 184.69
  C 20.06 170.34 31.50 159.42 45.20 153.94
  Q 46.39 153.46 47.03 153.43
  A 0.63 0.63 0.0 0 1 47.56 154.46
  Q 42.70 160.47 42.17 161.17
  Z"
/>
<path fill="#000000" d="
  M 218.82 207.85
  C 217.53 212.28 216.67 219.62 220.70 223.77
  Q 230.29 233.66 241.65 224.50
  Q 242.53 223.80 243.23 224.67
  L 243.62 225.15
  Q 244.15 225.81 243.49 226.34
  L 222.26 243.41
  A 2.59 2.58 40.1 0 1 219.37 243.65
  Q 209.53 238.09 200.28 232.76
  Q 197.50 231.16 197.51 228.27
  Q 197.58 211.60 197.56 179.56
  Q 197.56 176.94 200.05 176.12
  L 232.33 165.52
  A 2.25 2.24 -24.4 0 1 234.97 166.51
  Q 240.35 175.69 245.57 184.82
  C 247.17 187.64 248.54 190.07 244.91 192.16
  Q 222.80 204.88 219.77 206.63
  A 2.08 2.08 0.0 0 0 218.82 207.85
  Z
  M 219.13 203.83
  C 222.50 202.88 226.32 199.62 228.22 197.22
  Q 229.47 195.64 228.42 193.08
  Q 225.32 185.60 220.36 178.15
  A 1.15 1.15 0.0 0 0 218.25 178.78
  L 218.25 203.16
  A 0.70 0.69 82.1 0 0 219.13 203.83
  Z"
/>
<path fill="#000000" d="
  M 736.56 207.71
  C 735.25 212.12 734.36 219.45 738.37 223.61
  Q 747.90 233.52 759.27 224.43
  Q 760.16 223.73 760.85 224.60
  L 761.24 225.08
  Q 761.76 225.74 761.10 226.27
  L 739.84 243.22
  A 2.58 2.57 40.4 0 1 736.95 243.45
  Q 727.15 237.85 717.94 232.49
  Q 715.18 230.89 715.20 228.00
  Q 715.34 211.36 715.46 179.38
  Q 715.47 176.76 717.96 175.96
  L 750.22 165.51
  A 2.24 2.24 0.0 0 1 752.85 166.51
  Q 758.18 175.70 763.36 184.83
  C 764.94 187.66 766.30 190.09 762.67 192.16
  Q 740.54 204.76 737.51 206.49
  A 2.08 2.07 -6.9 0 0 736.56 207.71
  Z
  M 736.61 203.22
  C 739.94 202.31 743.72 199.12 745.61 196.77
  Q 746.85 195.22 745.83 192.69
  Q 742.82 185.31 737.98 177.95
  A 1.13 1.13 0.0 0 0 735.90 178.55
  L 735.75 202.56
  A 0.68 0.68 0.0 0 0 736.61 203.22
  Z"
/>
<path fill="#000000" d="
  M 826.97 207.72
  C 825.67 212.13 824.79 219.45 828.79 223.60
  Q 838.33 233.50 849.69 224.39
  Q 850.57 223.70 851.27 224.57
  L 851.65 225.05
  Q 852.18 225.71 851.52 226.24
  L 830.29 243.20
  A 2.58 2.57 40.3 0 1 827.41 243.43
  Q 817.61 237.85 808.40 232.51
  Q 805.63 230.90 805.65 228.02
  Q 805.77 211.39 805.85 179.43
  Q 805.85 176.82 808.34 176.01
  L 840.57 165.53
  A 2.24 2.24 0.0 0 1 843.20 166.53
  Q 848.54 175.70 853.72 184.82
  C 855.31 187.64 856.67 190.07 853.04 192.14
  Q 830.95 204.76 827.92 206.50
  A 2.07 2.07 0.0 0 0 826.97 207.72
  Z
  M 828.15 203.43
  C 831.32 201.73 834.69 198.88 836.62 196.62
  Q 838.03 194.96 836.78 192.60
  Q 834.99 189.23 830.51 181.00
  Q 829.46 179.08 828.37 178.26
  A 1.29 1.29 0.0 0 0 826.34 179.02
  C 824.69 186.45 825.71 195.36 826.34 202.45
  A 1.24 1.23 73.3 0 0 828.15 203.43
  Z"
/>
<path fill="#000000" d="
  M 948.72 175.63
  A 1.34 1.33 -46.8 0 0 950.51 175.57
  Q 951.62 174.48 959.78 166.28
  C 961.96 164.09 964.05 166.25 965.64 168.16
  Q 969.80 173.15 976.99 175.52
  Q 978.13 175.90 978.67 176.63
  A 0.97 0.97 0.0 0 1 978.34 178.07
  Q 972.90 180.95 968.07 186.19
  C 966.26 188.16 963.87 188.76 961.90 186.84
  C 958.13 183.18 955.13 179.30 953.02 179.34
  A 2.09 2.09 0.0 0 0 950.97 181.47
  Q 951.39 203.18 951.49 219.59
  C 951.54 227.93 954.54 229.12 962.18 229.08
  A 0.76 0.76 0.0 0 1 962.94 229.83
  Q 962.94 230.71 961.98 231.49
  Q 955.36 236.89 946.80 243.70
  A 1.39 1.39 0.0 0 1 944.95 243.60
  Q 936.60 235.27 932.36 230.95
  Q 931.22 229.78 931.18 227.51
  Q 931.10 220.93 931.10 184.66
  C 931.10 182.36 930.40 180.26 928.32 179.51
  Q 927.85 179.34 927.36 179.47
  Q 924.61 180.21 922.58 179.96
  A 0.73 0.73 0.0 0 1 922.12 178.76
  Q 927.90 172.17 935.72 166.99
  C 937.67 165.70 938.91 166.01 940.45 167.59
  Q 946.12 173.42 948.72 175.63
  Z"
/>
<path fill="#000000" d="
  M 407.82 231.12
  A 2.61 2.57 32.1 0 0 405.63 231.60
  Q 400.11 235.90 391.80 242.62
  C 389.98 244.09 388.43 242.95 386.51 241.74
  Q 380.81 238.12 376.59 232.82
  C 375.29 231.17 374.81 229.62 374.82 227.39
  Q 374.79 205.97 374.83 184.16
  A 4.05 4.05 0.0 0 1 377.35 180.42
  Q 394.32 173.51 411.69 166.35
  C 414.82 165.05 415.43 166.13 418.04 168.19
  C 421.33 170.76 427.87 176.72 427.88 181.21
  Q 427.94 221.84 427.99 223.20
  Q 428.13 227.81 432.90 228.64
  Q 434.19 228.87 437.95 229.36
  A 0.99 0.99 0.0 0 1 438.45 231.12
  L 424.73 242.12
  A 4.08 4.07 -42.0 0 1 419.32 241.85
  C 414.45 237.05 409.55 231.51 407.82 231.12
  Z
  M 407.1654 182.5272
  A 5.87 5.87 0.0 0 0 401.2242 176.7293
  L 400.7842 176.7347
  A 5.87 5.87 0.0 0 0 394.9863 182.6760
  L 395.4946 224.2728
  A 5.87 5.87 0.0 0 0 401.4358 230.0707
  L 401.8758 230.0653
  A 5.87 5.87 0.0 0 0 407.6737 224.1240
  L 407.1654 182.5272
  Z"
/>
<path fill="#000000" d="
  M 905.03 256.93
  A 1.62 1.62 0.0 0 0 906.99 256.50
  C 914.28 247.67 903.74 237.10 896.91 232.31
  Q 893.88 230.20 891.36 232.34
  Q 888.18 235.03 878.98 242.29
  A 5.21 5.20 -41.6 0 1 872.07 241.88
  Q 867.80 237.58 862.70 232.19
  Q 861.46 230.88 861.48 228.34
  Q 861.49 225.97 861.53 183.80
  A 3.53 3.51 -11.3 0 1 863.71 180.55
  Q 898.76 166.11 899.04 166.00
  C 900.72 165.33 901.28 165.80 902.81 166.71
  Q 913.97 173.36 914.29 186.50
  Q 914.49 194.79 913.98 217.74
  Q 913.94 219.61 915.66 221.94
  C 921.14 229.32 927.83 237.11 921.81 246.47
  C 919.02 250.80 913.47 255.76 908.50 259.75
  Q 903.50 263.78 897.38 268.71
  A 2.79 2.78 -46.6 0 1 894.01 268.81
  C 882.25 260.42 869.22 257.78 855.32 262.54
  Q 853.83 263.05 852.94 262.94
  A 1.26 1.26 0.0 0 1 852.04 261.00
  Q 859.53 249.46 872.35 247.75
  C 884.73 246.10 895.33 252.26 905.03 256.93
  Z
  M 893.8829 182.1488
  A 5.74 5.74 0.0 0 0 888.1030 176.4490
  L 887.6430 176.4523
  A 5.74 5.74 0.0 0 0 881.9432 182.2322
  L 882.2371 224.3312
  A 5.74 5.74 0.0 0 0 888.0170 230.0310
  L 888.4770 230.0277
  A 5.74 5.74 0.0 0 0 894.1768 224.2478
  L 893.8829 182.1488
  Z"
/>
<path fill="#000000" d="
  M 1011.50 231.22
  A 2.61 2.57 32.0 0 0 1009.31 231.71
  Q 1003.80 236.02 995.50 242.75
  C 993.68 244.22 992.13 243.09 990.21 241.88
  Q 984.50 238.27 980.27 232.97
  C 978.97 231.33 978.49 229.78 978.49 227.55
  Q 978.43 206.13 978.43 184.32
  A 4.05 4.05 0.0 0 1 980.95 180.57
  Q 997.91 173.63 1015.26 166.44
  C 1018.39 165.14 1019.00 166.22 1021.62 168.27
  C 1024.91 170.84 1031.46 176.79 1031.48 181.28
  Q 1031.61 221.91 1031.66 223.27
  Q 1031.81 227.88 1036.58 228.70
  Q 1037.87 228.93 1041.63 229.41
  A 0.99 0.99 0.0 0 1 1042.13 231.17
  L 1028.43 242.20
  A 4.08 4.07 -42.1 0 1 1023.02 241.93
  C 1018.14 237.14 1013.23 231.61 1011.50 231.22
  Z
  M 1010.7614 182.1577
  A 5.53 5.53 0.0 0 0 1005.1643 176.6956
  L 1004.1243 176.7083
  A 5.53 5.53 0.0 0 0 998.6623 182.3055
  L 999.1786 224.5623
  A 5.53 5.53 0.0 0 0 1004.7757 230.0244
  L 1005.8157 230.0117
  A 5.53 5.53 0.0 0 0 1011.2777 224.4145
  L 1010.7614 182.1577
  Z"
/>
<path fill="#000000" d="
  M 1071.16 235.10
  A 0.88 0.88 0.0 0 0 1069.86 235.67
  Q 1068.26 242.99 1070.29 250.25
  Q 1070.89 252.37 1072.42 256.58
  A 2.42 2.42 0.0 0 1 1071.86 259.12
  L 1062.39 268.59
  A 2.04 2.04 0.0 0 1 1059.78 268.82
  Q 1053.50 264.43 1047.54 259.81
  C 1045.57 258.28 1046.12 256.30 1047.19 254.27
  Q 1049.20 250.46 1049.20 248.26
  Q 1049.18 222.73 1049.18 183.84
  C 1049.18 181.36 1047.94 180.59 1045.86 180.14
  Q 1043.99 179.74 1040.35 180.03
  A 0.92 0.92 0.0 0 1 1039.70 178.40
  L 1054.32 166.63
  Q 1056.59 164.81 1058.65 166.87
  L 1068.12 176.34
  A 2.12 2.11 52.5 0 0 1070.65 176.68
  Q 1083.37 169.43 1088.14 166.63
  Q 1090.45 165.27 1093.36 167.30
  C 1101.66 173.10 1104.45 177.74 1104.45 188.03
  Q 1104.45 206.28 1104.23 225.39
  C 1104.20 228.04 1104.63 230.57 1102.40 232.37
  Q 1095.43 238.00 1088.94 243.32
  A 2.75 2.74 -49.6 0 1 1085.83 243.57
  L 1071.16 235.10
  Z
  M 1083.9728 184.1172
  A 6.17 6.17 0.0 0 0 1077.7920 177.9579
  L 1075.3920 177.9621
  A 6.17 6.17 0.0 0 0 1069.2328 184.1429
  L 1069.3072 226.8028
  A 6.17 6.17 0.0 0 0 1075.4880 232.9621
  L 1077.8880 232.9579
  A 6.17 6.17 0.0 0 0 1084.0472 226.7771
  L 1083.9728 184.1172
  Z"
/>
<path fill="#000000" d="
  M 562.01 256.50
  C 565.93 255.52 567.00 251.64 565.94 247.94
  Q 562.55 236.17 552.29 231.82
  Q 551.04 231.28 550.19 231.52
  C 547.93 232.17 543.04 236.78 536.00 242.50
  Q 534.18 243.96 531.69 242.34
  Q 526.44 238.94 521.99 234.53
  C 519.15 231.72 518.88 226.76 518.92 223.03
  Q 519.12 203.10 519.13 185.75
  C 519.13 180.03 514.65 180.40 510.11 180.18
  A 0.91 0.91 0.0 0 1 509.58 178.56
  L 524.24 166.76
  A 3.58 3.57 -41.8 0 1 529.01 167.02
  L 539.12 177.12
  A 2.73 2.73 0.0 0 1 539.92 179.05
  Q 539.92 221.32 539.93 223.50
  C 539.96 227.09 544.96 230.17 548.06 230.93
  Q 548.55 231.05 548.99 230.78
  Q 550.56 229.82 550.58 227.76
  Q 550.68 215.43 550.61 186.81
  C 550.60 181.33 548.18 181.05 544.09 178.89
  A 1.24 1.24 0.0 0 1 543.90 176.82
  L 556.32 166.82
  A 3.57 3.57 0.0 0 1 561.06 167.06
  Q 564.96 170.89 569.95 176.03
  Q 571.34 177.47 571.45 179.64
  Q 572.24 195.94 571.55 215.58
  Q 571.35 221.23 574.24 224.67
  C 576.17 226.96 578.43 228.83 579.80 231.65
  C 584.00 240.27 580.22 246.10 573.68 252.39
  Q 565.26 260.48 554.86 268.12
  Q 552.47 269.88 550.43 268.48
  C 544.28 264.28 537.36 261.20 529.80 260.30
  C 523.54 259.55 517.47 261.27 510.50 263.04
  A 1.17 1.17 0.0 0 1 509.04 261.88
  C 509.09 260.09 510.37 259.31 511.26 258.30
  Q 522.92 245.23 539.49 247.55
  C 544.72 248.28 551.16 250.71 555.37 253.35
  C 557.98 254.99 560.42 256.90 562.01 256.50
  Z"
/>
<path fill="#000000" d="
  M 444.57 184.00
  C 444.57 178.33 439.92 181.72 437.03 179.84
  A 0.97 0.97 0.0 0 1 436.94 178.28
  Q 444.79 171.77 450.81 167.04
  Q 452.02 166.09 453.72 166.93
  C 461.06 170.57 465.21 175.55 465.41 184.05
  Q 465.61 193.11 465.68 222.25
  C 465.69 227.64 470.37 229.16 474.57 230.67
  A 0.84 0.84 0.0 0 1 474.81 232.11
  L 460.72 243.44
  A 1.62 1.61 -41.9 0 1 458.57 243.33
  Q 449.50 234.31 446.39 231.28
  C 445.12 230.05 444.58 228.77 444.58 226.93
  Q 444.56 211.11 444.57 184.00
  Z"
/>
</svg>
